<svg width="430" height="681" viewBox="0 0 430 681" fill="none" xmlns="http://www.w3.org/2000/svg">
<path d="M-643.915 0L-893.458 340.5H-1108.29L-858.748 0H-643.915ZM-1143 681H-928.208L-678.666 340.5H-893.458L-1143 681ZM-429.123 0L-678.666 340.5H-463.833L-214.29 0H-429.123ZM-713.375 681H-498.542L-248.999 340.5H-463.833L-713.375 681ZM0.501676 0L-249.041 340.5H-34.2076L215.335 0H0.501676ZM-283.709 681H-68.9171L180.625 340.5H-34.1662L-283.709 681ZM430.168 0L180.625 340.5H395.458L645.001 0H430.126H430.168ZM145.958 681H360.791L610.333 340.5H395.5L145.958 681ZM859.834 0L610.292 340.5H825.125L1074.67 0H859.834ZM575.624 681H790.416L1039.96 340.5H825.166L575.624 681ZM1289.5 0L1039.96 340.5H1254.79L1504.33 0H1289.5ZM1005.29 681H1220.08L1469.62 340.5H1254.79L1005.25 681H1005.29ZM1719.17 0L1469.62 340.5H1684.46L1934 0H1719.17ZM1434.92 681H1649.75L1899.29 340.5H1684.5L1434.96 681H1434.92Z" fill="url(#paint0_linear_1286_24326)"/>
<defs>
<linearGradient id="paint0_linear_1286_24326" x1="553.401" y1="681" x2="553.4" y2="-57.1468" gradientUnits="userSpaceOnUse">
<stop stop-color="#4EE3FF"/>
<stop offset="0.141167" stop-color="#65C7F7"/>
<stop offset="1" stop-color="#0052D4"/>
</linearGradient>
</defs>
</svg>
