<svg width="60" height="60" viewBox="0 0 60 60" fill="none" xmlns="http://www.w3.org/2000/svg">
<g clip-path="url(#clip0_1039_9509)">
<path d="M20.9761 47.1953L21.5942 45.2932L20.9761 47.1953ZM12.8047 39.0239L14.7068 38.4058L12.8047 39.0239ZM47.1953 39.0239L45.2932 38.4058L47.1953 39.0239ZM39.0239 47.1953L38.4058 45.2932L39.0239 47.1953ZM39.0239 12.8047L38.4058 14.7068L39.0239 12.8047ZM47.1953 20.9761L45.2932 21.5942L47.1953 20.9761ZM20.9761 12.8047L21.5942 14.7068L20.9761 12.8047ZM12.8047 20.9761L14.7068 21.5942L12.8047 20.9761ZM14.7273 32C15.8318 32 16.7273 31.1046 16.7273 30C16.7273 28.8954 15.8318 28 14.7273 28V32ZM2 28C0.89543 28 0 28.8954 0 30C0 31.1046 0.89543 32 2 32V28ZM28 14.7273C28 15.8318 28.8954 16.7273 30 16.7273C31.1046 16.7273 32 15.8318 32 14.7273H28ZM32 2C32 0.89543 31.1046 0 30 0C28.8954 0 28 0.89543 28 2H32ZM28 58C28 59.1046 28.8954 60 30 60C31.1046 60 32 59.1046 32 58H28ZM32 45.2727C32 44.1682 31.1046 43.2727 30 43.2727C28.8954 43.2727 28 44.1682 28 45.2727H32ZM58 32C59.1046 32 60 31.1046 60 30C60 28.8954 59.1046 28 58 28V32ZM45.2727 28C44.1682 28 43.2727 28.8954 43.2727 30C43.2727 31.1046 44.1682 32 45.2727 32V28ZM30 45.8182C25.1065 45.8182 23.1341 45.7935 21.5942 45.2932L20.3581 49.0974C22.6525 49.8429 25.4179 49.8182 30 49.8182V45.8182ZM10.1818 30C10.1818 34.5821 10.1571 37.3475 10.9026 39.6419L14.7068 38.4058C14.2065 36.8659 14.1818 34.8935 14.1818 30H10.1818ZM21.5942 45.2932C18.3284 44.232 15.768 41.6716 14.7068 38.4058L10.9026 39.6419C12.3594 44.1254 15.8746 47.6406 20.3581 49.0974L21.5942 45.2932ZM45.8182 30C45.8182 34.8935 45.7935 36.8659 45.2932 38.4058L49.0974 39.6419C49.8429 37.3475 49.8182 34.5821 49.8182 30H45.8182ZM30 49.8182C34.5821 49.8182 37.3475 49.8429 39.6419 49.0974L38.4058 45.2932C36.8659 45.7935 34.8935 45.8182 30 45.8182V49.8182ZM45.2932 38.4058C44.232 41.6716 41.6716 44.232 38.4058 45.2932L39.6419 49.0974C44.1254 47.6406 47.6406 44.1254 49.0974 39.6419L45.2932 38.4058ZM30 14.1818C34.8935 14.1818 36.8659 14.2065 38.4058 14.7068L39.6419 10.9026C37.3475 10.1571 34.5821 10.1818 30 10.1818V14.1818ZM49.8182 30C49.8182 25.4179 49.8429 22.6525 49.0974 20.3581L45.2932 21.5942C45.7935 23.1341 45.8182 25.1065 45.8182 30H49.8182ZM38.4058 14.7068C41.6716 15.768 44.232 18.3284 45.2932 21.5942L49.0974 20.3581C47.6406 15.8746 44.1254 12.3594 39.6419 10.9026L38.4058 14.7068ZM30 10.1818C25.4179 10.1818 22.6525 10.1571 20.3581 10.9026L21.5942 14.7068C23.1341 14.2065 25.1065 14.1818 30 14.1818V10.1818ZM14.1818 30C14.1818 25.1065 14.2065 23.1341 14.7068 21.5942L10.9026 20.3581C10.1571 22.6525 10.1818 25.4179 10.1818 30H14.1818ZM20.3581 10.9026C15.8746 12.3594 12.3594 15.8746 10.9026 20.3581L14.7068 21.5942C15.768 18.3284 18.3284 15.768 21.5942 14.7068L20.3581 10.9026ZM14.7273 28H2V32H14.7273V28ZM32 14.7273V2H28V14.7273H32ZM32 58V45.2727H28V58H32ZM58 28H45.2727V32H58V28Z" fill="#E31E34"/>
<path d="M26 30C26 32.2091 27.7909 34 30 34C32.2091 34 34 32.2091 34 30C34 27.7909 32.2091 26 30 26C27.7909 26 26 27.7909 26 30Z" stroke="#E31E34" stroke-width="4"/>
</g>
<defs>
<clipPath id="clip0_1039_9509">
<rect width="60" height="60" rx="12" fill="white"/>
</clipPath>
</defs>
</svg>
