<svg width="60" height="60" viewBox="0 0 60 60" fill="none" xmlns="http://www.w3.org/2000/svg">
<path d="M13.0382 51.7082L14.1996 50.08L13.0382 51.7082ZM10.3342 49.0534L11.9419 47.8637L10.3342 49.0534ZM49.6658 49.0534L48.0581 47.8637L49.6658 49.0534ZM46.9618 51.7082L45.8004 50.08L46.9618 51.7082ZM46.9618 8.2918L45.8004 9.92L46.9618 8.2918ZM49.6658 10.9466L48.0581 12.1363L49.6658 10.9466ZM13.0382 8.2918L14.1996 9.92L13.0382 8.2918ZM10.3342 10.9466L11.9419 12.1363L10.3342 10.9466ZM20.2222 18.4C19.1177 18.4 18.2222 19.2954 18.2222 20.4C18.2222 21.5046 19.1177 22.4 20.2222 22.4V18.4ZM39.7778 22.4C40.8823 22.4 41.7778 21.5046 41.7778 20.4C41.7778 19.2954 40.8823 18.4 39.7778 18.4V22.4ZM20.2222 28C19.1177 28 18.2222 28.8954 18.2222 30C18.2222 31.1046 19.1177 32 20.2222 32V28ZM39.7778 32C40.8823 32 41.7778 31.1046 41.7778 30C41.7778 28.8954 40.8823 28 39.7778 28V32ZM20.2222 37.6C19.1177 37.6 18.2222 38.4954 18.2222 39.6C18.2222 40.7046 19.1177 41.6 20.2222 41.6V37.6ZM27.5556 41.6C28.6601 41.6 29.5556 40.7046 29.5556 39.6C29.5556 38.4954 28.6601 37.6 27.5556 37.6V41.6ZM50 27.6V32.4H54V27.6H50ZM10 32.4V27.6H6V32.4H10ZM30 52C25.3732 52 22.0609 51.9974 19.4982 51.7247C16.9708 51.4559 15.4099 50.9433 14.1996 50.08L11.8767 53.3364C13.8793 54.7649 16.2163 55.3982 19.0751 55.7023C21.8986 56.0027 25.4607 56 30 56V52ZM6 32.4C6 36.8543 5.99715 40.3587 6.30385 43.1379C6.61491 45.9569 7.26403 48.2667 8.72655 50.2431L11.9419 47.8637C11.0702 46.6857 10.5522 45.1686 10.2797 42.6992C10.0028 40.1902 10 36.945 10 32.4H6ZM14.1996 50.08C13.3319 49.461 12.5702 48.7128 11.9419 47.8637L8.72655 50.2431C9.60595 51.4315 10.6693 52.4751 11.8767 53.3364L14.1996 50.08ZM50 32.4C50 36.945 49.9972 40.1902 49.7203 42.6992C49.4478 45.1686 48.9298 46.6857 48.0581 47.8637L51.2735 50.2431C52.736 48.2667 53.3851 45.9569 53.6962 43.1379C54.0028 40.3587 54 36.8543 54 32.4H50ZM30 56C34.5393 56 38.1014 56.0027 40.9249 55.7023C43.7837 55.3982 46.1207 54.7649 48.1233 53.3364L45.8004 50.08C44.5901 50.9433 43.0292 51.4559 40.5018 51.7247C37.9391 51.9974 34.6268 52 30 52V56ZM48.0581 47.8637C47.4298 48.7128 46.6681 49.461 45.8004 50.08L48.1233 53.3364C49.3307 52.4751 50.394 51.4315 51.2735 50.2431L48.0581 47.8637ZM30 8C34.6268 8 37.9391 8.00265 40.5018 8.27525C43.0292 8.54411 44.5901 9.0567 45.8004 9.92L48.1233 6.6636C46.1207 5.23509 43.7837 4.60179 40.9249 4.29769C38.1014 3.99735 34.5393 4 30 4V8ZM54 27.6C54 23.1457 54.0028 19.6413 53.6962 16.8621C53.3851 14.0431 52.736 11.7333 51.2735 9.75689L48.0581 12.1363C48.9298 13.3143 49.4478 14.8314 49.7203 17.3008C49.9972 19.8098 50 23.055 50 27.6H54ZM45.8004 9.92C46.6681 10.539 47.4298 11.2872 48.0581 12.1363L51.2735 9.75689C50.394 8.56851 49.3307 7.5249 48.1233 6.6636L45.8004 9.92ZM30 4C25.4607 4 21.8986 3.99735 19.0751 4.29769C16.2163 4.60179 13.8793 5.23509 11.8767 6.6636L14.1996 9.92C15.4099 9.0567 16.9708 8.54411 19.4982 8.27525C22.0609 8.00265 25.3732 8 30 8V4ZM10 27.6C10 23.055 10.0028 19.8098 10.2797 17.3008C10.5522 14.8314 11.0702 13.3143 11.9419 12.1363L8.72655 9.75689C7.26403 11.7333 6.61491 14.0431 6.30385 16.8621C5.99715 19.6413 6 23.1457 6 27.6H10ZM11.8767 6.6636C10.6693 7.5249 9.60595 8.56851 8.72655 9.75689L11.9419 12.1363C12.5702 11.2872 13.3319 10.539 14.1996 9.92L11.8767 6.6636ZM20.2222 22.4H39.7778V18.4H20.2222V22.4ZM20.2222 32H39.7778V28H20.2222V32ZM20.2222 41.6H27.5556V37.6H20.2222V41.6Z" fill="#E31E34"/>
</svg>
