<svg width="60" height="60" viewBox="0 0 60 60" fill="none" xmlns="http://www.w3.org/2000/svg">
<path d="M29.2061 47.9814L30.3743 49.6048V49.6048L29.2061 47.9814ZM29.3334 47.8901L28.1757 46.2593L29.3334 47.8901ZM36.1688 45.6835L36.1817 47.6835L36.1688 45.6835ZM18.9502 49.3346L20.809 50.0727L18.9502 49.3346ZM22.9403 52.49L21.7722 50.8666L22.9403 52.49ZM53.5152 36.9961L55.4355 37.555L53.5152 36.9961ZM45.3764 45.1949L45.943 47.1129L45.3764 45.1949ZM12.5521 8.31757L13.4654 10.0969L12.5521 8.31757ZM7.30792 13.6004L9.09262 14.5031L7.30792 13.6004ZM47.4479 8.31757L46.5346 10.0969L47.4479 8.31757ZM52.6921 13.6004L50.9074 14.5031L52.6921 13.6004ZM31.9208 18.0561L32.9977 19.7414L31.9208 18.0561ZM39.9738 18.4366L41.4069 17.0416L41.4069 17.0416L39.9738 18.4366ZM20.0262 18.4366L21.4594 19.8316L20.0262 18.4366ZM28.0791 18.0561L29.1561 16.3708L29.1561 16.3708L28.0791 18.0561ZM34.8 5H25.2V9H34.8V5ZM4 26.3416V36.5645H8V26.3416H4ZM56 29.2047V26.3416H52V29.2047H56ZM15.052 47.6832H16.4962V43.6832H15.052V47.6832ZM24.1085 54.1134L30.3743 49.6048L28.038 46.358L21.7722 50.8666L24.1085 54.1134ZM36.325 47.6832H37.6421V43.6832H36.325V47.6832ZM30.3743 49.6048C30.4402 49.5574 30.4661 49.5387 30.4911 49.521L28.1757 46.2593C28.1379 46.2861 28.0999 46.3135 28.038 46.358L30.3743 49.6048ZM36.325 43.6832C36.2489 43.6832 36.2022 43.6832 36.1559 43.6835L36.1817 47.6835C36.2121 47.6833 36.244 47.6832 36.325 47.6832V43.6832ZM30.4911 49.521C32.1589 48.3371 34.1446 47.6966 36.1817 47.6835L36.1559 43.6835C33.2958 43.702 30.5111 44.6015 28.1757 46.2593L30.4911 49.521ZM16.4962 47.6832C16.9311 47.6832 17.2726 48.14 17.0913 48.5965L20.809 50.0727C22.0166 47.0314 19.8009 43.6832 16.4962 43.6832V47.6832ZM17.0913 48.5965C15.3966 52.8647 20.2877 56.8626 24.1085 54.1134L21.7722 50.8666C21.6061 50.9861 21.4781 51.0045 21.3833 50.9992C21.2707 50.993 21.1368 50.9471 21.0127 50.849C20.8887 50.7509 20.8084 50.6273 20.773 50.5098C20.7425 50.4083 20.7309 50.2693 20.809 50.0727L17.0913 48.5965ZM52 29.2047C52 33.4284 51.9799 35.1144 51.5949 36.4371L55.4355 37.555C56.0201 35.5466 56 33.1487 56 29.2047H52ZM37.6421 47.6832C41.5544 47.6832 43.9423 47.7039 45.943 47.1129L44.8099 43.2768C43.5037 43.6626 41.8377 43.6832 37.6421 43.6832V47.6832ZM51.5949 36.4371C50.6339 39.7388 48.0736 42.3128 44.8099 43.2768L45.943 47.1129C50.523 45.7601 54.0966 42.1549 55.4355 37.555L51.5949 36.4371ZM4 36.5645C4 42.6913 8.93431 47.6832 15.052 47.6832V43.6832C11.1711 43.6832 8 40.51 8 36.5645H4ZM25.2 5C21.8729 5 19.2565 4.99842 17.1544 5.17144C15.0285 5.34641 13.2525 5.70998 11.6388 6.53827L13.4654 10.0969C14.4186 9.60759 15.6063 9.31238 17.4825 9.15796C19.3824 9.00158 21.8064 9 25.2 9V5ZM8 26.3416C8 22.9238 8.00153 20.4798 8.15694 18.5636C8.3105 16.6703 8.60437 15.4684 9.09262 14.5031L5.52322 12.6978C4.70355 14.3183 4.34346 16.1019 4.17004 18.2402C3.99847 20.3556 4 22.9893 4 26.3416H8ZM11.6388 6.53827C9.00339 7.891 6.86344 10.048 5.52322 12.6978L9.09262 14.5031C10.0534 12.6037 11.5849 11.0621 13.4654 10.0969L11.6388 6.53827ZM34.8 9C38.1936 9 40.6176 9.00158 42.5175 9.15796C44.3937 9.31238 45.5814 9.60759 46.5346 10.0969L48.3612 6.53827C46.7475 5.70998 44.9715 5.34641 42.8456 5.17144C40.7435 4.99842 38.1271 5 34.8 5V9ZM56 26.3416C56 22.9893 56.0015 20.3556 55.83 18.2402C55.6565 16.1019 55.2965 14.3183 54.4768 12.6978L50.9074 14.5031C51.3956 15.4684 51.6895 16.6703 51.8431 18.5636C51.9985 20.4798 52 22.9238 52 26.3416H56ZM46.5346 10.0969C48.4151 11.0621 49.9466 12.6037 50.9074 14.5031L54.4768 12.6978C53.1366 10.048 50.9966 7.891 48.3612 6.53827L46.5346 10.0969ZM32.9977 19.7414C33.8652 19.187 34.8514 18.7503 35.7971 18.6806C36.6407 18.6184 37.5668 18.8312 38.5406 19.8316L41.4069 17.0416C39.5797 15.1644 37.4835 14.5453 35.503 14.6914C33.6246 14.8299 31.9848 15.6417 30.8439 16.3708L32.9977 19.7414ZM38.5406 19.8316C39.7204 21.0437 40.1329 22.5283 39.9642 24.2468C39.7896 26.0248 38.9851 28.0063 37.757 29.9112C36.5368 31.8037 34.9777 33.4966 33.4569 34.6966C31.848 35.9661 30.6078 36.4301 30 36.4301V40.4301C32.0023 40.4301 34.1451 39.2488 35.9346 37.8368C37.8121 36.3554 39.6669 34.3307 41.1188 32.0786C42.5628 29.8389 43.6886 27.249 43.945 24.6378C44.2073 21.9672 43.5517 19.2449 41.4069 17.0416L38.5406 19.8316ZM30 36.4301C29.3922 36.4301 28.152 35.9661 26.5432 34.6966C25.0223 33.4966 23.4632 31.8037 22.243 29.9112C21.0149 28.0063 20.2105 26.0248 20.0358 24.2468C19.8671 22.5283 20.2796 21.0437 21.4594 19.8316L18.5931 17.0416C16.4483 19.2449 15.7927 21.9672 16.055 24.6378C16.3114 27.249 17.4372 29.8389 18.8812 32.0786C20.3331 34.3307 22.1879 36.3554 24.0654 37.8368C25.855 39.2488 27.9977 40.4301 30 40.4301V36.4301ZM21.4594 19.8316C22.4332 18.8312 23.3593 18.6184 24.2028 18.6806C25.1486 18.7503 26.1348 19.187 27.0022 19.7414L29.1561 16.3708C28.0152 15.6417 26.3754 14.8299 24.497 14.6914C22.5165 14.5454 20.4203 15.1644 18.5931 17.0416L21.4594 19.8316ZM30.8439 16.3708C30.3657 16.6763 29.6343 16.6763 29.1561 16.3708L27.0022 19.7414C28.7937 20.8861 31.2063 20.8861 32.9977 19.7414L30.8439 16.3708Z" fill="#E31E34"/>
</svg>
