<svg width="16" height="16" viewBox="0 0 16 16" fill="none" xmlns="http://www.w3.org/2000/svg">
<path fill-rule="evenodd" clip-rule="evenodd" d="M6 0.833252C6.27614 0.833252 6.5 1.05711 6.5 1.33325V2.17366C6.94616 2.16659 7.44189 2.16659 7.99263 2.16659H8.00737C8.55811 2.16659 9.05384 2.16659 9.5 2.17366V1.33325C9.5 1.05711 9.72386 0.833252 10 0.833252C10.2761 0.833252 10.5 1.05711 10.5 1.33325V2.20897C11.5079 2.27216 12.2823 2.43548 12.9198 2.89869C13.2453 3.13513 13.5315 3.42131 13.7679 3.74674C14.1585 4.28429 14.3333 4.91388 14.4175 5.6909C14.5 6.45232 14.5 7.41205 14.5 8.6364V8.67423C14.5 9.44748 14.5 10.1123 14.4804 10.6837C14.4376 11.9327 14.3025 12.8507 13.7679 13.5864C13.5315 13.9119 13.2453 14.198 12.9198 14.4345C12.1841 14.9691 11.2661 15.1042 10.0171 15.147C9.44561 15.1666 8.78064 15.1666 8.00719 15.1666H7.96982C6.74547 15.1666 5.78574 15.1666 5.02432 15.0841C4.24729 14.9999 3.61771 14.825 3.08016 14.4345C2.75473 14.198 2.46854 13.9119 2.2321 13.5864C1.84155 13.0489 1.66667 12.4193 1.58249 11.6423C1.49999 10.8808 1.49999 9.92111 1.5 8.69675V8.63642C1.49999 7.41206 1.49999 6.45233 1.58249 5.6909C1.66667 4.91388 1.84155 4.28429 2.2321 3.74674C2.46854 3.42131 2.75473 3.13513 3.08016 2.89869C3.7177 2.43548 4.49206 2.27216 5.5 2.20897V1.33325C5.5 1.05711 5.72386 0.833252 6 0.833252ZM5.5 3.21142C4.59197 3.27387 4.06785 3.41715 3.66794 3.7077C3.42741 3.88246 3.21588 4.09399 3.04112 4.33453C2.79506 4.6732 2.65163 5.10667 2.57667 5.79862C2.50069 6.49991 2.5 7.40554 2.5 8.66659C2.5 9.92763 2.50069 10.8333 2.57667 11.5346C2.65163 12.2265 2.79506 12.66 3.04112 12.9986C3.21588 13.2392 3.42741 13.4507 3.66794 13.6255C4.00661 13.8715 4.44009 14.015 5.13203 14.0899C5.83333 14.1659 6.73895 14.1666 8 14.1666C8.56557 14.1666 9.06119 14.1666 9.50122 14.1594C9.50413 13.8429 9.51398 13.61 9.5472 13.4003C9.80699 11.76 11.0934 10.4736 12.7337 10.2138C12.9434 10.1806 13.1764 10.1707 13.4928 10.1678C13.5 9.72778 13.5 9.23215 13.5 8.66659C13.5 7.40554 13.4993 6.49991 13.4233 5.79862C13.3484 5.10667 13.2049 4.6732 12.9589 4.33453C12.7841 4.09399 12.5726 3.88246 12.3321 3.7077C11.9321 3.41715 11.408 3.27387 10.5 3.21142V3.33325C10.5 3.60939 10.2761 3.83325 10 3.83325C9.72386 3.83325 9.5 3.60939 9.5 3.33325V3.17378C9.06028 3.16662 8.56504 3.16659 8 3.16659C7.43496 3.16659 6.93972 3.16662 6.5 3.17378V3.33325C6.5 3.60939 6.27614 3.83325 6 3.83325C5.72386 3.83325 5.5 3.60939 5.5 3.33325V3.21142ZM13.455 11.1684C13.1851 11.1716 13.0268 11.1798 12.8901 11.2015C11.6777 11.3935 10.7269 12.3443 10.5349 13.5567C10.5132 13.6934 10.505 13.8517 10.5019 14.1216C11.4088 14.0591 11.9324 13.9158 12.3321 13.6255C12.5726 13.4507 12.7841 13.2392 12.9589 12.9986C13.2492 12.599 13.3925 12.0753 13.455 11.1684Z" fill="white"/>
<path d="M5.33333 5.99992C5.33333 6.36811 5.03486 6.66659 4.66667 6.66659C4.29848 6.66659 4 6.36811 4 5.99992C4 5.63173 4.29848 5.33325 4.66667 5.33325C5.03486 5.33325 5.33333 5.63173 5.33333 5.99992Z" fill="white"/>
<path d="M5.33333 8.66659C5.33333 9.03478 5.03486 9.33325 4.66667 9.33325C4.29848 9.33325 4 9.03478 4 8.66659C4 8.2984 4.29848 7.99992 4.66667 7.99992C5.03486 7.99992 5.33333 8.2984 5.33333 8.66659Z" fill="white"/>
<path d="M8.66667 5.99992C8.66667 6.36811 8.36819 6.66659 8 6.66659C7.63181 6.66659 7.33333 6.36811 7.33333 5.99992C7.33333 5.63173 7.63181 5.33325 8 5.33325C8.36819 5.33325 8.66667 5.63173 8.66667 5.99992Z" fill="white"/>
<path d="M8.66667 8.66659C8.66667 9.03478 8.36819 9.33325 8 9.33325C7.63181 9.33325 7.33333 9.03478 7.33333 8.66659C7.33333 8.2984 7.63181 7.99992 8 7.99992C8.36819 7.99992 8.66667 8.2984 8.66667 8.66659Z" fill="white"/>
<path d="M8.66667 11.3333C8.66667 11.7014 8.36819 11.9999 8 11.9999C7.63181 11.9999 7.33333 11.7014 7.33333 11.3333C7.33333 10.9651 7.63181 10.6666 8 10.6666C8.36819 10.6666 8.66667 10.9651 8.66667 11.3333Z" fill="white"/>
<path d="M12 5.99992C12 6.36811 11.7015 6.66659 11.3333 6.66659C10.9651 6.66659 10.6667 6.36811 10.6667 5.99992C10.6667 5.63173 10.9651 5.33325 11.3333 5.33325C11.7015 5.33325 12 5.63173 12 5.99992Z" fill="white"/>
<path d="M12 8.66659C12 9.03478 11.7015 9.33325 11.3333 9.33325C10.9651 9.33325 10.6667 9.03478 10.6667 8.66659C10.6667 8.2984 10.9651 7.99992 11.3333 7.99992C11.7015 7.99992 12 8.2984 12 8.66659Z" fill="white"/>
<path d="M5.33333 11.3333C5.33333 11.7014 5.03486 11.9999 4.66667 11.9999C4.29848 11.9999 4 11.7014 4 11.3333C4 10.9651 4.29848 10.6666 4.66667 10.6666C5.03486 10.6666 5.33333 10.9651 5.33333 11.3333Z" fill="white"/>
</svg>
