<svg width="928" height="1475" viewBox="0 0 928 1475" fill="none" xmlns="http://www.w3.org/2000/svg">
<g clip-path="url(#clip0_737_74)">
<path d="M858.189 1475C855.732 1475 854.317 1472.21 855.769 1470.23L1392.64 737.5H1851.92C1854.38 737.5 1855.79 740.291 1854.34 742.273L1318.37 1473.77C1317.81 1474.54 1316.91 1475 1315.95 1475H858.189ZM1929.5 4.77307C1930.95 2.79138 1929.54 0 1927.08 0H1469.41C1468.45 0 1467.55 0.455688 1466.99 1.22681L927.521 737.5H1392.64L1929.5 4.77307ZM385.636 1475C386.592 1475 387.491 1474.54 388.056 1473.77L927.521 737.5H462.317L-74.5503 1470.23C-76.0023 1472.21 -74.587 1475 -72.1304 1475H385.636ZM999.184 4.77307C1000.64 2.79138 999.221 0 996.764 0H538.998C538.042 0 537.143 0.455688 536.578 1.22681L0.609863 732.727C-0.842163 734.709 0.57312 737.5 3.02979 737.5H462.317L999.184 4.77307ZM-544.683 1475C-543.727 1475 -542.828 1474.54 -542.263 1473.77L-6.29517 742.273C-4.84314 740.291 -6.25842 737.5 -8.71509 737.5H-466.481C-467.437 737.5 -468.336 737.956 -468.901 738.727L-1004.87 1470.23C-1006.32 1472.21 -1004.91 1475 -1002.45 1475H-544.683ZM68.7754 4.77307C70.2273 2.79138 68.8121 0 66.3553 0H-391.321C-392.277 0 -393.176 0.455688 -393.74 1.22681L-933.206 737.5H-469.613C-468.657 737.5 -467.758 737.044 -467.193 736.273L68.7754 4.77307ZM-1473.48 1475C-1473.52 1475 -1473.54 1474.96 -1473.52 1474.93L-933.206 737.5H-1396.89C-1397.85 737.5 -1398.74 737.956 -1399.31 738.727L-1935.28 1470.23C-1936.73 1472.21 -1935.31 1475 -1932.86 1475H-1473.48ZM-861.633 4.77307C-860.181 2.79138 -861.596 0 -864.053 0H-1321.82C-1322.77 0 -1323.67 0.455688 -1324.24 1.22681L-1860.21 732.727C-1861.66 734.709 -1860.24 737.5 -1857.79 737.5H-1400.02C-1399.06 737.5 -1398.17 737.044 -1397.6 736.273L-861.633 4.77307ZM-2405.5 1475C-2404.54 1475 -2403.64 1474.54 -2403.08 1473.77L-1867.11 742.273C-1865.66 740.291 -1867.08 737.5 -1869.53 737.5H-2327.3C-2328.25 737.5 -2329.15 737.956 -2329.72 738.727L-2865.69 1470.23C-2867.14 1472.21 -2865.72 1475 -2863.27 1475H-2405.5ZM-1792.04 4.77307C-1790.59 2.79138 -1792 0 -1794.46 0H-2252.14C-2253.09 0 -2253.99 0.455688 -2254.56 1.22681L-2794.02 737.5H-2330.43C-2329.47 737.5 -2328.57 737.044 -2328.01 736.273L-1792.04 4.77307ZM-3335.91 1475C-3334.95 1475 -3334.05 1474.54 -3333.49 1473.77L-2794.02 737.5H-3259.23L-3796.09 1470.23C-3797.55 1472.21 -3796.13 1475 -3793.67 1475H-3335.91ZM-2718.95 0H-3182.55C-3183.5 0 -3184.4 0.455688 -3184.97 1.22681L-3724.43 737.5H-3259.23L-2718.92 0.0721436C-2718.89 0.0421143 -2718.92 0 -2718.95 0ZM-4266.32 1475C-4265.36 1475 -4264.46 1474.54 -4263.9 1473.77L-3724.43 737.5H-4188.12C-4189.07 737.5 -4189.97 737.956 -4190.54 738.727L-4726.5 1470.23C-4727.96 1472.21 -4726.54 1475 -4724.08 1475H-4266.32ZM-3649.27 0H-4112.96C-4113.91 0 -4114.81 0.455688 -4115.38 1.22681L-4651.34 732.727C-4652.79 734.709 -4651.38 737.5 -4648.92 737.5H-4191.25C-4190.29 737.5 -4189.39 737.044 -4188.83 736.273L-3649.41 0.0723877C-3649.38 0.0268555 -3649.33 0 -3649.27 0Z" fill="url(#paint0_linear_737_74)"/>
</g>
<defs>
<linearGradient id="paint0_linear_737_74" x1="-4730" y1="3187.89" x2="-4730" y2="2.19134e-05" gradientUnits="userSpaceOnUse">
<stop stop-color="#4EE3FF"/>
<stop offset="0.5" stop-color="#65C7F7"/>
<stop offset="1" stop-color="#0052D4"/>
</linearGradient>
<clipPath id="clip0_737_74">
<rect width="928" height="1475" fill="white"/>
</clipPath>
</defs>
</svg>
