<svg width="749" height="340" viewBox="0 0 749 340" fill="none" xmlns="http://www.w3.org/2000/svg">
<path d="M333.47 339.346C333.483 339.334 333.5 339.326 333.518 339.326L725.621 339.326C731.809 339.326 740.265 340.842 746.294 339.326C747.09 339.127 748.164 339.326 749 339.326C748.522 339.326 739.211 328.576 740.265 329.673C733.043 322.114 725.661 314.655 718.279 307.256C710.877 299.857 703.476 292.457 695.915 285.218C694.124 283.503 688.613 276.462 686.285 276.462L323.453 276.462C320.361 276.462 319.838 272.037 322.845 271.317V271.317C381.959 257.176 441.073 243.016 500.188 228.876C508.803 226.821 517.418 224.747 526.034 222.693C530.312 221.676 535.067 221.077 538.629 218.325C549.711 209.729 549.015 188.229 542.747 177.121C539.803 171.915 535.007 167.588 530.948 163.359C518.533 150.416 505.858 137.711 493.044 125.166C486.419 118.684 478.559 107.496 468.372 106.459C454.345 105.023 439.442 106.459 425.355 106.459L320.357 106.459C316.985 106.459 316.406 101.632 319.682 100.834V100.834C379.89 86.1554 440.118 71.4764 500.327 56.7976C512.564 53.8259 526.452 52.1707 538.191 47.5038C552.039 42.0191 552.974 21.2573 548.876 9.11131C544.458 -3.97204 530.312 -14.5624 521.159 -23.8364C508.465 -36.7004 495.969 -50.3619 482.141 -62.0492C479.634 -64.1633 477.306 -65.9383 473.983 -66.5766C460.971 -69.0496 445.391 -66.6963 432.239 -66.6963L324.711 -66.6963C321.58 -66.6963 321.053 -71.1763 324.099 -71.902V-71.902C383.153 -86.0224 442.208 -100.163 501.282 -114.283C509.579 -116.258 517.876 -118.252 526.193 -120.247C530.67 -121.323 535.525 -121.922 539.106 -125.073C549.851 -134.467 548.876 -156.205 541.653 -167.254C538.708 -171.782 534.47 -175.651 530.789 -179.5C518.413 -192.464 505.699 -205.128 492.885 -217.693C486.26 -224.195 478.4 -235.364 468.213 -236.401C454.186 -237.837 439.283 -236.401 425.196 -236.401L319.687 -236.401C316.388 -236.401 315.82 -241.122 319.025 -241.906V-241.906C379.592 -256.664 440.158 -271.443 500.725 -286.221C512.961 -289.213 527.446 -290.649 539.086 -295.695C552.835 -301.638 553.153 -323.796 548.318 -335.643C547.184 -338.395 545.652 -340.809 543.822 -343.142C534.749 -354.65 523.248 -364.801 512.942 -375.132C502.933 -385.164 493.084 -395.815 482.24 -404.989C479.117 -407.641 476.57 -409.197 472.451 -409.635C459.04 -411.052 444.715 -409.635 431.224 -409.635L378.84 -409.635C367.81 -409.635 365.941 -425.414 376.667 -427.984V-427.984C415.645 -437.338 454.623 -446.712 493.582 -456.085C505.042 -458.838 516.523 -461.59 527.984 -464.342C537.932 -466.735 544.299 -470.724 546.826 -481.953C548.975 -491.446 548.06 -502.875 542.668 -511.151C536.241 -521.004 526.273 -529.181 518.115 -537.438C505.222 -550.501 492.229 -566.376 477.266 -577.226C472.332 -580.796 467.696 -580.317 462.045 -580.317L-0.581078 -580.318C-6.78895 -580.318 -15.2452 -581.853 -21.2939 -580.318C-22.0898 -580.118 -23.1643 -580.318 -23.9999 -580.318C-23.5224 -580.318 -14.2106 -569.567 -15.2651 -570.664C-8.04248 -563.106 -0.680566 -555.646 6.72113 -548.247C14.1228 -540.848 21.5245 -533.449 29.0854 -526.209C30.8761 -524.494 36.3877 -517.454 38.7156 -517.454L402.577 -517.454C405.67 -517.454 406.197 -513.008 403.19 -512.288V-512.288C343.399 -497.928 283.608 -483.549 223.818 -469.189C215.242 -467.115 206.647 -465.06 198.051 -462.986C193.773 -461.969 189.018 -461.371 185.476 -458.618C174.374 -450.003 175.11 -428.523 181.357 -417.414C184.282 -412.209 189.117 -407.88 193.156 -403.652C205.552 -390.689 218.247 -378.004 231.06 -365.459C237.746 -358.918 245.486 -347.789 255.733 -346.752C269.661 -345.336 284.504 -346.752 298.491 -346.752L405.273 -346.752C408.572 -346.752 409.14 -342.031 405.935 -341.247V-341.247C345.369 -326.468 284.802 -311.71 224.236 -296.931C212.118 -293.979 198.33 -292.324 186.69 -287.717C172.841 -282.233 171.906 -261.451 176.005 -249.325C180.482 -236.082 194.35 -225.91 203.722 -216.397C216.416 -203.533 228.911 -189.851 242.74 -178.164C245.287 -176.01 247.555 -174.275 250.898 -173.637C263.851 -171.184 279.291 -173.517 292.383 -173.517L402.005 -173.517C404.993 -173.517 405.5 -169.224 402.593 -168.531V-168.531C343.459 -154.391 284.325 -140.25 225.191 -126.09C216.774 -124.076 208.358 -122.061 199.941 -120.047C195.663 -119.03 190.848 -118.431 187.287 -115.659C176.184 -107.063 176.881 -85.5633 183.148 -74.4544C185.556 -70.1864 189.257 -66.7362 192.559 -63.2261C205.612 -49.3051 219.202 -35.8629 232.851 -22.5203C239.417 -16.0983 247.416 -4.82958 257.523 -3.79249C271.65 -2.35651 286.652 -3.79249 300.819 -3.79248L404.623 -3.79248C407.999 -3.79248 408.579 1.03122 405.299 1.83188V1.83188C345.09 16.5108 284.862 31.1893 224.653 45.8682C212.317 48.8797 197.713 50.3358 185.974 55.4016C172.245 61.3449 171.906 83.5427 176.761 95.3497C177.895 98.1019 179.427 100.515 181.238 102.849C190.311 114.356 201.812 124.508 212.118 134.839C222.106 144.851 231.995 155.541 242.819 164.695C245.943 167.348 248.51 168.904 252.609 169.343C265.582 170.719 279.45 169.343 292.462 169.343L345.021 169.343C356.024 169.343 357.879 185.067 347.179 187.631V187.631C308.38 196.925 269.581 206.199 230.782 215.493C219.58 218.186 208.358 220.858 197.156 223.551C186.65 226.064 180.581 231.409 178.572 243.016C176.96 252.35 178.214 262.92 183.606 270.858C191.167 281.987 202.428 291.201 211.84 300.694C223.36 312.302 235.418 327.599 249.186 336.753C253.982 339.945 258.896 339.366 264.368 339.366L333.422 339.366C333.44 339.366 333.458 339.359 333.47 339.346V339.346Z" fill="url(#paint0_linear_1173_5323)"/>
<defs>
<linearGradient id="paint0_linear_1173_5323" x1="363" y1="-120" x2="362.5" y2="340" gradientUnits="userSpaceOnUse">
<stop stop-color="#1B1918"/>
<stop offset="1" stop-color="#C3961E" stop-opacity="0.2"/>
</linearGradient>
</defs>
</svg>
