<svg width="574" height="482" viewBox="0 0 574 482" fill="none" xmlns="http://www.w3.org/2000/svg">
<path d="M573.593 259.101C573.585 259.093 573.58 259.083 573.58 259.071V14.5779C573.58 10.7194 574.525 5.44652 573.58 1.68729C573.456 1.19102 573.58 0.521081 573.58 0C573.58 0.297761 566.88 6.10411 567.564 5.44656C562.853 9.95019 558.204 14.5531 553.593 19.1559C548.981 23.7712 544.37 28.3865 539.858 33.101C538.789 34.2176 534.401 37.6543 534.401 39.1058V265.348C534.401 267.275 531.643 267.601 531.194 265.727V265.727C522.381 228.866 513.556 192.006 504.743 155.146C503.463 149.774 502.17 144.401 500.89 139.029C500.256 136.362 499.883 133.397 498.168 131.176C492.81 124.265 479.411 124.7 472.488 128.608C469.244 130.444 466.546 133.434 463.911 135.965C455.844 143.707 447.926 151.61 440.108 159.6C436.068 163.731 429.095 168.632 428.449 174.984C427.554 183.731 428.449 193.023 428.449 201.807V267.278C428.449 269.38 425.44 269.741 424.943 267.699V267.699C415.795 230.156 406.647 192.601 397.498 155.059C395.646 147.429 394.615 138.769 391.706 131.449C388.288 122.814 375.348 122.231 367.778 124.787C359.624 127.541 353.024 136.362 347.244 142.069C339.227 149.985 330.713 157.776 323.429 166.399C322.111 167.962 321.005 169.413 320.607 171.485C319.066 179.599 320.532 189.314 320.532 197.515V264.563C320.532 266.515 317.74 266.843 317.288 264.945V264.945C308.488 228.122 299.675 191.299 290.875 154.463C289.644 149.29 288.401 144.116 287.158 138.93C286.487 136.139 286.114 133.111 284.15 130.878C278.296 124.179 264.747 124.786 257.861 129.29C255.039 131.126 252.628 133.769 250.229 136.064C242.149 143.781 234.257 151.709 226.426 159.699C222.374 163.83 215.413 168.731 214.766 175.083C213.871 183.83 214.766 193.123 214.766 201.906V267.696C214.766 269.752 211.824 270.106 211.336 268.109V268.109C202.138 230.343 192.927 192.577 183.716 154.811C181.852 147.181 180.957 138.149 177.812 130.891C174.108 122.318 160.299 122.119 152.915 125.134C151.2 125.841 149.696 126.796 148.242 127.938C141.069 133.595 134.743 140.766 128.304 147.193C122.052 153.434 115.414 159.575 109.696 166.337C108.043 168.284 107.074 169.872 106.8 172.441C105.918 180.803 106.8 189.735 106.8 198.147V254.471C106.8 258.025 101.714 258.627 100.884 255.172C99.0422 247.504 97.2022 239.837 95.365 232.166C89.5354 207.862 83.6933 183.557 77.8512 159.265C76.1359 152.118 74.4207 144.96 72.7054 137.814C71.2138 131.61 68.7277 127.64 61.7297 126.064C55.813 124.724 48.6905 125.295 43.5321 128.657C37.3918 132.665 32.2956 138.88 27.1496 143.967C19.0081 152.007 9.11393 160.108 2.35207 169.438C0.127122 172.515 0.425378 175.406 0.425378 178.929V467.397C0.425378 471.268 -0.531723 476.541 0.425378 480.313C0.549677 480.809 0.425378 481.479 0.425378 482C0.425378 481.702 7.1252 475.896 6.44155 476.553C11.1525 472.05 15.8012 467.459 20.4127 462.844C25.0242 458.229 29.6358 453.613 34.1478 448.899C35.2168 447.782 39.6044 444.346 39.6044 442.894V216.01C39.6044 214.082 42.3752 213.754 42.8239 215.628V215.628C51.7734 252.91 60.7352 290.193 69.6847 327.475C70.9774 332.822 72.2578 338.182 73.5505 343.541C74.1844 346.209 74.5573 349.174 76.2726 351.382C81.6423 358.305 95.0292 357.846 101.953 353.95C105.197 352.127 107.894 349.112 110.529 346.593C118.609 338.864 126.514 330.949 134.333 322.959C138.41 318.79 145.346 313.964 145.992 307.574C146.874 298.89 145.992 289.634 145.992 280.912V214.329C145.992 212.272 148.934 211.919 149.423 213.916V213.916C158.633 251.682 167.831 289.448 177.042 327.214C178.881 334.77 179.913 343.368 182.784 350.625C186.202 359.261 199.154 359.844 206.712 357.288C214.965 354.496 221.304 345.849 227.234 340.005C235.251 332.09 243.778 324.299 251.062 315.676C252.404 314.088 253.485 312.673 253.883 310.589C255.412 302.512 253.958 292.885 253.958 284.721V216.367C253.958 214.504 256.634 214.189 257.065 216V216C265.878 252.873 274.691 289.746 283.516 326.619C284.772 331.867 286.027 337.115 287.282 342.363C287.916 345.03 288.289 348.033 290.017 350.253C295.374 357.176 308.774 356.742 315.697 352.834C318.357 351.333 320.507 349.025 322.695 346.966C331.371 338.827 339.749 330.353 348.064 321.842C352.067 317.748 359.09 312.76 359.736 306.458C360.631 297.649 359.736 288.294 359.736 279.461V214.734C359.736 212.63 362.743 212.269 363.242 214.313V214.313C372.39 251.856 381.538 289.411 390.687 326.954C392.563 334.646 393.471 343.752 396.628 351.072C400.332 359.633 414.167 359.844 421.525 356.816C423.241 356.109 424.745 355.154 426.199 354.025C433.371 348.367 439.698 341.196 446.136 334.77C452.376 328.542 459.039 322.375 464.744 315.626C466.397 313.678 467.367 312.078 467.64 309.522C468.498 301.433 467.64 292.786 467.64 284.672V228.304C467.64 224.749 472.723 224.15 473.55 227.608C475.378 235.257 477.207 242.907 479.038 250.553C484.831 274.746 490.61 298.939 496.403 323.132C498.081 330.117 499.747 337.115 501.425 344.1C502.991 350.65 506.322 354.434 513.556 355.687C519.373 356.692 525.961 355.911 530.908 352.549C537.844 347.834 543.587 340.812 549.503 334.943C556.737 327.76 566.271 320.242 571.977 311.656C573.965 308.666 573.605 305.602 573.605 302.19V259.131C573.605 259.12 573.601 259.109 573.593 259.101V259.101Z" fill="url(#paint0_linear_537_1091)" fill-opacity="0.5"/>
<defs>
<linearGradient id="paint0_linear_537_1091" x1="-9.91728e-08" y1="219.762" x2="546.544" y2="306.846" gradientUnits="userSpaceOnUse">
<stop stop-color="#1B1818"/>
<stop offset="1" stop-color="#E31E34"/>
</linearGradient>
</defs>
</svg>
