<svg width="1598" height="1343" viewBox="0 0 1598 1343" fill="none" xmlns="http://www.w3.org/2000/svg">
<path d="M1596.87 721.936C1596.84 721.914 1596.83 721.884 1596.83 721.853V40.6184C1596.83 29.8675 1599.46 15.1757 1596.83 4.70131C1596.49 3.31856 1596.83 1.45189 1596.83 0C1596.83 0.829652 1578.18 17.0079 1580.08 15.1758C1566.97 27.7243 1554.03 40.5493 1541.19 53.3743C1528.35 66.2339 1515.51 79.0935 1502.95 92.2297C1499.97 95.3409 1487.76 104.916 1487.76 108.961V739.343C1487.76 744.708 1480.08 745.614 1478.83 740.396C1454.3 637.692 1429.73 534.988 1405.19 432.283C1401.63 417.315 1398.03 402.347 1394.46 387.379C1392.7 379.946 1391.66 371.684 1386.89 365.496C1371.97 346.242 1334.67 347.451 1315.39 358.341C1306.36 363.457 1298.85 371.788 1291.52 378.84C1269.06 400.411 1247.01 422.431 1225.25 444.694C1214 456.205 1194.59 469.86 1192.79 487.559C1190.3 511.93 1192.79 537.822 1192.79 562.297V744.722C1192.79 750.572 1184.41 751.577 1183.03 745.892C1157.56 641.287 1132.09 536.647 1106.62 432.041C1101.47 410.782 1098.6 386.653 1090.5 366.257C1080.98 342.197 1044.96 340.572 1023.88 347.694C1001.18 355.368 982.809 379.946 966.718 395.848C944.398 417.903 920.694 439.612 900.416 463.637C896.748 467.993 893.668 472.038 892.561 477.811C888.27 500.419 892.353 527.486 892.353 550.336V737.156C892.353 742.589 884.579 743.503 883.321 738.218C858.821 635.617 834.286 533.017 809.787 430.382C806.361 415.967 802.9 401.552 799.44 387.102C797.571 379.324 796.533 370.889 791.066 364.667C774.767 346 737.049 347.693 717.878 360.242C710.022 365.358 703.309 372.721 696.63 379.117C674.137 400.618 652.164 422.708 630.363 444.97C619.082 456.482 599.703 470.136 597.903 487.836C595.412 512.207 597.903 538.099 597.903 562.573V745.885C597.903 751.61 589.711 752.594 588.353 747.033C562.745 641.805 537.104 536.578 511.462 431.35C506.271 410.09 503.779 384.924 495.024 364.701C484.712 340.814 446.267 340.261 425.712 348.661C420.936 350.632 416.749 353.294 412.7 356.474C392.734 372.237 375.121 392.218 357.195 410.125C339.789 427.513 321.31 444.625 305.392 463.465C300.789 468.892 298.091 473.317 297.33 480.472C294.873 503.772 297.33 528.661 297.33 552.099V643.122C297.33 662.261 269.948 665.501 265.494 646.887C249.264 579.167 233 511.446 216.736 443.76C211.96 423.849 207.185 403.903 202.41 383.991C198.257 366.706 191.336 355.644 171.854 351.254C155.382 347.521 135.553 349.111 121.192 358.479C104.098 369.645 89.9101 386.964 75.5838 401.137C52.9179 423.538 25.3729 446.111 6.5481 472.107C0.353904 480.68 1.18424 488.734 1.18424 498.552V1302.31C1.18424 1313.1 -1.4803 1327.79 1.18424 1338.3C1.53029 1339.68 1.18424 1341.55 1.18424 1343C1.18424 1342.17 19.8364 1325.99 17.9331 1327.82C31.0482 1315.28 43.9902 1302.49 56.8285 1289.63C69.6667 1276.77 82.5052 1263.91 95.0666 1250.77C98.0426 1247.66 110.258 1238.08 110.258 1234.04V601.867C110.258 596.501 117.972 595.588 119.22 600.807C144.136 704.686 169.085 808.566 194 912.445C197.599 927.344 201.164 942.278 204.763 957.211C206.527 964.644 207.565 972.906 212.341 979.059C227.29 998.348 264.559 997.069 283.833 986.215C292.865 981.133 300.375 972.733 307.711 965.715C330.204 944.179 352.212 922.124 373.978 899.862C385.328 888.247 404.638 874.799 406.438 856.996C408.894 832.798 406.438 807.01 406.438 782.708V597.184C406.438 591.459 414.63 590.475 415.988 596.036C441.63 701.264 467.237 806.491 492.879 911.719C498.001 932.771 500.873 956.728 508.866 976.95C518.382 1001.01 554.44 1002.63 575.48 995.514C598.457 987.736 616.105 963.641 632.612 947.359C654.932 925.304 678.671 903.595 698.949 879.57C702.686 875.145 705.696 871.204 706.804 865.397C711.06 842.892 707.011 816.067 707.011 793.321V602.862C707.011 597.677 714.462 596.799 715.663 601.844C740.197 704.582 764.732 807.321 789.301 910.06C792.796 924.682 796.291 939.305 799.786 953.928C801.551 961.36 802.589 969.725 807.399 975.913C822.314 995.203 859.618 993.993 878.892 983.104C886.298 978.921 892.284 972.491 898.374 966.752C922.528 944.075 945.851 920.465 969.002 896.751C980.144 885.343 999.696 871.446 1001.5 853.885C1003.99 829.341 1001.5 803.276 1001.5 778.663V598.314C1001.5 592.455 1009.87 591.45 1011.25 597.142C1036.72 701.748 1062.19 806.388 1087.66 910.993C1092.89 932.426 1095.41 957.799 1104.2 978.195C1114.51 1002.05 1153.03 1002.63 1173.51 994.2C1178.29 992.23 1182.48 989.568 1186.53 986.422C1206.49 970.659 1224.11 950.678 1242.03 932.771C1259.4 915.418 1277.95 898.237 1293.83 879.432C1298.44 874.004 1301.14 869.545 1301.9 862.424C1304.29 839.885 1301.9 815.79 1301.9 793.182V701.857C1301.9 682.765 1329.19 679.551 1333.63 698.118C1349.76 765.527 1365.85 832.937 1381.97 900.346C1386.64 919.808 1391.28 939.305 1395.95 958.767C1400.31 977.019 1409.59 987.563 1429.73 991.054C1445.92 993.854 1464.26 991.677 1478.03 982.308C1497.34 969.172 1513.33 949.606 1529.8 933.255C1549.94 913.24 1576.48 892.291 1592.37 868.37C1597.9 860.039 1596.9 851.5 1596.9 841.994V722.019C1596.9 721.988 1596.89 721.958 1596.87 721.936Z" fill="url(#paint0_linear_1173_5098)"/>
<defs>
<linearGradient id="paint0_linear_1173_5098" x1="324" y1="671.5" x2="1598" y2="671.5" gradientUnits="userSpaceOnUse">
<stop stop-color="#1B1918"/>
<stop offset="1" stop-color="#C3961E" stop-opacity="0.4"/>
</linearGradient>
</defs>
</svg>
