<svg width="773" height="367" viewBox="0 0 773 367" fill="none" xmlns="http://www.w3.org/2000/svg">
<path d="M357.47 366.346C357.483 366.334 357.5 366.326 357.518 366.326L749.621 366.326C755.809 366.326 764.265 367.842 770.294 366.326C771.09 366.127 772.164 366.326 773 366.326C772.522 366.326 763.211 355.576 764.265 356.673C757.043 349.114 749.661 341.655 742.279 334.256C734.877 326.857 727.476 319.457 719.915 312.218C718.124 310.503 712.613 303.462 710.285 303.462L347.453 303.462C344.361 303.462 343.838 299.037 346.845 298.317C405.959 284.176 465.073 270.016 524.188 255.876C532.803 253.821 541.418 251.747 550.034 249.693C554.312 248.676 559.067 248.077 562.629 245.325C573.711 236.729 573.015 215.229 566.747 204.121C563.803 198.915 559.007 194.588 554.948 190.359C542.533 177.416 529.858 164.711 517.044 152.166C510.419 145.684 502.559 134.496 492.372 133.459C478.345 132.023 463.442 133.459 449.355 133.459L344.357 133.459C340.985 133.459 340.406 128.632 343.682 127.834C403.89 113.155 464.118 98.4764 524.327 83.7975C536.564 80.8259 550.452 79.1707 562.191 74.5038C576.039 69.0192 576.974 48.2573 572.876 36.1113C568.458 23.0279 554.312 12.4376 545.159 3.16356C532.465 -9.70039 519.969 -23.3619 506.141 -35.0492C503.634 -37.1633 501.306 -38.9384 497.983 -39.5766C484.971 -42.0496 469.391 -39.6964 456.239 -39.6964L348.711 -39.6964C345.58 -39.6964 345.053 -44.1763 348.099 -44.902C407.153 -59.0224 466.208 -73.1628 525.282 -87.2832C533.579 -89.2577 541.876 -91.2521 550.193 -93.2465C554.67 -94.3235 559.525 -94.9217 563.106 -98.0729C573.851 -107.467 572.876 -129.205 565.653 -140.254C562.708 -144.782 558.47 -148.651 554.789 -152.5C542.413 -165.464 529.699 -178.128 516.885 -190.693C510.26 -197.195 502.4 -208.364 492.213 -209.401C478.186 -210.837 463.283 -209.401 449.196 -209.401L343.687 -209.401C340.388 -209.401 339.82 -214.122 343.025 -214.906C403.592 -229.664 464.158 -244.443 524.725 -259.221C536.962 -262.213 551.446 -263.649 563.086 -268.695C576.835 -274.638 577.153 -296.796 572.319 -308.643C571.184 -311.395 569.652 -313.809 567.822 -316.142C558.749 -327.65 547.248 -337.801 536.942 -348.132C526.933 -358.164 517.084 -368.815 506.24 -377.989C503.117 -380.641 500.57 -382.197 496.451 -382.635C483.04 -384.052 468.715 -382.635 455.225 -382.635L349.595 -382.636C346.041 -382.636 345.438 -387.722 348.894 -388.553C366.15 -392.702 383.404 -396.847 400.667 -400.984C439.645 -410.338 478.623 -419.712 517.582 -429.085C529.042 -431.838 540.523 -434.59 551.984 -437.342C561.932 -439.735 568.299 -443.724 570.826 -454.953C572.975 -464.446 572.06 -475.875 566.668 -484.151C560.241 -494.004 550.273 -502.181 542.115 -510.438C529.222 -523.501 516.229 -539.376 501.266 -550.226C496.332 -553.796 491.696 -553.317 486.045 -553.317L23.4189 -553.318C17.2111 -553.318 8.75476 -554.853 2.70612 -553.318C1.91022 -553.118 0.835754 -553.318 6.10053e-05 -553.318C0.4776 -553.318 9.78943 -542.567 8.73486 -543.664C15.9575 -536.106 23.3195 -528.646 30.7211 -521.247C38.1228 -513.848 45.5245 -506.449 53.0854 -499.209C54.8761 -497.494 60.3876 -490.454 62.7156 -490.454L426.577 -490.454C429.67 -490.454 430.197 -486.008 427.19 -485.288C367.399 -470.928 307.608 -456.549 247.818 -442.189C239.242 -440.115 230.647 -438.06 222.051 -435.986C217.773 -434.969 213.018 -434.371 209.476 -431.618C198.374 -423.003 199.11 -401.523 205.357 -390.414C208.282 -385.209 213.117 -380.88 217.156 -376.652C229.552 -363.689 242.247 -351.004 255.06 -338.459C261.746 -331.918 269.486 -320.789 279.733 -319.752C293.661 -318.336 308.504 -319.752 322.491 -319.752L429.273 -319.752C432.572 -319.752 433.14 -315.031 429.935 -314.247C369.369 -299.468 308.802 -284.71 248.236 -269.931C236.118 -266.979 222.33 -265.324 210.69 -260.717C196.841 -255.233 195.906 -234.451 200.005 -222.325C204.482 -209.082 218.35 -198.91 227.722 -189.397C240.416 -176.533 252.911 -162.851 266.74 -151.164C269.287 -149.01 271.555 -147.275 274.898 -146.637C287.851 -144.184 303.291 -146.517 316.383 -146.517L426.005 -146.517C428.993 -146.517 429.5 -142.224 426.593 -141.531C367.459 -127.391 308.325 -113.25 249.191 -99.09C240.774 -97.0756 232.358 -95.0612 223.941 -93.0469C219.663 -92.0297 214.848 -91.4315 211.287 -88.6593C200.184 -80.0633 200.881 -58.5633 207.148 -47.4544C209.556 -43.1864 213.257 -39.7362 216.559 -36.2261C229.612 -22.3051 243.202 -8.86294 256.851 4.47971C263.417 10.9017 271.416 22.1704 281.523 23.2075C295.65 24.6435 310.653 23.2075 324.819 23.2075L428.623 23.2075C431.999 23.2075 432.579 28.0312 429.299 28.8319C369.09 43.5108 308.862 58.1893 248.653 72.8681C236.317 75.8797 221.713 77.3358 209.974 82.4016C196.245 88.3449 195.906 110.543 200.761 122.35C201.895 125.102 203.427 127.515 205.238 129.849C214.311 141.356 225.811 151.508 236.118 161.839C246.106 171.851 255.995 182.541 266.819 191.695C269.943 194.348 272.51 195.904 276.609 196.343C289.582 197.719 303.45 196.343 316.462 196.343L422.211 196.343C425.766 196.343 426.366 201.427 422.908 202.254C405.664 206.379 388.417 210.5 371.179 214.631C332.38 223.925 293.581 233.199 254.782 242.493C243.58 245.186 232.358 247.858 221.156 250.551C210.65 253.064 204.581 258.409 202.572 270.016C200.96 279.35 202.214 289.92 207.606 297.858C215.167 308.987 226.428 318.201 235.84 327.694C247.36 339.302 259.418 354.599 273.186 363.753C277.982 366.945 282.896 366.366 288.368 366.366L357.422 366.366C357.44 366.366 357.458 366.359 357.47 366.346Z" fill="url(#paint0_linear_664_3011)" fill-opacity="0.5"/>
<defs>
<linearGradient id="paint0_linear_664_3011" x1="420.559" y1="-554" x2="280.765" y2="322.924" gradientUnits="userSpaceOnUse">
<stop stop-color="#1B1818"/>
<stop offset="1" stop-color="#E31E34"/>
</linearGradient>
</defs>
</svg>
