<svg width="1890" height="275" viewBox="0 0 1890 275" fill="none" xmlns="http://www.w3.org/2000/svg">
<g opacity="0.5">
<g opacity="0.5">
<mask id="path-1-outside-1_537_1141" maskUnits="userSpaceOnUse" x="6" y="37" width="1886" height="216" fill="black">
<rect fill="white" x="6" y="37" width="1886" height="216"/>
<path d="M9.28 247L41.76 42.55H135.14C157.953 42.55 174.677 47.3833 185.31 57.05C196.137 66.7167 200.197 80.3467 197.49 97.94C195.557 109.54 190.337 119.497 181.83 127.81C173.323 135.93 162.497 141.44 149.35 144.34L149.93 139.7C164.237 142.213 174.677 148.207 181.25 157.68C187.823 166.96 190.047 178.463 187.92 192.19C185.213 209.397 176.997 222.833 163.27 232.5C149.543 242.167 131.37 247 108.75 247H9.28ZM58 213.36H107.01C118.417 213.36 127.31 211.33 133.69 207.27C140.263 203.21 144.13 197.023 145.29 188.71C146.45 181.557 145.967 175.95 143.84 171.89C141.907 167.83 138.523 164.833 133.69 162.9C128.857 160.967 122.767 160 115.42 160H66.12L58 213.36ZM71.63 126.65H115.13C126.923 126.65 135.817 124.62 141.81 120.56C147.997 116.5 151.67 110.603 152.83 102.87C154.377 93.59 152.733 86.8233 147.9 82.57C143.26 78.1233 135.237 75.9 123.83 75.9H79.75L71.63 126.65ZM199.604 247L232.084 42.55H277.034L263.694 125.2H305.454C329.234 125.2 347.02 130.71 358.814 141.73C370.8 152.75 375.054 169.183 371.574 191.03C368.674 210.17 360.07 224.283 345.764 233.37C331.65 242.457 313.477 247 291.244 247H199.604ZM249.774 212.78H289.794C301.974 212.78 311.254 210.653 317.634 206.4C324.014 202.147 327.784 195.573 328.944 186.68C330.49 177.4 328.847 170.537 324.014 166.09C319.374 161.643 310.964 159.42 298.784 159.42H258.184L249.774 212.78ZM387.524 247L420.004 42.55H464.954L432.474 247H387.524ZM462.711 247L495.191 42.55H678.761L646.281 247H601.331L627.721 79.09H534.051L507.371 247H462.711ZM704.677 247L751.947 177.69V190.74L681.767 42.55H728.167L778.627 151.88H770.217L844.747 42.55H892.887L753.107 247H704.677ZM959.349 250.19C935.569 250.19 916.236 245.453 901.349 235.98C886.463 226.313 876.119 213.167 870.319 196.54C864.519 179.913 863.263 160.967 866.549 139.7C870.029 118.433 876.893 100.357 887.139 85.47C897.579 70.39 911.016 58.8867 927.449 50.96C944.076 43.0333 963.023 39.1667 984.289 39.36C997.629 39.5533 1009.62 41.4867 1020.25 45.16C1031.08 48.64 1040.07 53.4733 1047.22 59.66L1031.85 95.62C1023.92 89.6267 1016.19 85.3733 1008.65 82.86C1001.3 80.3467 992.506 79.09 982.259 79.09C963.893 79.09 948.716 84.5033 936.729 95.33C924.743 106.157 917.009 121.72 913.529 142.02C911.403 155.94 911.886 168.023 914.979 178.27C918.073 188.517 923.776 196.443 932.089 202.05C940.596 207.657 951.616 210.46 965.149 210.46C974.236 210.46 983.226 209.01 992.119 206.11C1001.21 203.21 1010.29 198.28 1019.38 191.32L1031.56 226.99C1021.89 234.337 1010.78 240.04 998.209 244.1C985.836 248.16 972.883 250.19 959.349 250.19ZM1042.74 247L1075.22 42.55H1119.88L1106.25 127.23H1136.99L1127.71 132.16L1199.34 42.55H1250.67L1168.89 140.86L1152.07 128.68C1165.41 131 1175.85 135.737 1183.39 142.89C1191.13 150.043 1197.22 160.193 1201.66 173.34L1226.6 247H1180.2L1161.93 189C1159.03 179.72 1154.59 173.243 1148.59 169.57C1142.79 165.703 1135.06 163.77 1125.39 163.77H1100.74L1087.4 247H1042.74ZM1237.03 247L1269.51 42.55H1314.75L1301.7 124.62H1395.37L1408.42 42.55H1453.95L1421.47 247H1375.94L1389.57 162.03H1295.61L1282.27 247H1237.03ZM1451.43 247L1483.91 42.55H1528.86L1515.52 125.2H1557.28C1581.06 125.2 1598.85 130.71 1610.64 141.73C1622.63 152.75 1626.88 169.183 1623.4 191.03C1620.5 210.17 1611.9 224.283 1597.59 233.37C1583.48 242.457 1565.3 247 1543.07 247H1451.43ZM1501.6 212.78H1541.62C1553.8 212.78 1563.08 210.653 1569.46 206.4C1575.84 202.147 1579.61 195.573 1580.77 186.68C1582.32 177.4 1580.67 170.537 1575.84 166.09C1571.2 161.643 1562.79 159.42 1550.61 159.42H1510.01L1501.6 212.78ZM1639.35 247L1671.83 42.55H1716.78L1684.3 247H1639.35ZM1714.54 247L1747.02 42.55H1889.12L1883.61 77.64H1784.72L1777.18 125.49H1869.11L1863.6 160.87H1771.67L1763.55 211.91H1862.15L1856.64 247H1714.54Z"/>
</mask>
<path d="M9.28 247L7.30477 246.686L6.93719 249H9.28V247ZM41.76 42.55V40.55H40.0527L39.7848 42.2362L41.76 42.55ZM185.31 57.05L183.965 58.5299L183.971 58.5359L183.978 58.5419L185.31 57.05ZM197.49 97.94L199.463 98.2688L199.465 98.2565L199.467 98.2441L197.49 97.94ZM181.83 127.81L183.211 129.257L183.219 129.249L183.228 129.24L181.83 127.81ZM149.35 144.34L147.365 144.092L147.014 146.903L149.781 146.293L149.35 144.34ZM149.93 139.7L150.276 137.73L148.206 137.367L147.945 139.452L149.93 139.7ZM181.25 157.68L179.607 158.82L179.612 158.828L179.618 158.836L181.25 157.68ZM187.92 192.19L189.896 192.501L189.896 192.496L187.92 192.19ZM163.27 232.5L164.422 234.135L163.27 232.5ZM58 213.36L56.0228 213.059L55.6726 215.36H58V213.36ZM133.69 207.27L132.639 205.568L132.628 205.575L132.616 205.583L133.69 207.27ZM145.29 188.71L143.316 188.39L143.312 188.412L143.309 188.434L145.29 188.71ZM143.84 171.89L142.034 172.75L142.051 172.784L142.068 172.818L143.84 171.89ZM133.69 162.9L134.433 161.043L133.69 162.9ZM66.12 160V158H64.4013L64.1428 159.699L66.12 160ZM71.63 126.65L69.6551 126.334L69.2846 128.65H71.63V126.65ZM141.81 120.56L140.713 118.888L140.7 118.896L140.688 118.904L141.81 120.56ZM152.83 102.87L150.857 102.541L150.855 102.557L150.852 102.573L152.83 102.87ZM147.9 82.57L146.516 84.014L146.547 84.0434L146.579 84.0714L147.9 82.57ZM79.75 75.9V73.9H78.0446L77.7751 75.584L79.75 75.9ZM11.2552 247.314L43.7352 42.8638L39.7848 42.2362L7.30477 246.686L11.2552 247.314ZM41.76 44.55H135.14V40.55H41.76V44.55ZM135.14 44.55C157.734 44.55 173.864 49.347 183.965 58.5299L186.655 55.5701C175.49 45.4196 158.173 40.55 135.14 40.55V44.55ZM183.978 58.5419C194.181 67.6519 198.144 80.5381 195.513 97.6359L199.467 98.2441C202.25 80.1553 198.092 65.7814 186.642 55.5581L183.978 58.5419ZM195.517 97.6112C193.655 108.787 188.639 118.359 180.432 126.38L183.228 129.24C192.035 120.634 197.459 110.293 199.463 98.2688L195.517 97.6112ZM180.449 126.363C172.243 134.196 161.762 139.554 148.919 142.387L149.781 146.293C163.232 143.326 174.403 137.664 183.211 129.257L180.449 126.363ZM151.335 144.588L151.915 139.948L147.945 139.452L147.365 144.092L151.335 144.588ZM149.584 141.67C163.509 144.116 173.412 149.893 179.607 158.82L182.893 156.54C175.941 146.521 164.964 140.311 150.276 137.73L149.584 141.67ZM179.618 158.836C185.827 167.602 188.009 178.55 185.944 191.884L189.896 192.496C192.084 178.376 189.82 166.318 182.882 156.524L179.618 158.836ZM185.944 191.879C183.318 208.574 175.384 221.523 162.118 230.865L164.422 234.135C178.609 224.144 187.108 210.22 189.896 192.501L185.944 191.879ZM162.118 230.865C148.828 240.224 131.098 245 108.75 245V249C131.642 249 150.259 244.109 164.422 234.135L162.118 230.865ZM108.75 245H9.28V249H108.75V245ZM58 215.36H107.01V211.36H58V215.36ZM107.01 215.36C118.617 215.36 127.939 213.3 134.764 208.957L132.616 205.583C126.681 209.36 118.217 211.36 107.01 211.36V215.36ZM134.741 208.972C141.869 204.569 146.037 197.832 147.271 188.986L143.309 188.434C142.223 196.215 138.658 201.851 132.639 205.568L134.741 208.972ZM147.264 189.03C148.456 181.681 148.026 175.571 145.612 170.962L142.068 172.818C143.908 176.329 144.444 181.433 143.316 188.39L147.264 189.03ZM145.646 171.03C143.462 166.445 139.654 163.132 134.433 161.043L132.947 164.757C137.392 166.535 140.351 169.215 142.034 172.75L145.646 171.03ZM134.433 161.043C129.287 158.985 122.924 158 115.42 158V162C122.609 162 128.426 162.948 132.947 164.757L134.433 161.043ZM115.42 158H66.12V162H115.42V158ZM64.1428 159.699L56.0228 213.059L59.9772 213.661L68.0972 160.301L64.1428 159.699ZM71.63 128.65H115.13V124.65H71.63V128.65ZM115.13 128.65C127.095 128.65 136.458 126.601 142.932 122.216L140.688 118.904C135.175 122.639 126.752 124.65 115.13 124.65V128.65ZM142.907 122.232C149.6 117.84 153.569 111.427 154.808 103.167L150.852 102.573C149.771 109.78 146.394 115.16 140.713 118.888L142.907 122.232ZM154.803 103.199C156.406 93.5779 154.788 85.9677 149.221 81.0686L146.579 84.0714C150.678 87.679 152.347 93.6021 150.857 102.541L154.803 103.199ZM149.284 81.126C144.072 76.1317 135.387 73.9 123.83 73.9V77.9C135.086 77.9 142.448 80.115 146.516 84.014L149.284 81.126ZM123.83 73.9H79.75V77.9H123.83V73.9ZM77.7751 75.584L69.6551 126.334L73.6049 126.966L81.7249 76.216L77.7751 75.584ZM199.604 247L197.629 246.686L197.261 249H199.604V247ZM232.084 42.55V40.55H230.376L230.109 42.2362L232.084 42.55ZM277.034 42.55L279.008 42.8687L279.383 40.55H277.034V42.55ZM263.694 125.2L261.719 124.881L261.345 127.2H263.694V125.2ZM358.814 141.73L357.448 143.191L357.454 143.197L357.46 143.202L358.814 141.73ZM371.574 191.03L369.599 190.715L369.598 190.723L369.596 190.73L371.574 191.03ZM345.764 233.37L344.692 231.682L344.681 231.688L345.764 233.37ZM249.774 212.78L247.798 212.469L247.434 214.78H249.774V212.78ZM317.634 206.4L316.524 204.736L317.634 206.4ZM328.944 186.68L326.971 186.351L326.965 186.386L326.961 186.421L328.944 186.68ZM324.014 166.09L322.63 167.534L322.645 167.548L322.66 167.562L324.014 166.09ZM258.184 159.42V157.42H256.474L256.208 159.109L258.184 159.42ZM387.524 247L385.549 246.686L385.181 249H387.524V247ZM420.004 42.55V40.55H418.296L418.029 42.2362L420.004 42.55ZM464.954 42.55L466.929 42.8638L467.297 40.55H464.954V42.55ZM432.474 247V249H434.181L434.449 247.314L432.474 247ZM201.579 247.314L234.059 42.8638L230.109 42.2362L197.629 246.686L201.579 247.314ZM232.084 44.55H277.034V40.55H232.084V44.55ZM275.059 42.2313L261.719 124.881L265.668 125.519L279.008 42.8687L275.059 42.2313ZM263.694 127.2H305.454V123.2H263.694V127.2ZM305.454 127.2C328.963 127.2 346.168 132.651 357.448 143.191L360.179 140.269C347.873 128.769 329.504 123.2 305.454 123.2V127.2ZM357.46 143.202C368.786 153.615 373.015 169.269 369.599 190.715L373.549 191.345C377.093 169.097 372.815 151.885 360.167 140.258L357.46 143.202ZM369.596 190.73C366.769 209.389 358.438 222.951 344.692 231.682L346.836 235.058C361.703 225.616 370.578 210.951 373.551 191.33L369.596 190.73ZM344.681 231.688C330.98 240.51 313.215 245 291.244 245V249C313.739 249 332.321 244.404 346.846 235.052L344.681 231.688ZM291.244 245H199.604V249H291.244V245ZM249.774 214.78H289.794V210.78H249.774V214.78ZM289.794 214.78C302.156 214.78 311.894 212.631 318.743 208.064L316.524 204.736C310.614 208.676 301.792 210.78 289.794 210.78V214.78ZM318.743 208.064C325.687 203.435 329.706 196.298 330.927 186.939L326.961 186.421C325.861 194.849 322.341 200.858 316.524 204.736L318.743 208.064ZM330.917 187.009C332.522 177.375 330.893 169.701 325.368 164.618L322.66 167.562C326.801 171.372 328.459 177.425 326.971 186.351L330.917 187.009ZM325.398 164.646C320.169 159.635 311.071 157.42 298.784 157.42V161.42C310.857 161.42 318.579 163.652 322.63 167.534L325.398 164.646ZM298.784 157.42H258.184V161.42H298.784V157.42ZM256.208 159.109L247.798 212.469L251.749 213.091L260.159 159.731L256.208 159.109ZM389.499 247.314L421.979 42.8638L418.029 42.2362L385.549 246.686L389.499 247.314ZM420.004 44.55H464.954V40.55H420.004V44.55ZM462.979 42.2362L430.499 246.686L434.449 247.314L466.929 42.8638L462.979 42.2362ZM432.474 245H387.524V249H432.474V245ZM462.711 247L460.736 246.686L460.368 249H462.711V247ZM495.191 42.55V40.55H493.483L493.216 42.2362L495.191 42.55ZM678.761 42.55L680.736 42.8638L681.104 40.55H678.761V42.55ZM646.281 247V249H647.988L648.256 247.314L646.281 247ZM601.331 247L599.355 246.689L598.992 249H601.331V247ZM627.721 79.09L629.697 79.4005L630.06 77.09H627.721V79.09ZM534.051 79.09V77.09H532.344L532.076 78.7761L534.051 79.09ZM507.371 247V249H509.078L509.346 247.314L507.371 247ZM464.686 247.314L497.166 42.8638L493.216 42.2362L460.736 246.686L464.686 247.314ZM495.191 44.55H678.761V40.55H495.191V44.55ZM676.786 42.2362L644.306 246.686L648.256 247.314L680.736 42.8638L676.786 42.2362ZM646.281 245H601.331V249H646.281V245ZM603.307 247.311L629.697 79.4005L625.745 78.7795L599.355 246.689L603.307 247.311ZM627.721 77.09H534.051V81.09H627.721V77.09ZM532.076 78.7761L505.396 246.686L509.346 247.314L536.026 79.4038L532.076 78.7761ZM507.371 245H462.711V249H507.371V245ZM704.677 247L703.025 245.873L700.893 249H704.677V247ZM751.947 177.69H753.947V171.208L750.295 176.563L751.947 177.69ZM751.947 190.74L750.14 191.596L753.947 190.74H751.947ZM681.767 42.55V40.55H678.607L679.96 43.406L681.767 42.55ZM728.167 42.55L729.983 41.7119L729.447 40.55H728.167V42.55ZM778.627 151.88V153.88H781.753L780.443 151.042L778.627 151.88ZM770.217 151.88L768.565 150.753L766.433 153.88H770.217V151.88ZM844.747 42.55V40.55H843.69L843.095 41.4235L844.747 42.55ZM892.887 42.55L894.538 43.6788L896.677 40.55H892.887V42.55ZM753.107 247V249H754.163L754.758 248.129L753.107 247ZM706.33 248.127L753.6 178.817L750.295 176.563L703.025 245.873L706.33 248.127ZM749.947 177.69V190.74H753.947V177.69H749.947ZM753.755 189.884L683.575 41.694L679.96 43.406L750.14 191.596L753.755 189.884ZM681.767 44.55H728.167V40.55H681.767V44.55ZM726.351 43.3881L776.811 152.718L780.443 151.042L729.983 41.7119L726.351 43.3881ZM778.627 149.88H770.217V153.88H778.627V149.88ZM771.87 153.007L846.4 43.6765L843.095 41.4235L768.565 150.753L771.87 153.007ZM844.747 44.55H892.887V40.55H844.747V44.55ZM891.236 41.4212L751.456 245.871L754.758 248.129L894.538 43.6788L891.236 41.4212ZM753.107 245H704.677V249H753.107V245ZM901.349 235.98L900.26 237.657L900.268 237.662L900.276 237.667L901.349 235.98ZM870.319 196.54L868.431 197.199L870.319 196.54ZM866.549 139.7L864.576 139.377L864.574 139.386L864.573 139.395L866.549 139.7ZM887.139 85.47L885.495 84.3316L885.492 84.336L887.139 85.47ZM927.449 50.96L926.589 49.1546L926.581 49.1586L927.449 50.96ZM984.289 39.36L984.318 37.3602L984.308 37.3601L984.289 39.36ZM1020.25 45.16L1019.6 47.0504L1019.62 47.0574L1019.64 47.064L1020.25 45.16ZM1047.22 59.66L1049.06 60.446L1049.63 59.1028L1048.53 58.1473L1047.22 59.66ZM1031.85 95.62L1030.64 97.2153L1032.68 98.7578L1033.69 96.406L1031.85 95.62ZM1008.65 82.86L1008 84.7523L1008.01 84.7549L1008.02 84.7574L1008.65 82.86ZM936.729 95.33L938.07 96.8142L936.729 95.33ZM913.529 142.02L911.558 141.682L911.555 141.7L911.552 141.718L913.529 142.02ZM914.979 178.27L916.894 177.692L914.979 178.27ZM932.089 202.05L930.971 203.708L930.98 203.714L930.989 203.72L932.089 202.05ZM992.119 206.11L991.511 204.205L991.499 204.209L992.119 206.11ZM1019.38 191.32L1021.27 190.674L1020.37 188.04L1018.16 189.732L1019.38 191.32ZM1031.56 226.99L1032.77 228.582L1033.92 227.709L1033.45 226.344L1031.56 226.99ZM998.209 244.1L997.595 242.197L997.586 242.2L998.209 244.1ZM959.349 248.19C935.821 248.19 916.895 243.502 902.423 234.293L900.276 237.667C915.577 247.404 935.318 252.19 959.349 252.19V248.19ZM902.439 234.303C887.921 224.875 877.86 212.086 872.208 195.881L868.431 197.199C874.378 214.248 885.005 227.751 900.26 237.657L902.439 234.303ZM872.208 195.881C866.537 179.625 865.278 161.019 868.526 140.005L864.573 139.395C861.247 160.914 862.502 180.201 868.431 197.199L872.208 195.881ZM868.523 140.023C871.965 118.992 878.737 101.205 888.787 86.604L885.492 84.336C875.049 99.5079 868.094 117.875 864.576 139.377L868.523 140.023ZM888.784 86.6084C899.028 71.8111 912.198 60.537 928.318 52.7614L926.581 49.1586C909.834 57.2363 896.131 68.9688 885.495 84.3316L888.784 86.6084ZM928.31 52.7653C944.623 44.9883 963.262 41.1689 984.271 41.3599L984.308 37.3601C962.784 37.1644 943.529 41.0784 926.589 49.1547L928.31 52.7653ZM984.26 41.3598C997.426 41.5506 1009.2 43.458 1019.6 47.0504L1020.9 43.2696C1010.03 39.5154 997.833 37.5561 984.318 37.3602L984.26 41.3598ZM1019.64 47.064C1030.26 50.4781 1039 55.1938 1045.91 61.1727L1048.53 58.1473C1041.13 51.7529 1031.89 46.8019 1020.86 43.2559L1019.64 47.064ZM1045.38 58.8739L1030.01 94.8339L1033.69 96.406L1049.06 60.446L1045.38 58.8739ZM1033.06 94.0247C1025 87.9316 1017.07 83.5595 1009.28 80.9626L1008.02 84.7574C1015.31 87.1871 1022.85 91.3218 1030.64 97.2153L1033.06 94.0247ZM1009.3 80.9677C1001.69 78.3644 992.66 77.09 982.259 77.09V81.09C992.352 81.09 1000.92 82.3289 1008 84.7523L1009.3 80.9677ZM982.259 77.09C963.47 77.09 947.794 82.6414 935.389 93.8458L938.07 96.8142C949.638 86.3653 964.315 81.09 982.259 81.09V77.09ZM935.389 93.8458C922.987 105.047 915.093 121.063 911.558 141.682L915.501 142.358C918.926 122.377 926.498 107.266 938.07 96.8142L935.389 93.8458ZM911.552 141.718C909.394 155.843 909.863 168.241 913.065 178.848L916.894 177.692C913.909 167.806 913.411 156.037 915.506 142.322L911.552 141.718ZM913.065 178.848C916.282 189.504 922.249 197.826 930.971 203.708L933.208 200.392C925.303 195.061 919.864 187.53 916.894 177.692L913.065 178.848ZM930.989 203.72C939.913 209.602 951.351 212.46 965.149 212.46V208.46C951.881 208.46 941.279 205.711 933.19 200.38L930.989 203.72ZM965.149 212.46C974.453 212.46 983.652 210.975 992.74 208.011L991.499 204.209C982.8 207.045 974.019 208.46 965.149 208.46V212.46ZM992.728 208.015C1002.07 205.033 1011.36 199.981 1020.6 192.908L1018.16 189.732C1009.22 196.579 1000.34 201.387 991.511 204.205L992.728 208.015ZM1017.49 191.966L1029.67 227.636L1033.45 226.344L1021.27 190.674L1017.49 191.966ZM1030.35 225.398C1020.88 232.596 1009.97 238.2 997.595 242.197L998.824 246.003C1011.59 241.88 1022.91 236.077 1032.77 228.582L1030.35 225.398ZM997.586 242.2C985.422 246.191 972.679 248.19 959.349 248.19V252.19C973.086 252.19 986.251 250.129 998.833 246L997.586 242.2ZM1042.74 247L1040.77 246.686L1040.4 249H1042.74V247ZM1075.22 42.55V40.55H1073.52L1073.25 42.2362L1075.22 42.55ZM1119.88 42.55L1121.86 42.8678L1122.23 40.55H1119.88V42.55ZM1106.25 127.23L1104.28 126.912L1103.91 129.23H1106.25V127.23ZM1136.99 127.23L1137.93 128.996L1136.99 125.23V127.23ZM1127.71 132.16L1126.15 130.911L1128.65 133.926L1127.71 132.16ZM1199.34 42.55V40.55H1198.38L1197.78 41.3012L1199.34 42.55ZM1250.67 42.55L1252.21 43.829L1254.94 40.55H1250.67V42.55ZM1168.89 140.86L1167.72 142.48L1169.24 143.577L1170.43 142.139L1168.89 140.86ZM1152.07 128.68L1152.42 126.71L1150.9 130.3L1152.07 128.68ZM1183.39 142.89L1182.02 144.341L1182.03 144.35L1182.04 144.358L1183.39 142.89ZM1201.66 173.34L1199.77 173.981L1199.77 173.981L1201.66 173.34ZM1226.6 247V249H1229.39L1228.5 246.359L1226.6 247ZM1180.2 247L1178.3 247.601L1178.74 249H1180.2V247ZM1161.93 189L1160.03 189.597L1160.03 189.601L1161.93 189ZM1148.59 169.57L1147.49 171.234L1147.52 171.255L1147.55 171.275L1148.59 169.57ZM1100.74 163.77V161.77H1099.04L1098.77 163.453L1100.74 163.77ZM1087.4 247V249H1089.11L1089.38 247.317L1087.4 247ZM1044.72 247.314L1077.2 42.8638L1073.25 42.2362L1040.77 246.686L1044.72 247.314ZM1075.22 44.55H1119.88V40.55H1075.22V44.55ZM1117.91 42.2322L1104.28 126.912L1108.23 127.548L1121.86 42.8678L1117.91 42.2322ZM1106.25 129.23H1136.99V125.23H1106.25V129.23ZM1136.06 125.464L1126.78 130.394L1128.65 133.926L1137.93 128.996L1136.06 125.464ZM1129.28 133.409L1200.91 43.7988L1197.78 41.3012L1126.15 130.911L1129.28 133.409ZM1199.34 44.55H1250.67V40.55H1199.34V44.55ZM1249.14 41.271L1167.36 139.581L1170.43 142.139L1252.21 43.829L1249.14 41.271ZM1170.07 139.24L1153.25 127.06L1150.9 130.3L1167.72 142.48L1170.07 139.24ZM1151.73 130.65C1164.8 132.923 1174.84 137.53 1182.02 144.341L1184.77 141.439C1176.87 133.943 1166.03 129.077 1152.42 126.71L1151.73 130.65ZM1182.04 144.358C1189.46 151.224 1195.4 161.053 1199.77 173.981L1203.56 172.699C1199.04 159.333 1192.8 148.862 1184.75 141.422L1182.04 144.358ZM1199.77 173.981L1224.71 247.641L1228.5 246.359L1203.56 172.699L1199.77 173.981ZM1226.6 245H1180.2V249H1226.6V245ZM1182.11 246.399L1163.84 188.399L1160.03 189.601L1178.3 247.601L1182.11 246.399ZM1163.84 188.403C1160.85 178.838 1156.18 171.873 1149.64 167.865L1147.55 171.275C1153 174.613 1157.21 180.602 1160.03 189.597L1163.84 188.403ZM1149.7 167.906C1143.47 163.751 1135.31 161.77 1125.39 161.77V165.77C1134.81 165.77 1142.12 167.656 1147.49 171.234L1149.7 167.906ZM1125.39 161.77H1100.74V165.77H1125.39V161.77ZM1098.77 163.453L1085.43 246.683L1089.38 247.317L1102.72 164.087L1098.77 163.453ZM1087.4 245H1042.74V249H1087.4V245ZM1237.03 247L1235.06 246.686L1234.69 249H1237.03V247ZM1269.51 42.55V40.55H1267.81L1267.54 42.2362L1269.51 42.55ZM1314.75 42.55L1316.73 42.8641L1317.1 40.55H1314.75V42.55ZM1301.7 124.62L1299.73 124.306L1299.36 126.62H1301.7V124.62ZM1395.37 124.62V126.62H1397.08L1397.35 124.934L1395.37 124.62ZM1408.42 42.55V40.55H1406.72L1406.45 42.2359L1408.42 42.55ZM1453.95 42.55L1455.93 42.8638L1456.3 40.55H1453.95V42.55ZM1421.47 247V249H1423.18L1423.45 247.314L1421.47 247ZM1375.94 247L1373.97 246.683L1373.6 249H1375.94V247ZM1389.57 162.03L1391.55 162.347L1391.92 160.03H1389.57V162.03ZM1295.61 162.03V160.03H1293.9L1293.64 161.72L1295.61 162.03ZM1282.27 247V249H1283.98L1284.25 247.31L1282.27 247ZM1239.01 247.314L1271.49 42.8638L1267.54 42.2362L1235.06 246.686L1239.01 247.314ZM1269.51 44.55H1314.75V40.55H1269.51V44.55ZM1312.78 42.2359L1299.73 124.306L1303.68 124.934L1316.73 42.8641L1312.78 42.2359ZM1301.7 126.62H1395.37V122.62H1301.7V126.62ZM1397.35 124.934L1410.4 42.8641L1406.45 42.2359L1393.4 124.306L1397.35 124.934ZM1408.42 44.55H1453.95V40.55H1408.42V44.55ZM1451.98 42.2362L1419.5 246.686L1423.45 247.314L1455.93 42.8638L1451.98 42.2362ZM1421.47 245H1375.94V249H1421.47V245ZM1377.92 247.317L1391.55 162.347L1387.6 161.713L1373.97 246.683L1377.92 247.317ZM1389.57 160.03H1295.61V164.03H1389.57V160.03ZM1293.64 161.72L1280.3 246.69L1284.25 247.31L1297.59 162.34L1293.64 161.72ZM1282.27 245H1237.03V249H1282.27V245ZM1451.43 247L1449.45 246.686L1449.09 249H1451.43V247ZM1483.91 42.55V40.55H1482.2L1481.93 42.2362L1483.91 42.55ZM1528.86 42.55L1530.83 42.8687L1531.21 40.55H1528.86V42.55ZM1515.52 125.2L1513.55 124.881L1513.17 127.2H1515.52V125.2ZM1610.64 141.73L1609.27 143.191L1609.28 143.197L1609.29 143.202L1610.64 141.73ZM1623.4 191.03L1621.42 190.715L1621.42 190.723L1621.42 190.73L1623.4 191.03ZM1597.59 233.37L1596.52 231.682L1596.51 231.688L1597.59 233.37ZM1501.6 212.78L1499.62 212.469L1499.26 214.78H1501.6V212.78ZM1569.46 206.4L1568.35 204.736L1569.46 206.4ZM1580.77 186.68L1578.8 186.351L1578.79 186.386L1578.79 186.421L1580.77 186.68ZM1575.84 166.09L1574.46 167.534L1574.47 167.548L1574.49 167.562L1575.84 166.09ZM1510.01 159.42V157.42H1508.3L1508.03 159.109L1510.01 159.42ZM1639.35 247L1637.37 246.686L1637.01 249H1639.35V247ZM1671.83 42.55V40.55H1670.12L1669.85 42.2362L1671.83 42.55ZM1716.78 42.55L1718.75 42.8638L1719.12 40.55H1716.78V42.55ZM1684.3 247V249H1686.01L1686.27 247.314L1684.3 247ZM1453.4 247.314L1485.88 42.8638L1481.93 42.2362L1449.45 246.686L1453.4 247.314ZM1483.91 44.55H1528.86V40.55H1483.91V44.55ZM1526.89 42.2313L1513.55 124.881L1517.49 125.519L1530.83 42.8687L1526.89 42.2313ZM1515.52 127.2H1557.28V123.2H1515.52V127.2ZM1557.28 127.2C1580.79 127.2 1597.99 132.651 1609.27 143.191L1612.01 140.269C1599.7 128.769 1581.33 123.2 1557.28 123.2V127.2ZM1609.29 143.202C1620.61 153.615 1624.84 169.269 1621.42 190.715L1625.37 191.345C1628.92 169.097 1624.64 151.885 1611.99 140.258L1609.29 143.202ZM1621.42 190.73C1618.6 209.389 1610.26 222.951 1596.52 231.682L1598.66 235.058C1613.53 225.616 1622.4 210.951 1625.38 191.33L1621.42 190.73ZM1596.51 231.688C1582.81 240.51 1565.04 245 1543.07 245V249C1565.56 249 1584.15 244.404 1598.67 235.052L1596.51 231.688ZM1543.07 245H1451.43V249H1543.07V245ZM1501.6 214.78H1541.62V210.78H1501.6V214.78ZM1541.62 214.78C1553.98 214.78 1563.72 212.631 1570.57 208.064L1568.35 204.736C1562.44 208.676 1553.62 210.78 1541.62 210.78V214.78ZM1570.57 208.064C1577.51 203.435 1581.53 196.298 1582.75 186.939L1578.79 186.421C1577.69 194.849 1574.17 200.858 1568.35 204.736L1570.57 208.064ZM1582.74 187.009C1584.35 177.375 1582.72 169.701 1577.19 164.618L1574.49 167.562C1578.63 171.372 1580.28 177.425 1578.8 186.351L1582.74 187.009ZM1577.22 164.646C1571.99 159.635 1562.9 157.42 1550.61 157.42V161.42C1562.68 161.42 1570.4 163.652 1574.46 167.534L1577.22 164.646ZM1550.61 157.42H1510.01V161.42H1550.61V157.42ZM1508.03 159.109L1499.62 212.469L1503.58 213.091L1511.99 159.731L1508.03 159.109ZM1641.32 247.314L1673.8 42.8638L1669.85 42.2362L1637.37 246.686L1641.32 247.314ZM1671.83 44.55H1716.78V40.55H1671.83V44.55ZM1714.8 42.2362L1682.32 246.686L1686.27 247.314L1718.75 42.8638L1714.8 42.2362ZM1684.3 245H1639.35V249H1684.3V245ZM1714.54 247L1712.56 246.686L1712.19 249H1714.54V247ZM1747.02 42.55V40.55H1745.31L1745.04 42.2362L1747.02 42.55ZM1889.12 42.55L1891.09 42.8602L1891.46 40.55H1889.12V42.55ZM1883.61 77.64V79.64H1885.32L1885.58 77.9502L1883.61 77.64ZM1784.72 77.64V75.64H1783.01L1782.74 77.3287L1784.72 77.64ZM1777.18 125.49L1775.2 125.179L1774.84 127.49H1777.18V125.49ZM1869.11 125.49L1871.08 125.798L1871.44 123.49H1869.11V125.49ZM1863.6 160.87V162.87H1865.31L1865.57 161.178L1863.6 160.87ZM1771.67 160.87V158.87H1769.96L1769.69 160.556L1771.67 160.87ZM1763.55 211.91L1761.57 211.596L1761.2 213.91H1763.55V211.91ZM1862.15 211.91L1864.12 212.22L1864.49 209.91H1862.15V211.91ZM1856.64 247V249H1858.35L1858.61 247.31L1856.64 247ZM1716.51 247.314L1748.99 42.8638L1745.04 42.2362L1712.56 246.686L1716.51 247.314ZM1747.02 44.55H1889.12V40.55H1747.02V44.55ZM1887.14 42.2397L1881.63 77.3297L1885.58 77.9502L1891.09 42.8602L1887.14 42.2397ZM1883.61 75.64H1784.72V79.64H1883.61V75.64ZM1782.74 77.3287L1775.2 125.179L1779.15 125.801L1786.69 77.9513L1782.74 77.3287ZM1777.18 127.49H1869.11V123.49H1777.18V127.49ZM1867.13 125.182L1861.62 160.562L1865.57 161.178L1871.08 125.798L1867.13 125.182ZM1863.6 158.87H1771.67V162.87H1863.6V158.87ZM1769.69 160.556L1761.57 211.596L1765.52 212.224L1773.64 161.184L1769.69 160.556ZM1763.55 213.91H1862.15V209.91H1763.55V213.91ZM1860.17 211.6L1854.66 246.69L1858.61 247.31L1864.12 212.22L1860.17 211.6ZM1856.64 245H1714.54V249H1856.64V245Z" fill="white" mask="url(#path-1-outside-1_537_1141)"/>
</g>
</g>
</svg>
