<svg width="1995" height="297" viewBox="0 0 1995 297" fill="none" xmlns="http://www.w3.org/2000/svg">
<g opacity="0.5">
<g opacity="0.5">
<mask id="path-1-outside-1_537_1119" maskUnits="userSpaceOnUse" x="-3" y="37" width="2000" height="262" fill="black">
<rect fill="white" x="-3" y="37" width="2000" height="262"/>
<path d="M0.34 296.3L13.68 212.2H34.85C45.4833 201.18 54.57 186.1 62.11 166.96C69.65 147.82 75.6433 124.33 80.09 96.49L88.79 42.55H242.2L215.23 212.2H245.1L231.76 296.3H192.61L200.44 247H47.32L39.49 296.3H0.34ZM80.96 212.2H170.28L191.45 77.06H124.17L120.69 100.84C116.63 126.94 111.217 149.077 104.45 167.25C97.8767 185.423 90.0467 200.407 80.96 212.2ZM255.252 247L287.732 42.55H429.832L424.322 77.64H325.432L317.892 125.49H409.822L404.312 160.87H312.382L304.262 211.91H402.862L397.352 247H255.252ZM417.256 247L449.736 42.55H494.976L481.926 124.62H575.596L588.646 42.55H634.176L601.696 247H556.166L569.796 162.03H475.836L462.496 247H417.256ZM631.652 247L664.132 42.55H709.082L695.742 125.2H746.202C769.982 125.2 787.769 130.71 799.562 141.73C811.549 152.75 815.802 169.183 812.322 191.03C809.422 210.17 800.819 224.283 786.512 233.37C772.399 242.457 754.225 247 731.992 247H631.652ZM681.822 212.78H730.542C742.722 212.78 752.002 210.653 758.382 206.4C764.762 202.147 768.532 195.573 769.692 186.68C771.239 177.4 769.595 170.537 764.762 166.09C760.122 161.643 751.712 159.42 739.532 159.42H690.232L681.822 212.78ZM892.221 247L924.701 42.55H1015.76C1039.93 42.55 1057.42 48.64 1068.25 60.82C1079.08 72.8067 1082.85 89.0467 1079.56 109.54C1077.82 120.947 1073.66 131.097 1067.09 139.99C1060.71 148.69 1052.01 155.457 1040.99 160.29C1029.97 165.123 1016.73 167.54 1001.26 167.54H949.931L937.461 247H892.221ZM955.731 132.45H1000.1C1011.12 132.45 1019.53 130.227 1025.33 125.78C1031.32 121.333 1035 114.857 1036.35 106.35C1037.9 97.07 1036.25 90.0133 1031.42 85.18C1026.78 80.1533 1018.95 77.64 1007.93 77.64H964.141L955.731 132.45ZM1084.21 139.7C1087.69 118.433 1094.36 100.357 1104.22 85.47C1114.28 70.39 1127.13 58.9833 1142.79 51.25C1158.45 43.3233 1176.24 39.36 1196.15 39.36C1218.39 39.36 1236.56 44.1933 1250.67 53.86C1264.98 63.3333 1274.94 76.3833 1280.54 93.01C1286.34 109.443 1287.5 128.293 1284.02 149.56C1280.74 170.827 1273.97 189 1263.72 204.08C1253.67 218.967 1240.81 230.373 1225.15 238.3C1209.69 246.227 1192 250.19 1172.08 250.19C1149.85 250.19 1131.58 245.453 1117.27 235.98C1103.16 226.313 1093.3 213.167 1087.69 196.54C1082.09 179.913 1080.93 160.967 1084.21 139.7ZM1131.19 142.6C1128.87 157.293 1129.07 169.763 1131.77 180.01C1134.48 190.257 1139.51 198.183 1146.85 203.79C1154.39 209.203 1163.96 211.91 1175.56 211.91C1192.77 211.91 1206.5 206.013 1216.74 194.22C1227.18 182.427 1233.95 166.573 1237.04 146.66C1239.36 131.967 1239.07 119.497 1236.17 109.25C1233.47 99.0033 1228.34 91.1733 1220.8 85.76C1213.46 80.3467 1203.89 77.64 1192.09 77.64C1174.89 77.64 1161.26 83.44 1151.2 95.04C1141.15 106.64 1134.48 122.493 1131.19 142.6ZM1270.66 247L1319.09 173.34C1327.6 160.193 1337.07 150.043 1347.51 142.89C1357.95 135.737 1370.23 131 1384.34 128.68L1365.78 140.86L1315.61 42.55H1362.88L1406.09 132.16L1400.29 127.23H1423.49L1437.12 42.55H1480.33L1466.7 127.23H1489.9L1480.62 132.16L1552.25 42.55H1603.29L1521.8 140.86L1505.27 128.68C1518.03 131 1528.28 135.737 1536.01 142.89C1543.74 150.043 1549.93 160.193 1554.57 173.34L1579.51 247H1533.11L1514.55 189C1511.65 179.913 1507.3 173.437 1501.5 169.57C1495.7 165.703 1487.97 163.77 1478.3 163.77H1460.9L1447.85 247H1404.64L1417.69 163.77H1400.29C1390.82 163.77 1382.79 165.703 1376.22 169.57C1369.84 173.437 1363.75 179.913 1357.95 189L1320.83 247H1270.66ZM1565.13 296.3L1578.47 212.2H1599.64C1610.27 201.18 1619.36 186.1 1626.9 166.96C1634.44 147.82 1640.43 124.33 1644.88 96.49L1653.58 42.55H1806.99L1780.02 212.2H1809.89L1796.55 296.3H1757.4L1765.23 247H1612.11L1604.28 296.3H1565.13ZM1645.75 212.2H1735.07L1756.24 77.06H1688.96L1685.48 100.84C1681.42 126.94 1676 149.077 1669.24 167.25C1662.66 185.423 1654.83 200.407 1645.75 212.2ZM1820.04 247L1852.52 42.55H1994.62L1989.11 77.64H1890.22L1882.68 125.49H1974.61L1969.1 160.87H1877.17L1869.05 211.91H1967.65L1962.14 247H1820.04Z"/>
</mask>
<path d="M0.339999 296.3L-1.63531 295.987L-2.00225 298.3H0.339999V296.3ZM13.68 212.2V210.2H11.9722L11.7047 211.887L13.68 212.2ZM34.85 212.2V214.2H35.6994L36.2892 213.589L34.85 212.2ZM62.11 166.96L60.2492 166.227L62.11 166.96ZM80.09 96.49L78.1155 96.1715L78.115 96.1745L80.09 96.49ZM88.79 42.55V40.55H87.0867L86.8155 42.2315L88.79 42.55ZM242.2 42.55L244.175 42.864L244.543 40.55H242.2V42.55ZM215.23 212.2L213.255 211.886L212.887 214.2H215.23V212.2ZM245.1 212.2L247.075 212.513L247.442 210.2H245.1V212.2ZM231.76 296.3V298.3H233.468L233.735 296.613L231.76 296.3ZM192.61 296.3L190.635 295.986L190.267 298.3H192.61V296.3ZM200.44 247L202.415 247.314L202.783 245H200.44V247ZM47.32 247V245H45.6126L45.3448 246.686L47.32 247ZM39.49 296.3V298.3H41.1974L41.4652 296.614L39.49 296.3ZM80.96 212.2L79.3757 210.979L76.8942 214.2H80.96V212.2ZM170.28 212.2V214.2H171.991L172.256 212.51L170.28 212.2ZM191.45 77.06L193.426 77.3695L193.788 75.06H191.45V77.06ZM124.17 77.06V75.06H122.441L122.191 76.7704L124.17 77.06ZM120.69 100.84L122.666 101.147L122.668 101.139L122.669 101.13L120.69 100.84ZM104.45 167.25L102.576 166.552L102.572 166.561L102.569 166.57L104.45 167.25ZM2.3153 296.613L15.6553 212.513L11.7047 211.887L-1.63531 295.987L2.3153 296.613ZM13.68 214.2H34.85V210.2H13.68V214.2ZM36.2892 213.589C47.1557 202.327 56.3658 186.998 63.9708 167.693L60.2492 166.227C52.7742 185.202 43.811 200.033 33.4108 210.811L36.2892 213.589ZM63.9708 167.693C71.5793 148.379 77.6032 124.74 82.065 96.8054L78.115 96.1745C73.6834 123.92 67.7207 147.261 60.2492 166.227L63.9708 167.693ZM82.0645 96.8084L90.7645 42.8685L86.8155 42.2315L78.1155 96.1715L82.0645 96.8084ZM88.79 44.55H242.2V40.55H88.79V44.55ZM240.225 42.236L213.255 211.886L217.205 212.514L244.175 42.864L240.225 42.236ZM215.23 214.2H245.1V210.2H215.23V214.2ZM243.125 211.887L229.785 295.987L233.735 296.613L247.075 212.513L243.125 211.887ZM231.76 294.3H192.61V298.3H231.76V294.3ZM194.585 296.614L202.415 247.314L198.465 246.686L190.635 295.986L194.585 296.614ZM200.44 245H47.32V249H200.44V245ZM45.3448 246.686L37.5148 295.986L41.4652 296.614L49.2952 247.314L45.3448 246.686ZM39.49 294.3H0.339999V298.3H39.49V294.3ZM80.96 214.2H170.28V210.2H80.96V214.2ZM172.256 212.51L193.426 77.3695L189.474 76.7505L168.304 211.89L172.256 212.51ZM191.45 75.06H124.17V79.06H191.45V75.06ZM122.191 76.7704L118.711 100.55L122.669 101.13L126.149 77.3496L122.191 76.7704ZM118.714 100.533C114.668 126.544 109.282 148.541 102.576 166.552L106.324 167.948C113.151 149.612 118.592 127.336 122.666 101.147L118.714 100.533ZM102.569 166.57C96.0465 184.603 88.3051 199.39 79.3757 210.979L82.5443 213.421C91.7883 201.423 99.7069 186.243 106.331 167.93L102.569 166.57ZM255.252 247L253.277 246.686L252.909 249H255.252V247ZM287.732 42.55V40.55H286.025L285.757 42.2362L287.732 42.55ZM429.832 42.55L431.808 42.8602L432.171 40.55H429.832V42.55ZM424.322 77.64V79.64H426.033L426.298 77.9502L424.322 77.64ZM325.432 77.64V75.64H323.723L323.457 77.3287L325.432 77.64ZM317.892 125.49L315.917 125.179L315.552 127.49H317.892V125.49ZM409.822 125.49L411.798 125.798L412.158 123.49H409.822V125.49ZM404.312 160.87V162.87H406.025L406.288 161.178L404.312 160.87ZM312.382 160.87V158.87H310.675L310.407 160.556L312.382 160.87ZM304.262 211.91L302.287 211.596L301.919 213.91H304.262V211.91ZM402.862 211.91L404.838 212.22L405.201 209.91H402.862V211.91ZM397.352 247V249H399.063L399.328 247.31L397.352 247ZM257.227 247.314L289.707 42.8638L285.757 42.2362L253.277 246.686L257.227 247.314ZM287.732 44.55H429.832V40.55H287.732V44.55ZM427.856 42.2397L422.346 77.3297L426.298 77.9502L431.808 42.8602L427.856 42.2397ZM424.322 75.64H325.432V79.64H424.322V75.64ZM323.457 77.3287L315.917 125.179L319.868 125.801L327.408 77.9513L323.457 77.3287ZM317.892 127.49H409.822V123.49H317.892V127.49ZM407.846 125.182L402.336 160.562L406.288 161.178L411.798 125.798L407.846 125.182ZM404.312 158.87H312.382V162.87H404.312V158.87ZM310.407 160.556L302.287 211.596L306.237 212.224L314.357 161.184L310.407 160.556ZM304.262 213.91H402.862V209.91H304.262V213.91ZM400.886 211.6L395.376 246.69L399.328 247.31L404.838 212.22L400.886 211.6ZM397.352 245H255.252V249H397.352V245ZM417.256 247L415.281 246.686L414.913 249H417.256V247ZM449.736 42.55V40.55H448.028L447.761 42.2362L449.736 42.55ZM494.976 42.55L496.951 42.8641L497.319 40.55H494.976V42.55ZM481.926 124.62L479.951 124.306L479.583 126.62H481.926V124.62ZM575.596 124.62V126.62H577.303L577.571 124.934L575.596 124.62ZM588.646 42.55V40.55H586.939L586.671 42.2359L588.646 42.55ZM634.176 42.55L636.151 42.8638L636.519 40.55H634.176V42.55ZM601.696 247V249H603.403L603.671 247.314L601.696 247ZM556.166 247L554.191 246.683L553.819 249H556.166V247ZM569.796 162.03L571.771 162.347L572.142 160.03H569.796V162.03ZM475.836 162.03V160.03H474.125L473.86 161.72L475.836 162.03ZM462.496 247V249H464.206L464.472 247.31L462.496 247ZM419.231 247.314L451.711 42.8638L447.761 42.2362L415.281 246.686L419.231 247.314ZM449.736 44.55H494.976V40.55H449.736V44.55ZM493.001 42.2359L479.951 124.306L483.901 124.934L496.951 42.8641L493.001 42.2359ZM481.926 126.62H575.596V122.62H481.926V126.62ZM577.571 124.934L590.621 42.8641L586.671 42.2359L573.621 124.306L577.571 124.934ZM588.646 44.55H634.176V40.55H588.646V44.55ZM632.201 42.2362L599.721 246.686L603.671 247.314L636.151 42.8638L632.201 42.2362ZM601.696 245H556.166V249H601.696V245ZM558.141 247.317L571.771 162.347L567.821 161.713L554.191 246.683L558.141 247.317ZM569.796 160.03H475.836V164.03H569.796V160.03ZM473.86 161.72L460.52 246.69L464.472 247.31L477.812 162.34L473.86 161.72ZM462.496 245H417.256V249H462.496V245ZM631.652 247L629.677 246.686L629.309 249H631.652V247ZM664.132 42.55V40.55H662.425L662.157 42.2362L664.132 42.55ZM709.082 42.55L711.056 42.8687L711.431 40.55H709.082V42.55ZM695.742 125.2L693.767 124.881L693.393 127.2H695.742V125.2ZM799.562 141.73L798.196 143.191L798.202 143.197L798.208 143.202L799.562 141.73ZM812.322 191.03L810.347 190.715L810.346 190.723L810.344 190.73L812.322 191.03ZM786.512 233.37L785.44 231.682L785.429 231.688L786.512 233.37ZM681.822 212.78L679.846 212.469L679.482 214.78H681.822V212.78ZM758.382 206.4L757.272 204.736L758.382 206.4ZM769.692 186.68L767.719 186.351L767.713 186.386L767.709 186.421L769.692 186.68ZM764.762 166.09L763.378 167.534L763.393 167.548L763.408 167.562L764.762 166.09ZM690.232 159.42V157.42H688.522L688.256 159.109L690.232 159.42ZM633.627 247.314L666.107 42.8638L662.157 42.2362L629.677 246.686L633.627 247.314ZM664.132 44.55H709.082V40.55H664.132V44.55ZM707.107 42.2313L693.767 124.881L697.716 125.519L711.056 42.8687L707.107 42.2313ZM695.742 127.2H746.202V123.2H695.742V127.2ZM746.202 127.2C769.711 127.2 786.916 132.651 798.196 143.191L800.927 140.269C788.621 128.769 770.252 123.2 746.202 123.2V127.2ZM798.208 143.202C809.534 153.615 813.763 169.269 810.347 190.715L814.297 191.345C817.841 169.097 813.563 151.885 800.915 140.258L798.208 143.202ZM810.344 190.73C807.517 209.389 799.186 222.951 785.44 231.682L787.584 235.058C802.451 225.616 811.326 210.951 814.299 191.33L810.344 190.73ZM785.429 231.688C771.728 240.51 753.963 245 731.992 245V249C754.487 249 773.069 244.404 787.595 235.052L785.429 231.688ZM731.992 245H631.652V249H731.992V245ZM681.822 214.78H730.542V210.78H681.822V214.78ZM730.542 214.78C742.904 214.78 752.642 212.631 759.491 208.064L757.272 204.736C751.362 208.676 742.54 210.78 730.542 210.78V214.78ZM759.491 208.064C766.435 203.435 770.454 196.298 771.675 186.939L767.709 186.421C766.609 194.849 763.089 200.858 757.272 204.736L759.491 208.064ZM771.665 187.009C773.27 177.375 771.641 169.701 766.116 164.618L763.408 167.562C767.549 171.372 769.207 177.425 767.719 186.351L771.665 187.009ZM766.146 164.646C760.917 159.635 751.819 157.42 739.532 157.42V161.42C751.605 161.42 759.327 163.652 763.378 167.534L766.146 164.646ZM739.532 157.42H690.232V161.42H739.532V157.42ZM688.256 159.109L679.846 212.469L683.797 213.091L692.208 159.731L688.256 159.109ZM892.221 247L890.246 246.686L889.879 249H892.221V247ZM924.701 42.55V40.55H922.994L922.726 42.2362L924.701 42.55ZM1068.25 60.82L1066.76 62.1487L1066.76 62.1547L1066.77 62.1606L1068.25 60.82ZM1079.56 109.54L1077.59 109.223L1077.59 109.231L1077.58 109.238L1079.56 109.54ZM1067.09 139.99L1065.48 138.801L1065.48 138.807L1067.09 139.99ZM1040.99 160.29L1040.19 158.458L1040.99 160.29ZM949.931 167.54V165.54H948.221L947.956 167.23L949.931 167.54ZM937.461 247V249H939.172L939.437 247.31L937.461 247ZM955.731 132.45L953.755 132.147L953.401 134.45H955.731V132.45ZM1025.33 125.78L1024.14 124.174L1024.13 124.183L1024.11 124.193L1025.33 125.78ZM1036.35 106.35L1034.38 106.021L1034.38 106.028L1034.38 106.036L1036.35 106.35ZM1031.42 85.18L1029.95 86.5366L1029.98 86.5659L1030.01 86.5942L1031.42 85.18ZM964.141 77.64V75.64H962.425L962.165 77.3367L964.141 77.64ZM894.197 247.314L926.677 42.8638L922.726 42.2362L890.246 246.686L894.197 247.314ZM924.701 44.55H1015.76V40.55H924.701V44.55ZM1015.76 44.55C1039.64 44.55 1056.46 50.5674 1066.76 62.1487L1069.75 59.4913C1058.39 46.7126 1040.22 40.55 1015.76 40.55V44.55ZM1066.77 62.1606C1077.08 73.5749 1080.81 89.1432 1077.59 109.223L1081.54 109.857C1084.89 88.9501 1081.08 72.0384 1069.74 59.4794L1066.77 62.1606ZM1077.58 109.238C1075.89 120.338 1071.85 130.181 1065.48 138.801L1068.7 141.179C1075.47 132.013 1079.75 121.555 1081.54 109.842L1077.58 109.238ZM1065.48 138.807C1059.33 147.192 1050.92 153.75 1040.19 158.458L1041.79 162.122C1053.1 157.164 1062.09 150.188 1068.7 141.173L1065.48 138.807ZM1040.19 158.458C1029.48 163.154 1016.53 165.54 1001.26 165.54V169.54C1016.93 169.54 1030.46 167.093 1041.79 162.122L1040.19 158.458ZM1001.26 165.54H949.931V169.54H1001.26V165.54ZM947.956 167.23L935.486 246.69L939.437 247.31L951.907 167.85L947.956 167.23ZM937.461 245H892.221V249H937.461V245ZM955.731 134.45H1000.1V130.45H955.731V134.45ZM1000.1 134.45C1011.35 134.45 1020.26 132.187 1026.55 127.367L1024.11 124.193C1018.8 128.266 1010.89 130.45 1000.1 130.45V134.45ZM1026.52 127.386C1033 122.58 1036.9 115.601 1038.33 106.664L1034.38 106.036C1033.09 114.112 1029.65 120.087 1024.14 124.174L1026.52 127.386ZM1038.32 106.679C1039.93 97.021 1038.28 89.2145 1032.84 83.7658L1030.01 86.5942C1034.23 90.8122 1035.86 97.119 1034.38 106.021L1038.32 106.679ZM1032.89 83.8234C1027.69 78.194 1019.18 75.64 1007.93 75.64V79.64C1018.72 79.64 1025.87 82.1126 1029.95 86.5366L1032.89 83.8234ZM1007.93 75.64H964.141V79.64H1007.93V75.64ZM962.165 77.3367L953.755 132.147L957.708 132.753L966.118 77.9433L962.165 77.3367ZM1084.21 139.7L1082.24 139.377L1082.24 139.386L1082.24 139.395L1084.21 139.7ZM1104.22 85.47L1102.56 84.3606L1102.56 84.3656L1104.22 85.47ZM1142.79 51.25L1143.68 53.0433L1143.69 53.0389L1143.7 53.0344L1142.79 51.25ZM1250.67 53.86L1249.54 55.5101L1249.56 55.5189L1249.57 55.5276L1250.67 53.86ZM1280.54 93.01L1278.65 93.6491L1278.65 93.6624L1278.66 93.6756L1280.54 93.01ZM1284.02 149.56L1282.05 149.237L1282.05 149.246L1282.05 149.255L1284.02 149.56ZM1263.72 204.08L1262.07 202.956L1262.07 202.961L1263.72 204.08ZM1225.15 238.3L1224.25 236.516L1224.24 236.52L1225.15 238.3ZM1117.27 235.98L1116.14 237.63L1116.16 237.639L1116.17 237.648L1117.27 235.98ZM1087.69 196.54L1085.8 197.179L1087.69 196.54ZM1131.19 142.6L1129.22 142.277L1129.22 142.288L1131.19 142.6ZM1146.85 203.79L1145.64 205.38L1145.66 205.398L1145.69 205.415L1146.85 203.79ZM1216.74 194.22L1215.25 192.894L1215.24 192.901L1215.23 192.908L1216.74 194.22ZM1237.04 146.66L1235.07 146.348L1235.07 146.353L1237.04 146.66ZM1236.17 109.25L1234.24 109.761L1234.24 109.778L1234.25 109.795L1236.17 109.25ZM1220.8 85.76L1219.62 87.3701L1219.63 87.3774L1219.64 87.3846L1220.8 85.76ZM1151.2 95.04L1149.69 93.7301L1151.2 95.04ZM1086.19 140.023C1089.63 118.979 1096.22 101.182 1105.89 86.5744L1102.56 84.3656C1092.51 99.5317 1085.76 117.888 1082.24 139.377L1086.19 140.023ZM1105.89 86.5794C1115.75 71.7803 1128.35 60.615 1143.68 53.0433L1141.91 49.4567C1125.92 57.3517 1112.8 68.9997 1102.56 84.3606L1105.89 86.5794ZM1143.7 53.0344C1159.04 45.2675 1176.51 41.36 1196.15 41.36V37.36C1175.97 37.36 1157.87 41.3791 1141.89 49.4656L1143.7 53.0344ZM1196.15 41.36C1218.1 41.36 1235.85 46.1308 1249.54 55.5101L1251.8 52.2099C1237.27 42.2559 1218.67 37.36 1196.15 37.36V41.36ZM1249.57 55.5276C1263.5 64.7495 1273.18 77.4333 1278.65 93.6491L1282.44 92.3709C1276.69 75.3334 1266.46 61.9171 1251.78 52.1924L1249.57 55.5276ZM1278.66 93.6756C1284.32 109.725 1285.49 128.225 1282.05 149.237L1286 149.883C1289.52 128.362 1288.36 109.161 1282.43 92.3444L1278.66 93.6756ZM1282.05 149.255C1278.8 170.28 1272.12 188.162 1262.07 202.956L1265.38 205.204C1275.82 189.838 1282.68 171.373 1286 149.865L1282.05 149.255ZM1262.07 202.961C1252.2 217.572 1239.6 228.746 1224.25 236.516L1226.06 240.084C1242.03 232 1255.14 220.361 1265.38 205.199L1262.07 202.961ZM1224.24 236.52C1209.09 244.282 1191.73 248.19 1172.08 248.19V252.19C1192.27 252.19 1210.28 248.171 1226.06 240.08L1224.24 236.52ZM1172.08 248.19C1150.13 248.19 1132.27 243.513 1118.38 234.312L1116.17 237.648C1130.89 247.393 1149.57 252.19 1172.08 252.19V248.19ZM1118.4 234.33C1104.66 224.915 1095.06 212.128 1089.59 195.901L1085.8 197.179C1091.54 214.205 1101.66 227.712 1116.14 237.63L1118.4 234.33ZM1089.59 195.901C1084.1 179.639 1082.94 161.026 1086.19 140.005L1082.24 139.395C1078.91 160.907 1080.07 180.187 1085.8 197.179L1089.59 195.901ZM1129.22 142.288C1126.87 157.153 1127.04 169.921 1129.84 180.521L1133.71 179.499C1131.09 169.606 1130.88 157.434 1133.17 142.912L1129.22 142.288ZM1129.84 180.521C1132.64 191.131 1137.89 199.465 1145.64 205.38L1148.07 202.2C1141.12 196.902 1136.32 189.382 1133.71 179.499L1129.84 180.521ZM1145.69 205.415C1153.64 211.127 1163.65 213.91 1175.56 213.91V209.91C1164.28 209.91 1155.14 207.28 1148.02 202.165L1145.69 205.415ZM1175.56 213.91C1193.28 213.91 1207.58 207.81 1218.25 195.532L1215.23 192.908C1205.41 204.217 1192.26 209.91 1175.56 209.91V213.91ZM1218.24 195.546C1229 183.395 1235.88 167.154 1239.02 146.967L1235.07 146.353C1232.02 165.993 1225.37 181.458 1215.25 192.894L1218.24 195.546ZM1239.02 146.972C1241.37 132.099 1241.1 119.318 1238.1 108.705L1234.25 109.795C1237.04 119.675 1237.36 131.834 1235.07 146.348L1239.02 146.972ZM1238.11 108.739C1235.3 98.1107 1229.94 89.8576 1221.97 84.1353L1219.64 87.3846C1226.75 92.4891 1231.63 99.8959 1234.24 109.761L1238.11 108.739ZM1221.99 84.1499C1214.21 78.418 1204.19 75.64 1192.09 75.64V79.64C1203.58 79.64 1212.7 82.2753 1219.62 87.3701L1221.99 84.1499ZM1192.09 75.64C1174.38 75.64 1160.17 81.6358 1149.69 93.7301L1152.71 96.3498C1162.34 85.2442 1175.39 79.64 1192.09 79.64V75.64ZM1149.69 93.7301C1139.33 105.688 1132.55 121.922 1129.22 142.277L1133.17 142.923C1136.41 123.065 1142.97 107.592 1152.71 96.3498L1149.69 93.7301ZM1270.66 247L1268.99 245.901L1266.95 249H1270.66V247ZM1319.09 173.34L1320.76 174.439L1320.77 174.433L1320.77 174.426L1319.09 173.34ZM1384.34 128.68L1385.44 130.352L1384.02 126.706L1384.34 128.68ZM1365.78 140.86L1364 141.769L1365.01 143.756L1366.88 142.532L1365.78 140.86ZM1315.61 42.55V40.55H1312.34L1313.83 43.4591L1315.61 42.55ZM1362.88 42.55L1364.68 41.6813L1364.14 40.55H1362.88V42.55ZM1406.09 132.16L1404.79 133.684L1407.89 131.291L1406.09 132.16ZM1400.29 127.23V125.23H1394.85L1398.99 128.754L1400.29 127.23ZM1423.49 127.23V129.23H1425.19L1425.46 127.548L1423.49 127.23ZM1437.12 42.55V40.55H1435.42L1435.15 42.2322L1437.12 42.55ZM1480.33 42.55L1482.3 42.8678L1482.68 40.55H1480.33V42.55ZM1466.7 127.23L1464.73 126.912L1464.35 129.23H1466.7V127.23ZM1489.9 127.23L1490.84 128.996L1489.9 125.23V127.23ZM1480.62 132.16L1479.06 130.911L1481.56 133.926L1480.62 132.16ZM1552.25 42.55V40.55H1551.29L1550.69 41.3012L1552.25 42.55ZM1603.29 42.55L1604.83 43.8263L1607.55 40.55H1603.29V42.55ZM1521.8 140.86L1520.61 142.47L1522.13 143.591L1523.34 142.136L1521.8 140.86ZM1505.27 128.68L1505.63 126.712L1504.08 130.29L1505.27 128.68ZM1554.57 173.34L1556.46 172.699L1556.46 172.686L1556.46 172.674L1554.57 173.34ZM1579.51 247V249H1582.3L1581.4 246.359L1579.51 247ZM1533.11 247L1531.21 247.61L1531.65 249H1533.11V247ZM1514.55 189L1512.64 189.608L1512.65 189.61L1514.55 189ZM1501.5 169.57L1500.39 171.234L1501.5 169.57ZM1460.9 163.77V161.77H1459.19L1458.92 163.46L1460.9 163.77ZM1447.85 247V249H1449.56L1449.83 247.31L1447.85 247ZM1404.64 247L1402.66 246.69L1402.3 249H1404.64V247ZM1417.69 163.77L1419.67 164.08L1420.03 161.77H1417.69V163.77ZM1376.22 169.57L1375.21 167.846L1375.19 167.853L1375.18 167.86L1376.22 169.57ZM1357.95 189L1359.63 190.078L1359.64 190.076L1357.95 189ZM1320.83 247V249H1321.92L1322.51 248.078L1320.83 247ZM1272.33 248.099L1320.76 174.439L1317.42 172.241L1268.99 245.901L1272.33 248.099ZM1320.77 174.426C1329.17 161.451 1338.46 151.513 1348.64 144.54L1346.38 141.24C1335.68 148.574 1326.03 158.936 1317.41 172.253L1320.77 174.426ZM1348.64 144.54C1358.81 137.572 1370.8 132.932 1384.66 130.654L1384.02 126.706C1369.65 129.068 1357.09 133.901 1346.38 141.24L1348.64 144.54ZM1383.24 127.008L1364.68 139.188L1366.88 142.532L1385.44 130.352L1383.24 127.008ZM1367.56 139.951L1317.39 41.6409L1313.83 43.4591L1364 141.769L1367.56 139.951ZM1315.61 44.55H1362.88V40.55H1315.61V44.55ZM1361.08 43.4187L1404.29 133.029L1407.89 131.291L1364.68 41.6813L1361.08 43.4187ZM1407.39 130.636L1401.59 125.706L1398.99 128.754L1404.79 133.684L1407.39 130.636ZM1400.29 129.23H1423.49V125.23H1400.29V129.23ZM1425.46 127.548L1439.09 42.8678L1435.15 42.2322L1421.52 126.912L1425.46 127.548ZM1437.12 44.55H1480.33V40.55H1437.12V44.55ZM1478.36 42.2322L1464.73 126.912L1468.67 127.548L1482.3 42.8678L1478.36 42.2322ZM1466.7 129.23H1489.9V125.23H1466.7V129.23ZM1488.96 125.464L1479.68 130.394L1481.56 133.926L1490.84 128.996L1488.96 125.464ZM1482.18 133.409L1553.81 43.7988L1550.69 41.3012L1479.06 130.911L1482.18 133.409ZM1552.25 44.55H1603.29V40.55H1552.25V44.55ZM1601.75 41.2736L1520.26 139.584L1523.34 142.136L1604.83 43.8263L1601.75 41.2736ZM1522.99 139.25L1506.46 127.07L1504.08 130.29L1520.61 142.47L1522.99 139.25ZM1504.91 130.648C1517.38 132.915 1527.26 137.517 1534.65 144.358L1537.37 141.422C1529.3 133.956 1518.68 129.085 1505.63 126.712L1504.91 130.648ZM1534.65 144.358C1542.08 151.231 1548.12 161.07 1552.68 174.006L1556.46 172.674C1551.74 159.317 1545.4 148.856 1537.37 141.422L1534.65 144.358ZM1552.68 173.981L1577.62 247.641L1581.4 246.359L1556.46 172.699L1552.68 173.981ZM1579.51 245H1533.11V249H1579.51V245ZM1535.02 246.39L1516.45 188.39L1512.65 189.61L1531.21 247.61L1535.02 246.39ZM1516.46 188.392C1513.47 179.031 1508.9 172.103 1502.61 167.906L1500.39 171.234C1505.7 174.771 1509.83 180.796 1512.64 189.608L1516.46 188.392ZM1502.61 167.906C1496.38 163.751 1488.21 161.77 1478.3 161.77V165.77C1487.72 165.77 1495.02 167.656 1500.39 171.234L1502.61 167.906ZM1478.3 161.77H1460.9V165.77H1478.3V161.77ZM1458.92 163.46L1445.87 246.69L1449.83 247.31L1462.88 164.08L1458.92 163.46ZM1447.85 245H1404.64V249H1447.85V245ZM1406.62 247.31L1419.67 164.08L1415.71 163.46L1402.66 246.69L1406.62 247.31ZM1417.69 161.77H1400.29V165.77H1417.69V161.77ZM1400.29 161.77C1390.55 161.77 1382.15 163.76 1375.21 167.846L1377.23 171.294C1383.43 167.647 1391.09 165.77 1400.29 165.77V161.77ZM1375.18 167.86C1368.45 171.94 1362.16 178.686 1356.26 187.924L1359.64 190.076C1365.34 181.141 1371.23 174.934 1377.26 171.28L1375.18 167.86ZM1356.27 187.922L1319.15 245.922L1322.51 248.078L1359.63 190.078L1356.27 187.922ZM1320.83 245H1270.66V249H1320.83V245ZM1565.13 296.3L1563.15 295.987L1562.79 298.3H1565.13V296.3ZM1578.47 212.2V210.2H1576.76L1576.49 211.887L1578.47 212.2ZM1599.64 212.2V214.2H1600.49L1601.08 213.589L1599.64 212.2ZM1626.9 166.96L1625.04 166.227L1626.9 166.96ZM1644.88 96.49L1642.9 96.1715L1642.9 96.1745L1644.88 96.49ZM1653.58 42.55V40.55H1651.87L1651.6 42.2315L1653.58 42.55ZM1806.99 42.55L1808.96 42.864L1809.33 40.55H1806.99V42.55ZM1780.02 212.2L1778.04 211.886L1777.67 214.2H1780.02V212.2ZM1809.89 212.2L1811.86 212.513L1812.23 210.2H1809.89V212.2ZM1796.55 296.3V298.3H1798.26L1798.52 296.613L1796.55 296.3ZM1757.4 296.3L1755.42 295.986L1755.06 298.3H1757.4V296.3ZM1765.23 247L1767.2 247.314L1767.57 245H1765.23V247ZM1612.11 247V245H1610.4L1610.13 246.686L1612.11 247ZM1604.28 296.3V298.3H1605.99L1606.25 296.614L1604.28 296.3ZM1645.75 212.2L1644.16 210.979L1641.68 214.2H1645.75V212.2ZM1735.07 212.2V214.2H1736.78L1737.04 212.51L1735.07 212.2ZM1756.24 77.06L1758.21 77.3695L1758.58 75.06H1756.24V77.06ZM1688.96 77.06V75.06H1687.23L1686.98 76.7704L1688.96 77.06ZM1685.48 100.84L1687.45 101.147L1687.46 101.139L1687.46 101.13L1685.48 100.84ZM1669.24 167.25L1667.36 166.552L1667.36 166.561L1667.36 166.57L1669.24 167.25ZM1567.1 296.613L1580.44 212.513L1576.49 211.887L1563.15 295.987L1567.1 296.613ZM1578.47 214.2H1599.64V210.2H1578.47V214.2ZM1601.08 213.589C1611.94 202.327 1621.15 186.998 1628.76 167.693L1625.04 166.227C1617.56 185.202 1608.6 200.033 1598.2 210.811L1601.08 213.589ZM1628.76 167.693C1636.37 148.379 1642.39 124.74 1646.85 96.8054L1642.9 96.1745C1638.47 123.92 1632.51 147.261 1625.04 166.227L1628.76 167.693ZM1646.85 96.8084L1655.55 42.8685L1651.6 42.2315L1642.9 96.1715L1646.85 96.8084ZM1653.58 44.55H1806.99V40.55H1653.58V44.55ZM1805.01 42.236L1778.04 211.886L1781.99 212.514L1808.96 42.864L1805.01 42.236ZM1780.02 214.2H1809.89V210.2H1780.02V214.2ZM1807.91 211.887L1794.57 295.987L1798.52 296.613L1811.86 212.513L1807.91 211.887ZM1796.55 294.3H1757.4V298.3H1796.55V294.3ZM1759.37 296.614L1767.2 247.314L1763.25 246.686L1755.42 295.986L1759.37 296.614ZM1765.23 245H1612.11V249H1765.23V245ZM1610.13 246.686L1602.3 295.986L1606.25 296.614L1614.08 247.314L1610.13 246.686ZM1604.28 294.3H1565.13V298.3H1604.28V294.3ZM1645.75 214.2H1735.07V210.2H1645.75V214.2ZM1737.04 212.51L1758.21 77.3695L1754.26 76.7505L1733.09 211.89L1737.04 212.51ZM1756.24 75.06H1688.96V79.06H1756.24V75.06ZM1686.98 76.7704L1683.5 100.55L1687.46 101.13L1690.94 77.3496L1686.98 76.7704ZM1683.5 100.533C1679.46 126.544 1674.07 148.541 1667.36 166.552L1671.11 167.948C1677.94 149.612 1683.38 127.336 1687.45 101.147L1683.5 100.533ZM1667.36 166.57C1660.83 184.603 1653.09 199.39 1644.16 210.979L1647.33 213.421C1656.58 201.423 1664.49 186.243 1671.12 167.93L1667.36 166.57ZM1820.04 247L1818.06 246.686L1817.7 249H1820.04V247ZM1852.52 42.55V40.55H1850.81L1850.54 42.2362L1852.52 42.55ZM1994.62 42.55L1996.6 42.8602L1996.96 40.55H1994.62V42.55ZM1989.11 77.64V79.64H1990.82L1991.09 77.9502L1989.11 77.64ZM1890.22 77.64V75.64H1888.51L1888.24 77.3287L1890.22 77.64ZM1882.68 125.49L1880.7 125.179L1880.34 127.49H1882.68V125.49ZM1974.61 125.49L1976.59 125.798L1976.95 123.49H1974.61V125.49ZM1969.1 160.87V162.87H1970.81L1971.08 161.178L1969.1 160.87ZM1877.17 160.87V158.87H1875.46L1875.19 160.556L1877.17 160.87ZM1869.05 211.91L1867.07 211.596L1866.71 213.91H1869.05V211.91ZM1967.65 211.91L1969.63 212.22L1969.99 209.91H1967.65V211.91ZM1962.14 247V249H1963.85L1964.12 247.31L1962.14 247ZM1822.02 247.314L1854.5 42.8638L1850.54 42.2362L1818.06 246.686L1822.02 247.314ZM1852.52 44.55H1994.62V40.55H1852.52V44.55ZM1992.64 42.2397L1987.13 77.3297L1991.09 77.9502L1996.6 42.8602L1992.64 42.2397ZM1989.11 75.64H1890.22V79.64H1989.11V75.64ZM1888.24 77.3287L1880.7 125.179L1884.66 125.801L1892.2 77.9513L1888.24 77.3287ZM1882.68 127.49H1974.61V123.49H1882.68V127.49ZM1972.63 125.182L1967.12 160.562L1971.08 161.178L1976.59 125.798L1972.63 125.182ZM1969.1 158.87H1877.17V162.87H1969.1V158.87ZM1875.19 160.556L1867.07 211.596L1871.03 212.224L1879.15 161.184L1875.19 160.556ZM1869.05 213.91H1967.65V209.91H1869.05V213.91ZM1965.67 211.6L1960.16 246.69L1964.12 247.31L1969.63 212.22L1965.67 211.6ZM1962.14 245H1820.04V249H1962.14V245Z" fill="white" mask="url(#path-1-outside-1_537_1119)"/>
</g>
</g>
</svg>
