<svg width="1440" height="2297" viewBox="0 0 1440 2297" fill="none" xmlns="http://www.w3.org/2000/svg">
<path d="M-4198.36 0L-5033.68 1148.5H-5752.81L-4917.49 0H-4198.36ZM-5869 2297H-5150L-4314.68 1148.5H-5033.68L-5869 2297ZM-3479.36 0L-4314.68 1148.5H-3595.54L-2760.22 0H-3479.36ZM-4430.87 2297H-3711.73L-2876.41 1148.5H-3595.54L-4430.87 2297ZM-2041.22 0L-2876.55 1148.5H-2157.41L-1322.09 0H-2041.22ZM-2992.59 2297H-2273.6L-1438.27 1148.5H-2157.27L-2992.59 2297ZM-602.952 0L-1438.27 1148.5H-719.139L116.183 0H-603.091H-602.952ZM-1554.32 2297H-835.187L0.135736 1148.5H-719.001L-1554.32 2297ZM835.319 0L-0.002531 1148.5H719.133L1554.46 0H835.319ZM-116.05 2297H602.947L1438.27 1148.5H719.272L-116.05 2297ZM2273.59 0L1438.27 1148.5H2157.41L2992.73 0H2273.59ZM1322.22 2297H2041.22L2876.54 1148.5H2157.41L1322.08 2297H1322.22ZM3711.86 0L2876.54 1148.5H3595.68L4431 0H3711.86ZM2760.36 2297H3479.49L4314.81 1148.5H3595.82L2760.49 2297H2760.36Z" fill="url(#paint0_linear_537_709)"/>
<defs>
<linearGradient id="paint0_linear_537_709" x1="4431" y1="8.07953e-05" x2="4431" y2="1841.64" gradientUnits="userSpaceOnUse">
<stop stop-color="#4EE3FF"/>
<stop offset="0.5" stop-color="#65C7F7"/>
<stop offset="1" stop-color="#0052D4"/>
</linearGradient>
</defs>
</svg>
