<svg width="16" height="16" viewBox="0 0 16 16" fill="none" xmlns="http://www.w3.org/2000/svg">
<path d="M9.8537 13.1337L9.53402 12.883L9.8537 13.1337ZM6.14598 13.1337L5.8263 13.3844L6.14598 13.1337ZM7.99984 14.6704V14.2641V14.6704ZM12.9269 6.40588C12.9269 7.24943 12.4895 8.36173 11.8173 9.55026C11.154 10.7229 10.2978 11.909 9.53402 12.883L10.1734 13.3844C10.9494 12.3948 11.833 11.1728 12.5245 9.95027C13.207 8.74364 13.7394 7.47381 13.7394 6.40588H12.9269ZM6.46565 12.883C5.70184 11.909 4.84568 10.7229 4.1824 9.55026C3.51014 8.36173 3.07275 7.24943 3.07275 6.40588H2.26025C2.26025 7.4738 2.79269 8.74364 3.4752 9.95027C4.1667 11.1728 5.05027 12.3948 5.8263 13.3844L6.46565 12.883ZM3.07275 6.40588C3.07275 3.43204 5.30623 1.073 7.99984 1.073V0.260498C4.80241 0.260498 2.26025 3.04045 2.26025 6.40588H3.07275ZM7.99984 1.073C10.6934 1.073 12.9269 3.43204 12.9269 6.40588H13.7394C13.7394 3.04045 11.1973 0.260498 7.99984 0.260498V1.073ZM9.53402 12.883C9.12344 13.4066 8.8462 13.7579 8.59566 13.9855C8.36251 14.1973 8.19293 14.2641 7.99984 14.2641V15.0766C8.45557 15.0766 8.81123 14.8874 9.14197 14.5869C9.45532 14.3023 9.7806 13.8853 10.1734 13.3844L9.53402 12.883ZM5.8263 13.3844C6.21907 13.8853 6.54436 14.3023 6.8577 14.5869C7.18844 14.8874 7.5441 15.0766 7.99984 15.0766V14.2641C7.80675 14.2641 7.63716 14.1973 7.40401 13.9855C7.15347 13.7579 6.87624 13.4066 6.46565 12.883L5.8263 13.3844ZM5.59359 6.66675C5.59359 7.99568 6.6709 9.073 7.99984 9.073V8.2605C7.11963 8.2605 6.40609 7.54695 6.40609 6.66675H5.59359ZM7.99984 9.073C9.32877 9.073 10.4061 7.99568 10.4061 6.66675H9.59359C9.59359 7.54695 8.88004 8.2605 7.99984 8.2605V9.073ZM10.4061 6.66675C10.4061 5.33781 9.32877 4.2605 7.99984 4.2605V5.073C8.88004 5.073 9.59359 5.78654 9.59359 6.66675H10.4061ZM7.99984 4.2605C6.6709 4.2605 5.59359 5.33781 5.59359 6.66675H6.40609C6.40609 5.78654 7.11963 5.073 7.99984 5.073V4.2605Z" fill="white"/>
</svg>
