<svg width="105" height="56" viewBox="0 0 105 56" fill="none" xmlns="http://www.w3.org/2000/svg">
<g clip-path="url(#clip0_537_1173)">
<path fill-rule="evenodd" clip-rule="evenodd" d="M52.8248 5.38939C54.195 5.69561 55.5511 6.11004 56.8614 6.64733C58.0876 7.15015 59.2677 7.75835 60.3756 8.48366C60.3033 8.18968 60.2354 7.90919 60.1739 7.64894L59.2801 3.8623L62.3546 6.22244C63.6132 7.18887 64.8138 8.2536 65.8772 9.43134C66.6343 10.2693 67.3265 11.1685 67.9285 12.1354L68.75 7.39546L70.6325 10.8534C71.3182 12.1128 71.9168 13.446 72.3898 14.8425C72.8008 16.0543 73.1101 17.3034 73.2921 18.5808C73.4165 18.3944 73.5698 18.1648 73.7591 17.881L75.9577 14.5853L76.2589 18.4991C76.3645 19.8702 76.3709 21.2428 76.2594 22.5919C76.1526 23.8842 75.9376 25.1765 75.5988 26.4508C75.5775 26.5317 75.5553 26.6122 75.5322 26.692C75.748 26.5543 75.9876 26.4012 76.2538 26.2312L79.6265 24.0783L78.2623 27.8347C77.6612 29.4908 76.9178 31.1219 75.9928 32.6393C75.4745 33.4894 74.8994 34.3051 74.2607 35.0715C74.5324 35.0281 74.8127 34.9831 75.1058 34.9359L79.0728 34.2962L76.2841 37.2308C75.0656 38.5126 73.7301 39.7131 72.2761 40.7342C71.4631 41.305 70.6103 41.8218 69.7161 42.2681C69.9844 42.3399 70.2527 42.4117 70.521 42.4837L74.3457 43.5102L70.6616 45.0761C69.3875 45.6175 68.0788 46.0735 66.7505 46.4107C65.5094 46.7258 64.2345 46.9415 62.9343 47.032C62.8438 47.0383 62.7532 47.0436 62.6635 47.048C62.878 47.224 63.0929 47.4001 63.3073 47.5765L66.3587 50.0857L62.3875 50.0208C61.1643 50.0008 59.9338 49.9014 58.7093 49.7106C57.5485 49.53 56.3979 49.2655 55.2695 48.9067C54.9452 48.8041 54.6308 48.6897 54.3236 48.5666C54.5372 48.9995 54.6799 49.2888 54.6944 49.3187L56.4214 52.851L52.8598 51.184C51.499 50.5466 50.1724 49.803 48.933 48.931C47.9392 48.2316 47.0018 47.4486 46.1482 46.5706C46.1576 46.8542 46.1674 47.1377 46.1768 47.4214L46.3084 51.3972L43.7565 48.3925C42.8643 47.3422 42.0355 46.2235 41.3109 45.0353C40.6131 43.891 40.0132 42.6827 39.5474 41.4095C39.4396 41.6778 39.3324 41.9438 39.2262 42.2056L37.7365 45.8793L36.637 42.1095C36.2431 40.7591 35.9433 39.357 35.7714 37.9188C35.6154 36.6131 35.5693 35.2922 35.6598 33.9712C35.4445 34.1826 35.2399 34.3829 35.0515 34.5664L32.212 37.3327L32.7439 33.4315C32.9387 32.0025 33.2347 30.587 33.6548 29.2206C34.0435 27.9562 34.5382 26.7228 35.1568 25.545C34.9231 25.6333 34.6614 25.7318 34.3616 25.8443L30.6699 27.2299L32.7405 23.8549C33.7276 22.2459 34.8755 20.7092 36.1973 19.3493C36.8093 18.7197 37.4591 18.1267 38.1482 17.5802C37.8082 17.5623 37.5094 17.5462 37.2837 17.5332L33.3344 17.3055L36.6221 15.0332C37.8848 14.1605 39.2327 13.3628 40.6633 12.6993C41.7617 12.1899 42.8987 11.7668 44.0705 11.4585C43.8111 11.3267 43.5642 11.2026 43.3352 11.0895L39.7253 9.30467L43.7146 8.51292C45.1578 8.22654 46.6186 8.04281 48.0678 8.00031C49.3564 7.96247 50.651 8.03343 51.934 8.23891C51.7199 7.96849 51.5379 7.73866 51.4191 7.58759L49.0249 4.53986L52.8248 5.38939ZM56.1522 37.4954C58.7507 37.2234 61.0113 35.9243 62.5648 34.0439C64.1187 32.1635 64.9659 29.7015 64.7386 27.1037C64.5113 24.5059 63.2522 22.2644 61.4005 20.7404C59.5488 19.2162 57.1041 18.4096 54.5056 18.6815C51.9071 18.9535 49.6469 20.2524 48.093 22.133C46.5395 24.0134 45.6919 26.4753 45.9192 29.0731C46.1469 31.6709 47.4056 33.9125 49.2573 35.4365C51.1094 36.9605 53.5537 37.7673 56.1522 37.4954Z" fill="white" stroke="#1B1918" stroke-width="2.56322"/>
<path fill-rule="evenodd" clip-rule="evenodd" d="M52.8248 5.38939C54.195 5.69561 55.5511 6.11004 56.8614 6.64733C58.0876 7.15015 59.2677 7.75835 60.3756 8.48366C60.3033 8.18968 60.2354 7.90919 60.1739 7.64894L59.2801 3.8623L62.3546 6.22244C63.6132 7.18887 64.8138 8.2536 65.8772 9.43134C66.6343 10.2693 67.3265 11.1685 67.9285 12.1354L68.75 7.39546L70.6325 10.8534C71.3182 12.1128 71.9168 13.446 72.3898 14.8425C72.8008 16.0543 73.1101 17.3034 73.2921 18.5808C73.4165 18.3944 73.5698 18.1648 73.7591 17.881L75.9577 14.5853L76.2589 18.4991C76.3645 19.8702 76.3709 21.2428 76.2594 22.5919C76.1526 23.8842 75.9376 25.1765 75.5988 26.4508C75.5775 26.5317 75.5553 26.6122 75.5322 26.692C75.748 26.5543 75.9876 26.4012 76.2538 26.2312L79.6265 24.0783L78.2623 27.8347C77.6612 29.4908 76.9178 31.1219 75.9928 32.6393C75.4745 33.4894 74.8994 34.3051 74.2607 35.0715C74.5324 35.0281 74.8127 34.9831 75.1058 34.9359L79.0728 34.2962L76.2841 37.2308C75.0656 38.5126 73.7301 39.7131 72.2761 40.7342C71.4631 41.305 70.6103 41.8218 69.7161 42.2681C69.9844 42.3399 70.2527 42.4117 70.521 42.4837L74.3457 43.5102L70.6616 45.0761C69.3875 45.6175 68.0788 46.0735 66.7505 46.4107C65.5094 46.7258 64.2345 46.9415 62.9343 47.032C62.8438 47.0383 62.7532 47.0436 62.6635 47.048C62.878 47.224 63.0929 47.4001 63.3073 47.5765L66.3587 50.0857L62.3875 50.0208C61.1643 50.0008 59.9338 49.9014 58.7093 49.7106C57.5485 49.53 56.3979 49.2655 55.2695 48.9067C54.9452 48.8041 54.6308 48.6897 54.3236 48.5666C54.5372 48.9995 54.6799 49.2888 54.6944 49.3187L56.4214 52.851L52.8598 51.184C51.499 50.5466 50.1724 49.803 48.933 48.931C47.9392 48.2316 47.0018 47.4486 46.1482 46.5706C46.1576 46.8542 46.1674 47.1377 46.1768 47.4214L46.3084 51.3972L43.7565 48.3925C42.8643 47.3422 42.0355 46.2235 41.3109 45.0353C40.6131 43.891 40.0132 42.6827 39.5474 41.4095C39.4396 41.6778 39.3324 41.9438 39.2262 42.2056L37.7365 45.8793L36.637 42.1095C36.2431 40.7591 35.9433 39.357 35.7714 37.9188C35.6154 36.6131 35.5693 35.2922 35.6598 33.9712C35.4445 34.1826 35.2399 34.3829 35.0515 34.5664L32.212 37.3327L32.7439 33.4315C32.9387 32.0025 33.2347 30.587 33.6548 29.2206C34.0435 27.9562 34.5382 26.7228 35.1568 25.545C34.9231 25.6333 34.6614 25.7318 34.3616 25.8443L30.6699 27.2299L32.7405 23.8549C33.7276 22.2459 34.8755 20.7092 36.1973 19.3493C36.8093 18.7197 37.4591 18.1267 38.1482 17.5802C37.8082 17.5623 37.5094 17.5462 37.2837 17.5332L33.3344 17.3055L36.6221 15.0332C37.8848 14.1605 39.2327 13.3628 40.6633 12.6993C41.7617 12.1899 42.8987 11.7668 44.0705 11.4585C43.8111 11.3267 43.5642 11.2026 43.3352 11.0895L39.7253 9.30467L43.7146 8.51292C45.1578 8.22654 46.6186 8.04281 48.0678 8.00031C49.3564 7.96247 50.651 8.03343 51.934 8.23891C51.7199 7.96849 51.5379 7.73866 51.4191 7.58759L49.0249 4.53986L52.8248 5.38939ZM56.1522 37.4954C58.7507 37.2234 61.0113 35.9243 62.5648 34.0439C64.1187 32.1635 64.9659 29.7015 64.7386 27.1037C64.5113 24.5059 63.2522 22.2644 61.4005 20.7404C59.5488 19.2162 57.1041 18.4096 54.5056 18.6815C51.9071 18.9535 49.6469 20.2524 48.093 22.133C46.5395 24.0134 45.6919 26.4753 45.9192 29.0731C46.1469 31.6709 47.4056 33.9125 49.2573 35.4365C51.1094 36.9605 53.5537 37.7673 56.1522 37.4954Z" fill="white"/>
<path fill-rule="evenodd" clip-rule="evenodd" d="M52.5446 6.78125C55.0684 7.34541 57.5229 8.28772 59.6823 9.70816C60.7948 10.4401 61.7484 11.3719 62.7576 12.233C62.3658 10.6084 61.9347 8.99419 61.5506 7.36692C63.9342 9.197 66.1034 11.4066 67.4706 14.1132C67.8743 14.9122 68.2208 15.7402 68.587 16.5571C68.8873 14.8983 69.1744 13.238 69.4624 11.5774C70.7279 13.9026 71.6666 16.4375 72.0071 19.0859C72.169 20.3465 72.0848 21.6245 72.1327 22.893C73.0641 21.489 73.9981 20.0859 74.9337 18.6834C75.126 21.1819 74.9632 23.7309 74.3142 26.172C73.9442 27.5636 73.2935 28.8557 72.7466 30.1823C74.1677 29.2647 75.59 28.3488 77.0157 27.4385C75.8745 30.5811 74.1976 33.6241 71.6845 35.8925C71.2325 36.3007 70.786 36.7184 70.3447 37.1386C72.0092 36.8713 73.6755 36.6126 75.34 36.3441C73.0312 38.7737 70.2772 40.8943 67.0775 41.9606C66.4969 42.1542 65.9214 42.3632 65.3407 42.5595C66.9532 43.0033 68.5703 43.4316 70.1857 43.8652C67.8671 44.8509 65.4065 45.5413 62.8977 45.7158C61.4596 45.8159 60.0326 45.6266 58.6039 45.5194C59.8852 46.5876 61.1806 47.6382 62.4688 48.6976C60.1898 48.6603 57.9126 48.3389 55.7456 47.6505C54.1592 47.1463 52.7331 46.2933 51.2885 45.4979C52.0225 46.9973 52.7651 48.4919 53.4983 49.9914C50.9108 48.7802 48.4661 47.1726 46.5811 45.01C45.8902 44.2176 45.316 43.3333 44.6658 42.5081C44.7316 44.1877 44.7905 45.8671 44.8461 47.5467C43.1465 45.5458 41.6965 43.2977 40.8139 40.8046C40.3842 39.5907 40.1805 38.312 39.8854 37.0615C39.2469 38.6233 38.6312 40.1948 37.9968 41.7592C37.2688 39.2635 36.8827 36.6387 37.0719 34.0219C37.1681 32.6924 37.5162 31.3976 37.7598 30.0896C36.5503 31.271 35.3529 32.4642 34.1422 33.6438C34.4952 31.0541 35.2099 28.4833 36.4446 26.1554C37.0737 24.9694 37.9125 23.9152 38.6714 22.8122C37.0924 23.4035 35.5214 24.0191 33.9434 24.6112C35.7156 21.7227 38.0363 19.0801 40.9915 17.3604C41.4715 17.0811 41.9629 16.8154 42.4091 16.4821C40.7484 16.3821 39.0863 16.3104 37.425 16.2145C39.8527 14.5366 42.55 13.1746 45.4476 12.6045C46.4465 12.4308 47.4561 12.3243 48.4606 12.192C46.9686 11.4387 45.4942 10.6514 43.9963 9.91083C46.6038 9.39323 49.3044 9.23096 51.9183 9.6783C53.1881 9.89544 54.3955 10.3396 55.6298 10.6877C54.6121 9.37648 53.5696 8.08575 52.5446 6.78125ZM56.3121 38.9168C62.2654 38.2938 66.669 32.964 66.1482 27.0126C65.6274 21.0611 60.3791 16.7414 54.4258 17.3644C48.4725 17.9874 44.0689 23.3172 44.5897 29.2686C45.1105 35.2201 50.3588 39.5398 56.3121 38.9168Z" fill="#E31E34"/>
<path d="M52.5446 6.78125C55.0684 7.34541 57.5229 8.28772 59.6823 9.70816C60.7948 10.4401 61.7484 11.3719 62.7576 12.233C62.3658 10.6084 61.9347 8.99419 61.5506 7.36692C63.9342 9.197 66.1034 11.4066 67.4706 14.1132C67.8743 14.9122 68.2208 15.7402 68.587 16.5571C68.8873 14.8983 69.1744 13.238 69.4624 11.5774C70.7279 13.9026 71.6666 16.4375 72.0071 19.0859C72.169 20.3465 72.0848 21.6245 72.1327 22.893C73.0641 21.489 73.9981 20.0859 74.9337 18.6834C75.126 21.1819 74.9632 23.7309 74.3142 26.172C73.9442 27.5636 73.2935 28.8557 72.7466 30.1823C74.1677 29.2647 75.59 28.3488 77.0157 27.4385C75.8745 30.5811 74.1976 33.6241 71.6845 35.8925C71.2325 36.3007 70.786 36.7184 70.3447 37.1386C72.0092 36.8713 73.6755 36.6126 75.34 36.3441C73.0312 38.7737 70.2772 40.8943 67.0775 41.9606C66.4969 42.1542 65.9214 42.3632 65.3407 42.5595C66.9532 43.0033 68.5703 43.4316 70.1857 43.8652C67.867 44.8509 65.4065 45.5413 62.8977 45.7158C61.4596 45.8159 60.0326 45.6266 58.6039 45.5194C59.8852 46.5876 61.1806 47.6382 62.4688 48.6976C60.1898 48.6603 57.9126 48.3389 55.7456 47.6505C54.1592 47.1463 52.7331 46.2933 51.2885 45.4979C52.0225 46.9973 52.7651 48.4919 53.4983 49.9914C50.9108 48.7802 48.4661 47.1726 46.5811 45.01C45.8902 44.2176 45.316 43.3333 44.6658 42.5081C44.7316 44.1877 44.7905 45.8671 44.8461 47.5467C43.1465 45.5458 41.6965 43.2977 40.8139 40.8046C40.3842 39.5907 40.1805 38.312 39.8854 37.0615C39.2469 38.6233 38.6312 40.1948 37.9968 41.7592C37.2688 39.2635 36.8827 36.6387 37.0719 34.0219C37.1681 32.6924 37.5162 31.3976 37.7598 30.0896C36.5503 31.271 35.3529 32.4642 34.1422 33.6438C34.4952 31.0541 35.2099 28.4833 36.4446 26.1554C37.0737 24.9694 37.9125 23.9152 38.6714 22.8122C37.0924 23.4035 35.5214 24.0191 33.9434 24.6112C35.7156 21.7227 38.0363 19.0801 40.9915 17.3604C41.4715 17.0811 41.9629 16.8154 42.4091 16.4821C40.7484 16.3821 39.0863 16.3104 37.425 16.2145C39.8527 14.5366 42.55 13.1746 45.4476 12.6045C46.4465 12.4308 47.4561 12.3243 48.4606 12.192C46.9686 11.4387 45.4942 10.6514 43.9963 9.91083C46.6038 9.39323 49.3044 9.23096 51.9183 9.6783C53.1881 9.89544 54.3955 10.3396 55.6298 10.6877C54.6121 9.37648 53.5696 8.08575 52.5446 6.78125ZM56.3121 38.9168C62.2654 38.2938 66.669 32.964 66.1482 27.0126C65.6274 21.0611 60.3791 16.7414 54.4258 17.3644C48.4725 17.9874 44.0689 23.3172 44.5897 29.2686C45.1105 35.2201 50.3588 39.5398 56.3121 38.9168Z" stroke="#1B1918" stroke-width="0.276957"/>
<path fill-rule="evenodd" clip-rule="evenodd" d="M17.5125 23.0588C19.449 22.6899 21.4223 22.4827 23.3818 22.7668C24.2012 22.8857 25.0188 23.2293 25.6135 23.8158L25.5001 23.408L26.1815 23.2122C27.9659 22.6991 29.8228 22.3922 31.6782 22.5136L32.9497 22.5967L32.6488 23.0252C33.7857 23.2116 34.9442 23.2267 36.0891 23.1122C38.0898 22.912 40.0932 22.7412 42.0986 22.6002L43.7156 22.4864L43.1789 23.1632C44.5273 23.13 45.8753 23.0343 47.2241 23.0356L47.4066 23.0358L47.2955 22.8812L48.793 22.9712C50.8314 23.0936 52.8753 23.2691 54.9184 23.1937C55.4986 23.1723 56.0788 23.2061 56.6479 23.3312L58.1322 23.6573L56.7458 24.7624L56.6385 24.801C54.3831 25.6142 52.0845 26.628 50.293 28.3072C49.371 29.1712 48.5768 30.2986 48.317 31.579C48.2431 31.9442 48.5251 32.3566 48.7285 32.6289L49.627 33.831L48.1606 33.7986C45.8206 33.7469 43.449 33.3999 41.1128 33.6523L39.1559 33.8637L39.7248 33.2719C37.359 33.0225 34.8701 32.9472 32.5999 33.7804L32.5534 34.2333L31.7932 34.0641C31.5864 34.0181 31.3768 33.974 31.1652 33.934L31.1333 34.1796C31.0986 34.447 31.0036 34.6939 30.8547 34.9148C30.5818 35.3197 30.2326 35.5166 29.8577 35.7861C28.371 36.8545 26.4311 37.0053 24.7195 36.5139C23.0677 36.0396 21.6905 35.1077 20.3921 34.0416L20.7078 34.5981L19.2245 34.3365C17.6463 34.0581 16.0006 34.0266 14.4446 34.4573C12.5751 34.9747 10.8318 35.8265 8.87743 36.0118C6.99271 36.1905 5.10581 36.375 3.34206 35.4815C1.0636 34.327 0.17775 31.2528 1.15527 28.8953C1.75682 27.4446 2.8285 26.2369 4.09436 25.376C5.96829 24.1016 8.02708 23.0727 10.2437 22.6815C10.2328 22.6059 10.2216 22.5304 10.2104 22.4548L10.026 21.2121L11.1559 21.6685C13.0382 22.4286 15.1427 21.9296 16.9535 21.1892L18.4409 20.5811L17.8625 22.1266C17.7461 22.4374 17.6291 22.748 17.5125 23.0588ZM31.7442 27.2719C31.7922 27.7509 31.8478 28.229 31.9101 28.7063C32.0737 28.5088 32.2631 28.3297 32.4821 28.1742C33.1316 27.713 33.8036 27.2867 34.4745 26.8591C33.7097 26.9361 32.9478 27.0405 32.1924 27.1858L31.7442 27.2719ZM48.0201 23.89L47.7701 24.2143C47.665 24.3502 47.5433 24.469 47.4091 24.5727C47.2357 24.7063 47.0502 24.8076 46.858 24.9014C47.0425 25.2995 47.2549 25.6857 47.4728 26.0664C47.953 25.7524 48.4601 25.4151 48.8297 25.0059C48.6178 24.7131 48.4025 24.4225 48.1914 24.1288L48.0201 23.89ZM40.6363 32.3242C41.6008 31.3373 42.7844 30.3667 43.402 29.1034C43.5229 28.8565 43.5212 28.5839 43.3733 28.3498C43.3421 28.3001 43.3114 28.25 43.2806 28.1997L43.0186 29.0745C42.9996 29.1379 42.9786 29.2019 42.9616 29.2659L42.8884 29.5411L42.6538 29.6908C41.777 30.2505 40.6166 31.1394 40.6363 32.3242ZM43.0764 27.8486C42.9278 27.5841 42.7864 27.315 42.6433 27.047C42.4695 26.7213 42.2884 26.3853 42.0831 26.0674C42.0535 26.3624 42.0228 26.6568 41.9734 26.9445L41.8416 27.7151L41.1105 27.5204C40.9199 27.4696 40.7366 27.4001 40.5526 27.3288C40.3969 27.2683 40.2101 27.1905 40.0333 27.1553C39.125 27.5836 38.236 28.0596 37.3856 28.6011C37.0412 28.8203 36.6744 29.0711 36.3615 29.3709C37.2715 29.5283 38.2126 29.5484 39.0905 29.2689C40.1169 28.9422 41.1121 28.5168 42.1324 28.1698L43.0764 27.8486ZM10.3058 27.4642C9.84241 27.7894 9.40559 28.1478 9.05653 28.5754C8.65197 29.0711 8.3206 29.7824 8.53123 30.4389C8.71533 31.0125 9.19334 31.7155 9.84754 31.6755C11.2394 31.5907 12.4829 30.5734 13.5527 29.7406L14.6832 28.8606L14.6725 30.3263C14.67 30.659 14.6484 30.9885 14.6179 31.3167C15.1492 30.526 15.4967 29.5949 15.6457 28.6535C15.7026 28.2937 15.7634 27.8769 15.7601 27.4685C15.6409 27.6162 15.5038 27.749 15.3272 27.8624L15.199 27.9446L15.0495 27.9649C13.7133 28.1457 12.3707 28.282 11.0252 28.3619L10.0811 28.418L10.3055 27.4655L10.3058 27.4642Z" fill="#1B1918" stroke="#565757" stroke-width="0.146087"/>
<path fill-rule="evenodd" clip-rule="evenodd" d="M10.8993 22.3436C10.9464 22.6607 10.9916 22.9778 11.0332 23.2986C8.65368 23.5632 6.45135 24.6381 4.47545 25.9818C3.32739 26.7626 2.34328 27.8598 1.79543 29.181C0.971574 31.1678 1.6879 33.8364 3.64664 34.8287C5.27077 35.6516 7.09897 35.4508 8.81108 35.2885C10.6897 35.1104 12.4444 34.2584 14.2615 33.7554C15.9153 33.2978 17.6581 33.3239 19.3392 33.6204C18.9719 32.9731 18.4055 32.3351 18.5773 31.519C20.5009 33.1982 22.4063 35.0968 24.9036 35.8138C26.4262 36.251 28.1439 36.1324 29.4564 35.189C29.8541 34.9032 30.3649 34.6393 30.4372 34.0819C29.7803 34.0313 29.2828 34.541 28.6801 34.7331C27.107 35.2343 25.2636 34.8213 24.2087 33.4853C24.4548 33.3652 24.8081 33.3987 24.9814 33.1738C25.533 32.4582 26.4924 32.7404 27.247 32.6109L27.1891 33.384C28.7254 32.7892 30.3775 33.0068 31.9374 33.354C31.9518 33.2132 31.979 32.9299 31.9935 32.7892C32.0767 32.868 32.245 33.0275 32.3301 33.1081C34.7675 32.2037 37.4113 32.2901 39.9483 32.5659C39.7764 30.9579 41.1028 29.8264 42.2845 29.0721C42.2989 29.0177 42.3315 28.9127 42.3478 28.8582C41.3217 29.2072 40.3233 29.6336 39.2933 29.9615C37.9417 30.3917 36.4866 30.2055 35.1403 29.8358C35.5348 29.0103 36.2811 28.4505 37.0168 27.982C37.9461 27.3903 38.9223 26.8731 39.9176 26.4115C40.3935 26.4322 40.8242 26.6949 41.282 26.8168C41.4159 26.0344 41.4177 25.2294 41.6131 24.4583C42.7261 25.3439 43.2105 26.7688 43.9564 27.952C44.2427 28.4059 44.2572 28.9528 44.0235 29.4305C43.3322 30.8444 42.0945 31.8304 41.0377 32.9299C43.4173 32.6728 45.7949 33.02 48.173 33.0725C47.8235 32.6053 47.5047 32.0468 47.6299 31.4289C47.9209 29.9941 48.7869 28.7377 49.8213 27.7681C51.6875 26.0188 54.054 24.963 56.4065 24.1148L56.5005 24.04C56.0284 23.9364 55.5178 23.8966 54.9406 23.9179C52.874 23.9941 50.8112 23.8184 48.7502 23.6946C49.0668 24.1356 49.3923 24.5689 49.7038 25.0137C49.13 25.9612 48.1042 26.4622 47.2428 27.0832C46.7703 26.2633 46.2781 25.4489 45.9487 24.5539C46.3687 24.2875 46.9023 24.1731 47.2211 23.7602C45.3788 23.7584 43.5365 23.9366 41.6945 23.8916C41.8429 23.7021 41.9932 23.5126 42.1434 23.3231C40.1438 23.4638 38.1477 23.6339 36.1537 23.8334C34.8851 23.9604 33.6022 23.9347 32.3445 23.7077C32.5961 24.6553 32.1599 25.5465 32.0622 26.4716C33.7216 26.1526 35.4117 26.025 37.0965 25.9556C35.7356 26.9688 34.2552 27.7917 32.8747 28.7719C32.0962 29.3248 31.7999 30.288 31.6913 31.2112C31.5953 30.971 31.499 30.7287 31.4578 30.4719C31.1479 28.5409 30.9264 26.5926 30.8625 24.6328C30.843 24.0355 31.3312 23.6645 31.6316 23.2367C29.8528 23.1204 28.0758 23.4188 26.3657 23.9104C26.5177 24.4563 26.8232 25.0004 26.7095 25.5878C26.5933 26.1883 26.2855 26.7304 25.9658 27.2409C24.988 28.802 23.7817 30.1923 22.5493 31.5414C22.1748 31.1868 21.8255 30.8059 21.4944 30.4081C22.7177 29.6013 23.9812 28.7888 24.9289 27.6367C25.4725 26.9759 26.0004 26.0713 25.6636 25.1619C25.2869 24.1448 24.2465 23.6243 23.2822 23.4845C20.9849 23.1513 18.6552 23.5294 16.4023 24.0267C16.6646 23.3025 16.9379 22.5838 17.2075 21.8633C15.2206 22.6757 12.9623 23.1767 10.8993 22.3436ZM8.51983 28.1058C9.29532 27.1557 10.3837 26.5598 11.3879 25.9068C11.2775 26.4903 11.1184 27.0607 10.9826 27.6367C12.309 27.558 13.6391 27.4228 14.9564 27.2446C15.436 26.9369 15.559 26.2389 16.0585 25.9124C16.5941 26.7549 16.4831 27.8255 16.3336 28.7701C16.0541 30.5349 15.15 32.2469 13.7078 33.2695C13.7784 32.2844 13.963 31.3088 13.9702 30.3199C12.7578 31.2637 11.4557 32.3031 9.886 32.3989C8.90221 32.4589 8.16013 31.5878 7.86473 30.6671C7.56898 29.7453 7.95975 28.7921 8.51983 28.1058ZM19.2885 26.3646C19.7735 26.2164 20.258 26.013 20.7687 25.9969C21.0889 25.9867 21.2515 26.4271 21.0926 26.6967C20.609 27.5174 19.759 27.9839 18.9954 28.4755C19.113 27.7737 19.1817 27.0664 19.2885 26.3646ZM26.3693 30.41C26.9755 29.4305 27.3501 28.3178 27.9798 27.3572C27.8586 28.4004 27.7066 29.4437 27.4858 30.4719C27.113 30.4644 26.7403 30.4475 26.3693 30.41Z" fill="white"/>
<path fill-rule="evenodd" clip-rule="evenodd" d="M74.2145 35.1226L74.2184 34.9765L73.2985 34.9011C71.7523 34.7746 70.189 34.8145 68.6577 35.0825L67.6157 35.265L67.6875 34.9104C66.5074 35.2181 65.3094 35.4403 64.093 35.5447C62.5408 35.6779 60.9754 35.5819 59.4762 35.1223C58.2132 34.7349 57.1404 33.7068 56.682 32.425C55.9138 30.2779 56.5158 27.7669 57.9389 26.0639C59.5262 24.1645 61.8653 23.2772 64.1627 22.7209C64.8416 22.5566 65.5273 22.4588 66.2173 22.3893C66.1391 22.2274 66.0622 22.0647 65.9891 21.9L65.3671 20.4996L66.8125 20.8606C68.0643 21.1732 69.3597 21.323 70.6466 21.2264C71.7245 21.1455 72.7914 20.74 73.8347 20.4663L75.3446 20.0703L74.6584 21.5202C74.3453 22.1822 74.0206 22.8383 73.6869 23.4892L73.9996 23.4319C75.8436 23.0941 77.6505 22.6476 79.5385 22.7785L80.7147 22.8599L80.1964 23.757C80.472 23.7831 80.7459 23.8218 81.0202 23.8606C81.6175 23.9453 82.2489 24.0395 82.8484 23.9304C85.2294 23.4975 87.7728 23.2152 90.0988 23.9388L89.8821 23.3944L91.2797 23.769C93.1668 24.2748 95.1292 24.8173 97.0941 24.6768C98.7001 24.562 100.292 24.29 101.891 24.0981L104.239 23.8164L102.442 25.4087C102.245 25.5835 102.035 25.74 101.829 25.9025C101.559 26.1148 101.214 26.3887 101.11 26.7405C100.954 27.2635 101.3 28.0334 101.457 28.533L101.946 30.0884L100.492 29.4536C100.19 29.3218 99.8994 29.1663 99.6076 29.0124C99.1295 28.7604 98.5908 28.4741 98.0434 28.4503C97.694 28.435 97.347 28.6609 97.2112 28.9954C96.9258 29.6968 96.5519 30.452 96.4434 31.2097C96.3383 31.9442 97.021 32.6779 97.4859 33.1467C97.9828 33.6477 98.3224 33.9902 98.8492 34.5217L97.482 34.455L97.1723 34.8875C96.3263 36.0697 94.9784 36.5508 93.6543 36.885C91.0101 37.5524 88.1206 37.2258 85.7203 35.8763C85.088 35.5208 84.5048 35.0912 83.9605 34.6117L83.2555 34.6869C81.4842 34.8761 79.7042 34.9505 77.926 35.0304L77.2621 35.0602L77.1796 34.3763C77.1779 34.3624 77.1762 34.3483 77.1745 34.3343C76.5118 34.3552 75.8479 34.4533 75.2309 34.7063C74.8396 34.8664 74.5815 34.9723 74.2145 35.1226ZM73.3852 24.0711C72.9653 24.8725 72.5325 25.6664 72.0894 26.4541C72.0381 26.5451 71.9915 26.6379 71.9386 26.7279C71.7036 27.1253 71.3802 27.4126 70.9149 27.4579C69.7122 27.5749 68.512 27.7202 67.3153 27.8928L66.16 28.0594L66.533 26.9136C66.5352 26.9074 66.5373 26.9012 66.539 26.895C65.7101 27.2633 64.9287 27.762 64.369 28.4807C64.0473 28.8933 63.7128 29.5334 63.8717 30.0796C63.9648 30.3988 64.4045 30.5577 64.6856 30.6206C65.5465 30.8133 66.4775 30.619 67.3243 30.431C68.2783 30.219 69.1884 29.6065 70.0745 29.1928L71.2481 28.6449L71.1071 29.794C72.1586 28.6352 73.1058 27.3729 73.7249 25.9172C73.7591 25.8362 73.7676 25.7589 73.7616 25.671C73.7488 25.4778 73.6706 25.2536 73.6117 25.0703C73.5271 24.8057 73.4472 24.5459 73.4109 24.2683L73.3852 24.0711ZM90.203 34.1374L90.3551 33.6306C90.4213 33.4108 90.5098 33.2005 90.614 32.9974C90.7683 32.6958 90.9537 32.4179 91.1348 32.1337C91.2831 31.9008 91.4352 31.6541 91.5326 31.3929C91.8821 30.4556 92.291 29.5024 92.5469 28.5204C92.0427 28.6387 91.5245 28.891 91.0998 29.0539L90.4077 29.3197C89.416 30.1132 88.3483 30.8034 87.2187 31.3645C87.7886 32.2699 88.4607 33.1238 89.3511 33.6942C89.6237 33.8687 89.9091 34.0162 90.203 34.1374Z" fill="#1B1918" stroke="#565757" stroke-width="0.146087"/>
<path fill-rule="evenodd" clip-rule="evenodd" d="M70.6988 21.9724C69.3359 22.0746 67.9674 21.9183 66.6438 21.5877C66.8622 22.0787 67.1138 22.5542 67.3411 23.0452C66.329 23.1188 65.3215 23.2083 64.3264 23.4492C62.1817 23.9686 59.9574 24.7901 58.4838 26.5538C57.2371 28.0456 56.68 30.2713 57.358 32.1655C57.7391 33.2308 58.6398 34.0868 59.6805 34.4059C61.0866 34.8371 62.5568 34.927 64.0338 34.8003C65.6073 34.6652 67.1343 34.3286 68.6331 33.8666C68.6105 33.9864 68.5622 34.2262 68.5378 34.346C70.128 34.0676 71.7503 34.0251 73.3555 34.1566C73.2192 33.8897 73.085 33.6192 72.9564 33.3504C73.6332 33.2828 74.3117 33.2248 74.9923 33.1997C74.9829 33.4684 74.9735 33.739 74.9662 34.0116C75.872 33.6405 76.8491 33.5593 77.8147 33.5883C77.8407 33.8202 77.8668 34.0521 77.895 34.2841C79.6582 34.2049 81.4258 34.1314 83.1818 33.9439C82.6806 33.4878 81.9252 32.7261 82.5464 32.0341C83.5453 33.277 84.6831 34.4434 86.064 35.2198C88.304 36.479 91.0102 36.7836 93.484 36.1593C94.6252 35.8712 95.8646 35.4613 96.5935 34.4427C95.9394 34.4716 95.3464 34.7685 94.7311 34.9665C92.8367 35.5765 90.6877 35.4294 88.9723 34.3305C87.7358 33.5383 86.8958 32.297 86.1721 31.0327C87.9323 30.2692 89.5465 29.1808 90.9692 27.8664L90.8496 28.3535C91.6759 28.0364 92.5351 27.5744 93.443 27.7426C93.2435 29.1112 92.6829 30.3808 92.2052 31.6629C91.9113 32.4513 91.2862 33.045 91.0436 33.853C92.3971 34.1643 93.722 33.4228 95.0819 33.5283C95.7151 33.5775 96.3474 33.652 96.9832 33.683C96.3064 33.0006 95.5831 32.1299 95.7305 31.1004C95.8505 30.2619 96.2295 29.4854 96.5469 28.7053C96.7999 28.0838 97.4232 27.6756 98.0739 27.704C99.0639 27.7472 99.8859 28.3786 100.772 28.7652C100.546 28.0481 100.193 27.2893 100.421 26.521C100.655 25.7331 101.409 25.3417 101.974 24.8411C100.363 25.0344 98.7614 25.3073 97.1438 25.423C95.0849 25.5702 93.076 25.0227 91.0995 24.4932C91.1837 24.7038 91.3512 25.1213 91.4353 25.3302C88.8552 23.83 85.7628 24.1598 82.9733 24.6671C81.9445 24.8541 80.943 24.553 79.9287 24.4854C79.8971 25.2741 79.8287 26.0861 80.0274 26.8476C80.1201 27.2023 80.7024 26.9346 81.0084 27.0119C80.4546 28.3766 80.0035 29.7859 79.3827 31.1197C78.9836 29.1363 78.9144 27.1025 78.758 25.0865C78.7072 24.4346 79.2037 24.0214 79.4908 23.5246C77.6767 23.399 75.898 23.8436 74.1254 24.1684C74.2147 24.8526 74.6872 25.5074 74.3843 26.2193C73.3982 28.5382 71.6589 30.3619 69.9119 32.0708C70.0836 31.344 70.2793 30.619 70.3707 29.8748C69.4141 30.3213 68.5165 30.9311 67.4753 31.1623C66.5144 31.3756 65.5159 31.5716 64.5337 31.3517C63.9603 31.2234 63.3609 30.9102 63.1818 30.2962C62.9469 29.4893 63.3241 28.6323 63.8082 28.0113C64.7545 26.7975 66.2038 26.1439 67.6171 25.7051C67.5107 26.1962 67.371 26.6775 67.2163 27.153C68.4225 26.979 69.6341 26.8323 70.848 26.7142C71.1838 26.6815 71.3231 26.3339 71.4666 26.0782C72.3655 24.4793 73.2247 22.8538 74.0113 21.1914C72.9133 21.4795 71.8358 21.8871 70.6988 21.9724ZM84.3601 27.066C84.7814 26.7026 85.4714 26.6775 85.926 26.9983C85.559 28.1776 84.625 29.1286 83.4578 29.4321C83.7116 28.6261 84.0042 27.8297 84.3601 27.066ZM74.101 30.9902C74.6453 29.9425 75.1281 28.8599 75.7135 27.8353C75.6895 28.8618 75.4806 29.8767 75.2567 30.8742C74.9324 31.1081 74.474 30.9284 74.101 30.9902Z" fill="white"/>
</g>
<defs>
<clipPath id="clip0_537_1173">
<rect width="105" height="56" fill="white"/>
</clipPath>
</defs>
</svg>
