<svg width="78" height="72" viewBox="0 0 78 72" fill="none" xmlns="http://www.w3.org/2000/svg">
<path d="M3.7998 32.8C2.03249 32.8 0.599804 34.2327 0.599805 36C0.599805 37.7673 2.03249 39.2 3.79981 39.2L3.7998 32.8ZM74.1998 39.2C75.9671 39.2 77.3998 37.7673 77.3998 36C77.3998 34.2327 75.9671 32.8 74.1998 32.8L74.1998 39.2ZM50.8524 1.72719C49.5972 0.483096 47.5711 0.492135 46.327 1.74738C45.0829 3.00262 45.0919 5.02873 46.3472 6.27281L50.8524 1.72719ZM59.8828 15.1828L62.1354 12.91L62.1354 12.91L59.8828 15.1828ZM59.8828 56.8172L62.1354 59.09L62.1354 59.09L59.8828 56.8172ZM46.3472 65.7272C45.0919 66.9713 45.0829 68.9974 46.327 70.2526C47.5711 71.5079 49.5972 71.5169 50.8524 70.2728L46.3472 65.7272ZM74.0725 33.9947L77.2468 33.5901L77.2468 33.5901L74.0725 33.9947ZM74.0725 38.0053L77.2468 38.4099L77.2468 38.4099L74.0725 38.0053ZM3.79981 39.2L74.1998 39.2L74.1998 32.8L3.7998 32.8L3.79981 39.2ZM46.3472 6.27281L57.6302 17.4556L62.1354 12.91L50.8524 1.72719L46.3472 6.27281ZM57.6302 54.5444L46.3472 65.7272L50.8524 70.2728L62.1354 59.09L57.6302 54.5444ZM57.6302 17.4556C62.1826 21.9676 65.4015 25.1646 67.5971 27.8986C69.7522 30.5822 70.6571 32.5075 70.8982 34.3993L77.2468 33.5901C76.7952 30.047 75.1042 27.0254 72.5871 23.8912C70.1106 20.8075 66.581 17.316 62.1354 12.91L57.6302 17.4556ZM62.1354 59.09C66.581 54.684 70.1106 51.1925 72.5871 48.1088C75.1042 44.9746 76.7952 41.953 77.2468 38.4099L70.8982 37.6007C70.6571 39.4925 69.7522 41.4178 67.5971 44.1013C65.4015 46.8354 62.1826 50.0324 57.6302 54.5444L62.1354 59.09ZM70.8982 34.3993C71.0337 35.4622 71.0337 36.5378 70.8982 37.6007L77.2468 38.4099C77.4508 36.8097 77.4508 35.1903 77.2468 33.5901L70.8982 34.3993Z" fill="white"/>
</svg>
