<svg width="78" height="72" viewBox="0 0 78 72" fill="none" xmlns="http://www.w3.org/2000/svg">
<path d="M74.2002 32.8C75.9675 32.8 77.4002 34.2327 77.4002 36C77.4002 37.7673 75.9675 39.2 74.2002 39.2L74.2002 32.8ZM3.80019 39.2C2.03288 39.2 0.600193 37.7673 0.600194 36C0.600194 34.2327 2.03288 32.8 3.80019 32.8L3.80019 39.2ZM27.1476 1.72719C28.4028 0.483096 30.4289 0.492135 31.673 1.74738C32.9171 3.00262 32.9081 5.02873 31.6528 6.27281L27.1476 1.72719ZM18.1172 15.1828L15.8646 12.91L15.8646 12.91L18.1172 15.1828ZM18.1172 56.8172L15.8646 59.09L15.8646 59.09L18.1172 56.8172ZM31.6528 65.7272C32.9081 66.9713 32.9171 68.9974 31.673 70.2526C30.4289 71.5079 28.4028 71.5169 27.1476 70.2728L31.6528 65.7272ZM3.92749 33.9947L0.753172 33.5901L0.753172 33.5901L3.92749 33.9947ZM3.92749 38.0053L0.753172 38.4099L0.753172 38.4099L3.92749 38.0053ZM74.2002 39.2L3.80019 39.2L3.80019 32.8L74.2002 32.8L74.2002 39.2ZM31.6528 6.27281L20.3698 17.4556L15.8646 12.91L27.1476 1.72719L31.6528 6.27281ZM20.3698 54.5444L31.6528 65.7272L27.1476 70.2728L15.8646 59.09L20.3698 54.5444ZM20.3698 17.4556C15.8174 21.9676 12.5985 25.1646 10.4029 27.8986C8.24777 30.5822 7.34293 32.5075 7.10181 34.3993L0.753172 33.5901C1.20478 30.047 2.8958 27.0254 5.41286 23.8912C7.88937 20.8075 11.419 17.316 15.8646 12.91L20.3698 17.4556ZM15.8646 59.09C11.419 54.684 7.88937 51.1925 5.41286 48.1088C2.8958 44.9746 1.20478 41.953 0.753172 38.4099L7.10181 37.6007C7.34293 39.4925 8.24777 41.4178 10.4029 44.1013C12.5985 46.8354 15.8174 50.0324 20.3698 54.5444L15.8646 59.09ZM7.10181 34.3993C6.96632 35.4622 6.96632 36.5378 7.10181 37.6007L0.753172 38.4099C0.549203 36.8097 0.549203 35.1903 0.753172 33.5901L7.10181 34.3993Z" fill="white"/>
</svg>
