<svg width="80" height="80" viewBox="0 0 80 80" fill="none" xmlns="http://www.w3.org/2000/svg">
<rect width="80" height="80" fill="white"/>
<path d="M20.286 71.8858L19.4899 73.7205L20.286 71.8858ZM11.2661 62.4363L9.40617 63.1717H9.40617L11.2661 62.4363ZM68.7287 62.4363L70.5886 63.1717L68.7287 62.4363ZM59.7088 71.8858L60.5049 73.7205L59.7088 71.8858ZM9.9974 38.2149L11.9895 38.3919L12.0874 37.2903L11.2064 36.6217L9.9974 38.2149ZM64.9974 23.2149V21.2149H64.9974L64.9974 23.2149ZM42.5566 19.5118L43.9708 20.9261L42.5566 19.5118ZM49.6277 12.4408L51.0419 13.855L49.6277 12.4408ZM61.4128 12.4408L59.9986 13.855L59.9986 13.855L61.4128 12.4408ZM62.2757 23.2148L62.2758 25.2148L63.2965 25.2148L63.8953 24.3882L62.2757 23.2148ZM37.9611 19.5119L36.5469 20.9261V20.9261L37.9611 19.5119ZM30.89 12.4408L29.4758 13.855L30.89 12.4408ZM19.1049 12.4408L20.5191 13.855L19.1049 12.4408ZM39.9974 69.8815H41.9974H39.9974ZM9.88914 38.1328L8.66211 39.7121H8.66211L9.88914 38.1328ZM69.782 38.3719L68.6324 36.7354L69.782 38.3719ZM34.9974 71.2148C31.0859 71.2148 28.2572 71.2137 26.0207 71.0538C23.8041 70.8954 22.3204 70.5884 21.0822 70.051L19.4899 73.7205C21.3145 74.5122 23.3036 74.8698 25.7355 75.0436C28.1476 75.216 31.1432 75.2148 34.9974 75.2148V71.2148ZM7.9975 47.0244C7.9975 51.066 7.99649 54.1929 8.16026 56.7079C8.32509 59.2391 8.66295 61.2919 9.40617 63.1717L13.126 61.7009C12.6005 60.372 12.3041 58.7866 12.1518 56.448C11.9985 54.0931 11.9975 51.1183 11.9975 47.0244H7.9975ZM21.0822 70.051C17.5025 68.4977 14.6299 65.5047 13.126 61.7009L9.40617 63.1717C11.2854 67.9245 14.9019 71.7296 19.4899 73.7205L21.0822 70.051ZM67.9974 47.0244C67.9974 51.1182 67.9964 54.093 67.843 56.4479C67.6907 58.7865 67.3943 60.3719 66.8688 61.7009L70.5886 63.1717C71.3318 61.292 71.6697 59.2392 71.8346 56.7079C71.9984 54.1928 71.9974 51.066 71.9974 47.0244H67.9974ZM44.9974 75.2148C48.8516 75.2148 51.8471 75.216 54.2593 75.0436C56.6912 74.8698 58.6803 74.5122 60.5049 73.7205L58.9126 70.051C57.6744 70.5884 56.1906 70.8954 53.9741 71.0538C51.7376 71.2137 48.9089 71.2148 44.9974 71.2148V75.2148ZM66.8688 61.7009C65.3649 65.5047 62.4923 68.4977 58.9126 70.051L60.5049 73.7205C65.0929 71.7296 68.7094 67.9245 70.5886 63.1717L66.8688 61.7009ZM11.9975 47.0244C11.9975 42.1761 11.7696 40.8673 11.9895 38.3919L8.00524 38.0379C7.76694 40.7199 7.9975 42.6757 7.9975 47.0244H11.9975ZM64.9974 25.2149C68.4952 25.2149 71.3307 28.0504 71.3307 31.5482H75.3307C75.3307 25.8413 70.7043 21.2149 64.9974 21.2149V25.2149ZM14.9974 21.2149C9.29045 21.2149 4.66406 25.8413 4.66406 31.5482H8.66406C8.66406 28.0504 11.4996 25.2149 14.9974 25.2149V21.2149ZM43.9708 20.9261L51.0419 13.855L48.2135 11.0266L41.1424 18.0976L43.9708 20.9261ZM51.0419 13.855C53.5152 11.3817 57.5253 11.3817 59.9986 13.855L62.827 11.0266C58.7916 6.99115 52.2489 6.99115 48.2135 11.0266L51.0419 13.855ZM41.1424 18.0976C40.0933 19.1468 38.59 20.7639 38.0672 22.6913L41.9276 23.7385C42.1407 22.9532 42.8899 22.0069 43.9708 20.9261L41.1424 18.0976ZM59.9986 13.855C62.2282 16.0846 62.4489 19.5668 60.6561 22.0415L63.8953 24.3882C66.823 20.347 66.4684 14.6679 62.827 11.0266L59.9986 13.855ZM39.3753 18.0977L32.3042 11.0266L29.4758 13.855L36.5469 20.9261L39.3753 18.0977ZM32.3042 11.0266C28.2688 6.99119 21.7261 6.99119 17.6907 11.0266L20.5191 13.855C22.9924 11.3817 27.0025 11.3817 29.4758 13.855L32.3042 11.0266ZM36.5469 20.9261C37.2961 21.6753 37.7611 22.6102 38.0672 23.7385L41.9276 22.6913C41.4978 21.1069 40.7561 19.4785 39.3753 18.0977L36.5469 20.9261ZM17.6907 11.0266C14.0493 14.668 13.6947 20.3471 16.6224 24.3882L19.8616 22.0415C18.0688 19.5668 18.2895 16.0847 20.5191 13.855L17.6907 11.0266ZM37.9974 23.2149L37.9974 69.8815H41.9974L41.9974 23.2149H37.9974ZM18.242 25.2149L39.9974 25.2149L39.9974 21.2149L18.242 21.2149L18.242 25.2149ZM14.9974 37.8815C13.5323 37.8815 12.1885 37.3865 11.1162 36.5534L8.66211 39.7121C10.4114 41.0712 12.6126 41.8815 14.9974 41.8815V37.8815ZM11.1162 36.5534C9.62046 35.3914 8.66406 33.582 8.66406 31.5482H4.66406C4.66406 34.8693 6.23306 37.825 8.66211 39.7121L11.1162 36.5534ZM11.2064 36.6217L11.0981 36.5395L8.68016 39.726L8.78841 39.8081L11.2064 36.6217ZM44.9974 71.2148H39.9974V75.2148H44.9974V71.2148ZM39.9974 71.2148H34.9974V75.2148H39.9974V71.2148ZM37.9974 69.8815L37.9974 73.2148L41.9974 73.2148L41.9974 69.8815L37.9974 69.8815ZM64.9974 37.8815H39.9974V41.8815H64.9974V37.8815ZM39.9974 37.8815H14.9974V41.8815H39.9974V37.8815ZM71.3307 31.5482C71.3307 33.6912 70.2683 35.5862 68.6324 36.7354L70.9317 40.0085C73.588 38.1425 75.3307 35.049 75.3307 31.5482H71.3307ZM68.6324 36.7354C67.604 37.4578 66.3532 37.8815 64.9974 37.8815V41.8815C67.2026 41.8815 69.2519 41.1885 70.9317 40.0085L68.6324 36.7354ZM71.9974 47.0244C71.9974 42.5371 71.9987 40.7905 71.7746 38.1996L67.7895 38.5443C67.9961 40.9327 67.9974 42.5027 67.9974 47.0244H71.9974ZM39.9974 25.2149L61.4128 25.2149L61.4128 21.2149L39.9974 21.2149L39.9974 25.2149ZM61.4129 25.2149L62.2758 25.2148L62.2756 21.2148L61.4127 21.2149L61.4129 25.2149ZM61.4128 25.2149L64.9974 25.2149L64.9974 21.2149L61.4128 21.2149L61.4128 25.2149ZM18.242 21.2149H14.9974V25.2149H18.242V21.2149ZM14.9974 25.2149L27.4974 25.2149L27.4974 21.2149L14.9974 21.2149L14.9974 25.2149ZM27.4974 25.2149L39.9974 25.2149L39.9974 21.2149L27.4974 21.2149L27.4974 25.2149ZM18.242 25.2149L27.4974 25.2149L27.4974 21.2149L18.242 21.2149L18.242 25.2149ZM39.9974 25.2149L62.2757 25.2148L62.2757 21.2148L39.9974 21.2149L39.9974 25.2149Z" fill="#E31E34"/>
</svg>
