<svg width="1312" height="79" viewBox="0 0 1312 79" fill="none" xmlns="http://www.w3.org/2000/svg">
<path d="M812.659 28.9338C816.742 32.8227 822.215 35 827.917 35H843L814.665 7.30067C809.885 2.62794 803.401 0 796.638 0H782.291L812.659 28.9338ZM743.176 0H757.524C764.287 0 770.771 2.62416 775.551 7.30067L803.885 35H788.802C783.1 35 777.627 32.8227 773.544 28.9338L743.176 0ZM704.062 0H718.409C725.172 0 731.656 2.62416 736.436 7.30067L764.771 35H749.688C743.986 35 738.512 32.8227 734.43 28.9338L704.062 0ZM664.947 0H679.295C686.058 0 692.542 2.62416 697.322 7.30067L725.656 35H710.573C704.871 35 699.398 32.8227 695.315 28.9338L664.947 0ZM625.833 0H640.18C646.939 0 653.427 2.62416 658.207 7.30067L686.542 35H671.458C665.757 35 660.283 32.8227 656.201 28.9338L625.833 0ZM586.718 0H601.065C607.825 0 614.309 2.62416 619.093 7.30067L647.427 35H632.344C626.642 35 621.169 32.8227 617.086 28.9338L586.718 0ZM547.604 0H561.951C568.714 0 575.198 2.62416 579.978 7.30067L608.313 35H593.229C587.528 35 582.054 32.8227 577.972 28.9338L547.604 0ZM508.489 0H522.836C529.6 0 536.084 2.62416 540.864 7.30067L569.198 35H554.115C548.413 35 542.94 32.8227 538.857 28.9338L508.489 0ZM469.374 0H483.722C490.485 0 496.969 2.62416 501.749 7.30067L530.084 35H515C509.299 35 503.825 32.8227 499.743 28.9338L469.374 0ZM430.26 0H444.607C451.367 0 457.855 2.62416 462.635 7.30067L490.969 35H475.886C470.184 35 464.711 32.8227 460.628 28.9338L430.26 0ZM391.145 0H405.493C412.252 0 418.736 2.62416 423.52 7.30067L451.855 35H436.771C431.069 35 425.596 32.8227 421.514 28.9338L391.145 0ZM352.031 0H366.378C373.141 0 379.626 2.62416 384.405 7.30067L412.74 35H397.657C391.955 35 386.482 32.8227 382.399 28.9338L352.031 0ZM312.916 0H327.264C334.027 0 340.511 2.62416 345.291 7.30067L373.626 35H358.542C352.84 35 347.367 32.8227 343.285 28.9338L312.916 0ZM273.802 0H288.149C294.912 0 301.397 2.62416 306.176 7.30067L334.511 35H319.428C313.726 35 308.253 32.8227 304.17 28.9338L273.802 0ZM234.687 0H249.035C255.794 0 262.282 2.62416 267.062 7.30067L295.396 35H280.313C274.611 35 269.138 32.8227 265.055 28.9338L234.687 0ZM195.573 0H209.92C216.679 0 223.164 2.62416 227.947 7.30067L256.282 35H241.199C235.497 35 230.024 32.8227 225.941 28.9338L195.573 0ZM156.458 0H170.806C177.569 0 184.053 2.62416 188.833 7.30067L217.167 35H202.084C196.382 35 190.909 32.8227 186.826 28.9338L156.458 0ZM117.344 0H131.691C138.454 0 144.938 2.62416 149.718 7.30067L178.053 35H162.969C157.268 35 151.794 32.8227 147.712 28.9338L117.344 0ZM78.2291 0H92.5765C99.3397 0 105.824 2.62416 110.604 7.30067L138.938 35H123.855C118.153 35 112.68 32.8227 108.597 28.9338L78.2291 0ZM39.1145 0H53.462C60.2251 0 66.7094 2.62416 71.4893 7.30067L99.8238 35H84.7405C79.0387 35 73.5654 32.8227 69.4827 28.9338L39.1145 0ZM0 0H14.3474C21.1067 0 27.5948 2.62416 32.3747 7.30067L60.7093 35H45.6259C39.9241 35 34.4508 32.8227 30.3682 28.9338L0 0Z" fill="url(#paint0_linear_1223_4845)"/>
<path d="M812.659 49.0662C816.742 45.1773 822.215 43 827.917 43H843L814.665 70.6993C809.885 75.3721 803.401 78 796.638 78H782.291L812.659 49.0662ZM743.176 78H757.524C764.287 78 770.771 75.3758 775.551 70.6993L803.885 43H788.802C783.1 43 777.627 45.1773 773.544 49.0662L743.176 78ZM704.062 78H718.409C725.172 78 731.656 75.3758 736.436 70.6993L764.771 43H749.688C743.986 43 738.512 45.1773 734.43 49.0662L704.062 78ZM664.947 78H679.295C686.058 78 692.542 75.3758 697.322 70.6993L725.656 43H710.573C704.871 43 699.398 45.1773 695.315 49.0662L664.947 78ZM625.833 78H640.18C646.939 78 653.427 75.3758 658.207 70.6993L686.542 43H671.458C665.757 43 660.283 45.1773 656.201 49.0662L625.833 78ZM586.718 78H601.065C607.825 78 614.309 75.3758 619.093 70.6993L647.427 43H632.344C626.642 43 621.169 45.1773 617.086 49.0662L586.718 78ZM547.604 78H561.951C568.714 78 575.198 75.3758 579.978 70.6993L608.313 43H593.229C587.528 43 582.054 45.1773 577.972 49.0662L547.604 78ZM508.489 78H522.836C529.6 78 536.084 75.3758 540.864 70.6993L569.198 43H554.115C548.413 43 542.94 45.1773 538.857 49.0662L508.489 78ZM469.374 78H483.722C490.485 78 496.969 75.3758 501.749 70.6993L530.084 43H515C509.299 43 503.825 45.1773 499.743 49.0662L469.374 78ZM430.26 78H444.607C451.367 78 457.855 75.3758 462.635 70.6993L490.969 43H475.886C470.184 43 464.711 45.1773 460.628 49.0662L430.26 78ZM391.145 78H405.493C412.252 78 418.736 75.3758 423.52 70.6993L451.855 43H436.771C431.069 43 425.596 45.1773 421.514 49.0662L391.145 78ZM352.031 78H366.378C373.141 78 379.626 75.3758 384.405 70.6993L412.74 43H397.657C391.955 43 386.482 45.1773 382.399 49.0662L352.031 78ZM312.916 78H327.264C334.027 78 340.511 75.3758 345.291 70.6993L373.626 43H358.542C352.84 43 347.367 45.1773 343.285 49.0662L312.916 78ZM273.802 78H288.149C294.912 78 301.397 75.3758 306.176 70.6993L334.511 43H319.428C313.726 43 308.253 45.1773 304.17 49.0662L273.802 78ZM234.687 78H249.035C255.794 78 262.282 75.3758 267.062 70.6993L295.396 43H280.313C274.611 43 269.138 45.1773 265.055 49.0662L234.687 78ZM195.573 78H209.92C216.679 78 223.164 75.3758 227.947 70.6993L256.282 43H241.199C235.497 43 230.024 45.1773 225.941 49.0662L195.573 78ZM156.458 78H170.806C177.569 78 184.053 75.3758 188.833 70.6993L217.167 43H202.084C196.382 43 190.909 45.1773 186.826 49.0662L156.458 78ZM117.344 78H131.691C138.454 78 144.938 75.3758 149.718 70.6993L178.053 43H162.969C157.268 43 151.794 45.1773 147.712 49.0662L117.344 78ZM78.2291 78H92.5765C99.3397 78 105.824 75.3758 110.604 70.6993L138.938 43H123.855C118.153 43 112.68 45.1773 108.597 49.0662L78.2291 78ZM39.1145 78H53.462C60.2251 78 66.7094 75.3758 71.4893 70.6993L99.8238 43H84.7405C79.0387 43 73.5654 45.1773 69.4827 49.0662L39.1145 78ZM0 78H14.3474C21.1067 78 27.5948 75.3758 32.3747 70.6993L60.7093 43H45.6259C39.9241 43 34.4508 45.1773 30.3682 49.0662L0 78Z" fill="url(#paint1_linear_1223_4845)"/>
<path d="M1281.66 29.9338C1285.74 33.8227 1291.21 36 1296.92 36H1312L1283.67 8.30067C1278.89 3.62794 1272.4 1 1265.64 1H1251.29L1281.66 29.9338ZM1212.18 1H1226.52C1233.29 1 1239.77 3.62416 1244.55 8.30067L1272.89 36H1257.8C1252.1 36 1246.63 33.8227 1242.54 29.9338L1212.18 1ZM1173.06 1H1187.41C1194.17 1 1200.66 3.62416 1205.44 8.30067L1233.77 36H1218.69C1212.99 36 1207.51 33.8227 1203.43 29.9338L1173.06 1ZM1133.95 1H1148.29C1155.06 1 1161.54 3.62416 1166.32 8.30067L1194.66 36H1179.57C1173.87 36 1168.4 33.8227 1164.32 29.9338L1133.95 1ZM1094.83 1H1109.18C1115.94 1 1122.43 3.62416 1127.21 8.30067L1155.54 36H1140.46C1134.76 36 1129.28 33.8227 1125.2 29.9338L1094.83 1ZM1055.72 1H1070.07C1076.82 1 1083.31 3.62416 1088.09 8.30067L1116.43 36H1101.34C1095.64 36 1090.17 33.8227 1086.09 29.9338L1055.72 1ZM1016.6 1H1030.95C1037.71 1 1044.2 3.62416 1048.98 8.30067L1077.31 36H1062.23C1056.53 36 1051.05 33.8227 1046.97 29.9338L1016.6 1ZM977.489 1H991.836C998.6 1 1005.08 3.62416 1009.86 8.30067L1038.2 36H1023.11C1017.41 36 1011.94 33.8227 1007.86 29.9338L977.489 1ZM938.374 1H952.722C959.485 1 965.969 3.62416 970.749 8.30067L999.084 36H984C978.299 36 972.825 33.8227 968.743 29.9338L938.374 1ZM899.26 1H913.607C920.367 1 926.855 3.62416 931.635 8.30067L959.969 36H944.886C939.184 36 933.711 33.8227 929.628 29.9338L899.26 1ZM860.145 1H874.493C881.252 1 887.736 3.62416 892.52 8.30067L920.855 36H905.771C900.069 36 894.596 33.8227 890.514 29.9338L860.145 1ZM821.031 1H835.378C842.141 1 848.626 3.62416 853.405 8.30067L881.74 36H866.657C860.955 36 855.482 33.8227 851.399 29.9338L821.031 1ZM781.916 1H796.264C803.027 1 809.511 3.62416 814.291 8.30067L842.626 36H827.542C821.84 36 816.367 33.8227 812.285 29.9338L781.916 1ZM742.802 1H757.149C763.912 1 770.397 3.62416 775.176 8.30067L803.511 36H788.428C782.726 36 777.253 33.8227 773.17 29.9338L742.802 1ZM703.687 1H718.035C724.794 1 731.282 3.62416 736.062 8.30067L764.396 36H749.313C743.611 36 738.138 33.8227 734.055 29.9338L703.687 1ZM664.573 1H678.92C685.679 1 692.164 3.62416 696.947 8.30067L725.282 36H710.199C704.497 36 699.024 33.8227 694.941 29.9338L664.573 1ZM625.458 1H639.806C646.569 1 653.053 3.62416 657.833 8.30067L686.167 36H671.084C665.382 36 659.909 33.8227 655.826 29.9338L625.458 1ZM586.344 1H600.691C607.454 1 613.938 3.62416 618.718 8.30067L647.053 36H631.969C626.268 36 620.794 33.8227 616.712 29.9338L586.344 1ZM547.229 1H561.577C568.34 1 574.824 3.62416 579.604 8.30067L607.938 36H592.855C587.153 36 581.68 33.8227 577.597 29.9338L547.229 1ZM508.115 1H522.462C529.225 1 535.709 3.62416 540.489 8.30067L568.824 36H553.74C548.039 36 542.565 33.8227 538.483 29.9338L508.115 1ZM469 1H483.347C490.107 1 496.595 3.62416 501.375 8.30067L529.709 36H514.626C508.924 36 503.451 33.8227 499.368 29.9338L469 1Z" fill="url(#paint2_linear_1223_4845)"/>
<path d="M1281.66 50.0662C1285.74 46.1773 1291.21 44 1296.92 44H1312L1283.67 71.6993C1278.89 76.3721 1272.4 79 1265.64 79H1251.29L1281.66 50.0662ZM1212.18 79H1226.52C1233.29 79 1239.77 76.3758 1244.55 71.6993L1272.89 44H1257.8C1252.1 44 1246.63 46.1773 1242.54 50.0662L1212.18 79ZM1173.06 79H1187.41C1194.17 79 1200.66 76.3758 1205.44 71.6993L1233.77 44H1218.69C1212.99 44 1207.51 46.1773 1203.43 50.0662L1173.06 79ZM1133.95 79H1148.29C1155.06 79 1161.54 76.3758 1166.32 71.6993L1194.66 44H1179.57C1173.87 44 1168.4 46.1773 1164.32 50.0662L1133.95 79ZM1094.83 79H1109.18C1115.94 79 1122.43 76.3758 1127.21 71.6993L1155.54 44H1140.46C1134.76 44 1129.28 46.1773 1125.2 50.0662L1094.83 79ZM1055.72 79H1070.07C1076.82 79 1083.31 76.3758 1088.09 71.6993L1116.43 44H1101.34C1095.64 44 1090.17 46.1773 1086.09 50.0662L1055.72 79ZM1016.6 79H1030.95C1037.71 79 1044.2 76.3758 1048.98 71.6993L1077.31 44H1062.23C1056.53 44 1051.05 46.1773 1046.97 50.0662L1016.6 79ZM977.489 79H991.836C998.6 79 1005.08 76.3758 1009.86 71.6993L1038.2 44H1023.11C1017.41 44 1011.94 46.1773 1007.86 50.0662L977.489 79ZM938.374 79H952.722C959.485 79 965.969 76.3758 970.749 71.6993L999.084 44H984C978.299 44 972.825 46.1773 968.743 50.0662L938.374 79ZM899.26 79H913.607C920.367 79 926.855 76.3758 931.635 71.6993L959.969 44H944.886C939.184 44 933.711 46.1773 929.628 50.0662L899.26 79ZM860.145 79H874.493C881.252 79 887.736 76.3758 892.52 71.6993L920.855 44H905.771C900.069 44 894.596 46.1773 890.514 50.0662L860.145 79ZM821.031 79H835.378C842.141 79 848.626 76.3758 853.405 71.6993L881.74 44H866.657C860.955 44 855.482 46.1773 851.399 50.0662L821.031 79ZM781.916 79H796.264C803.027 79 809.511 76.3758 814.291 71.6993L842.626 44H827.542C821.84 44 816.367 46.1773 812.285 50.0662L781.916 79ZM742.802 79H757.149C763.912 79 770.397 76.3758 775.176 71.6993L803.511 44H788.428C782.726 44 777.253 46.1773 773.17 50.0662L742.802 79ZM703.687 79H718.035C724.794 79 731.282 76.3758 736.062 71.6993L764.396 44H749.313C743.611 44 738.138 46.1773 734.055 50.0662L703.687 79ZM664.573 79H678.92C685.679 79 692.164 76.3758 696.947 71.6993L725.282 44H710.199C704.497 44 699.024 46.1773 694.941 50.0662L664.573 79ZM625.458 79H639.806C646.569 79 653.053 76.3758 657.833 71.6993L686.167 44H671.084C665.382 44 659.909 46.1773 655.826 50.0662L625.458 79ZM586.344 79H600.691C607.454 79 613.938 76.3758 618.718 71.6993L647.053 44H631.969C626.268 44 620.794 46.1773 616.712 50.0662L586.344 79ZM547.229 79H561.577C568.34 79 574.824 76.3758 579.604 71.6993L607.938 44H592.855C587.153 44 581.68 46.1773 577.597 50.0662L547.229 79ZM508.115 79H522.462C529.225 79 535.709 76.3758 540.489 71.6993L568.824 44H553.74C548.039 44 542.565 46.1773 538.483 50.0662L508.115 79ZM469 79H483.347C490.107 79 496.595 76.3758 501.375 71.6993L529.709 44H514.626C508.924 44 503.451 46.1773 499.368 50.0662L469 79Z" fill="url(#paint3_linear_1223_4845)"/>
<defs>
<linearGradient id="paint0_linear_1223_4845" x1="489" y1="78.0002" x2="5.82933e-05" y2="78.0002" gradientUnits="userSpaceOnUse">
<stop stop-color="#03052C"/>
<stop offset="1" stop-color="#03052C" stop-opacity="0.3"/>
</linearGradient>
<linearGradient id="paint1_linear_1223_4845" x1="489" y1="78.0002" x2="5.82933e-05" y2="78.0002" gradientUnits="userSpaceOnUse">
<stop stop-color="#03052C"/>
<stop offset="1" stop-color="#03052C" stop-opacity="0.3"/>
</linearGradient>
<linearGradient id="paint2_linear_1223_4845" x1="958" y1="79.0002" x2="469" y2="79.0002" gradientUnits="userSpaceOnUse">
<stop stop-color="#03052C"/>
<stop offset="1" stop-color="#03052C" stop-opacity="0.3"/>
</linearGradient>
<linearGradient id="paint3_linear_1223_4845" x1="958" y1="79.0002" x2="469" y2="79.0002" gradientUnits="userSpaceOnUse">
<stop stop-color="#03052C"/>
<stop offset="1" stop-color="#03052C" stop-opacity="0.3"/>
</linearGradient>
</defs>
</svg>
