<svg width="80" height="80" viewBox="0 0 80 80" fill="none" xmlns="http://www.w3.org/2000/svg">
<rect width="80" height="80" fill="white"/>
<path d="M35.636 19.9445L33.7282 19.3444L35.636 19.9445ZM28.5707 31.8015L29.7712 30.2019L28.5707 31.8015ZM30.2386 37.1041L32.1464 37.7042L30.2386 37.1041ZM37.3039 42.4067L36.1034 40.8071L37.3039 42.4067ZM42.7013 42.4067L43.9018 40.8071L42.7013 42.4067ZM49.7666 37.1041L47.8588 37.7042L49.7666 37.1041ZM51.4345 31.8015L50.234 30.2019L51.4345 31.8015ZM44.3692 19.9445L46.2771 19.3444L44.3692 19.9445ZM50.5695 72.1485L49.289 73.6849V73.6849L50.5695 72.1485ZM47.4402 69.5403L48.7208 68.0039H48.7208L47.4402 69.5403ZM32.565 69.5403L31.2845 68.0039H31.2845L32.565 69.5403ZM29.4357 72.1485L30.7162 73.6849L30.7162 73.6849L29.4357 72.1485ZM60.0014 47.7091L58.0017 47.6752L58.0014 47.6943L58.0014 47.7134L60.0014 47.7091ZM60.0026 47.6395L58.5031 46.316L60.0026 47.6395ZM20.0039 47.641L21.5033 46.3174L20.0039 47.641ZM31.2694 25.2217C34.1673 25.2217 36.6779 23.2976 37.5439 20.5446L33.7282 19.3444C33.3648 20.4997 32.3496 21.2217 31.2694 21.2217V25.2217ZM29.7712 30.2019C27.5938 28.5677 28.8877 25.2217 31.2694 25.2217V21.2217C24.7557 21.2217 22.351 29.6341 27.3702 33.4011L29.7712 30.2019ZM32.1464 37.7042C33.0093 34.9609 32.0753 31.9311 29.7712 30.2019L27.3702 33.4011C28.2845 34.0873 28.6972 35.3389 28.3307 36.504L32.1464 37.7042ZM36.1034 40.8071C35.0967 41.5626 33.9685 41.4537 33.107 40.8071C32.2361 40.1534 31.7358 39.0096 32.1464 37.7042L28.3307 36.504C27.3669 39.5681 28.6002 42.4259 30.706 44.0063C32.8211 45.5937 35.9129 45.9513 38.5044 44.0063L36.1034 40.8071ZM43.9018 40.8071C41.5813 39.0655 38.4239 39.0655 36.1034 40.8071L38.5044 44.0063C39.4023 43.3324 40.6029 43.3324 41.5008 44.0063L43.9018 40.8071ZM47.8588 37.7042C48.2694 39.0096 47.7691 40.1534 46.8982 40.8071C46.0367 41.4537 44.9086 41.5626 43.9018 40.8071L41.5008 44.0063C44.0924 45.9513 47.1841 45.5937 49.2993 44.0063C51.4051 42.4259 52.6383 39.5681 51.6745 36.504L47.8588 37.7042ZM50.234 30.2019C47.9299 31.9311 46.9959 34.9609 47.8588 37.7042L51.6745 36.504C51.308 35.3389 51.7207 34.0873 52.6351 33.4011L50.234 30.2019ZM48.7358 25.2217C51.1176 25.2217 52.4114 28.5677 50.234 30.2019L52.6351 33.4011C57.6543 29.6341 55.2495 21.2217 48.7358 21.2217V25.2217ZM42.4614 20.5446C43.3273 23.2976 45.8379 25.2217 48.7358 25.2217V21.2217C47.6556 21.2217 46.6405 20.4997 46.2771 19.3444L42.4614 20.5446ZM46.2771 19.3444C44.3155 13.1083 35.6897 13.1083 33.7282 19.3444L37.5439 20.5446C38.3312 18.0416 41.6741 18.0416 42.4614 20.5446L46.2771 19.3444ZM15.3359 30.0006C15.3359 16.3776 26.3796 5.33398 40.0026 5.33398V1.33398C24.1704 1.33398 11.3359 14.1685 11.3359 30.0006H15.3359ZM40.0026 5.33398C53.6256 5.33398 64.6693 16.3776 64.6693 30.0006H68.6693C68.6693 14.1685 55.8348 1.33398 40.0026 1.33398V5.33398ZM58.0026 49.4492V67.9296H62.0026V49.4492H58.0026ZM22.0026 67.9296V49.4492H18.0026V67.9296H22.0026ZM51.8501 70.6122L48.7208 68.0039L46.1597 71.0766L49.289 73.6849L51.8501 70.6122ZM31.2845 68.0039L28.1552 70.6122L30.7162 73.6849L33.8455 71.0766L31.2845 68.0039ZM48.7208 68.0039C46.9854 66.5575 45.5445 65.3518 44.264 64.5294C42.9354 63.6761 41.5851 63.1029 40.0026 63.1029V67.1029C40.534 67.1029 41.1279 67.2692 42.1024 67.895C43.1249 68.5517 44.3459 69.5648 46.1597 71.0766L48.7208 68.0039ZM33.8455 71.0766C35.6593 69.5648 36.8803 68.5517 37.9028 67.895C38.8773 67.2692 39.4712 67.1029 40.0026 67.1029V63.1029C38.4201 63.1029 37.0698 63.6761 35.7413 64.5294C34.4607 65.3518 33.0198 66.5575 31.2845 68.0039L33.8455 71.0766ZM18.0026 67.9296C18.0026 70.4669 17.9972 72.6034 18.2323 74.1828C18.4639 75.7385 19.034 77.5083 20.8493 78.3202L22.4824 74.6688C22.4791 74.6673 22.4904 74.6729 22.5012 74.6833C22.5097 74.6915 22.4935 74.6795 22.4617 74.6208C22.3864 74.4823 22.2765 74.1837 22.1887 73.5938C22.008 72.3802 22.0026 70.6063 22.0026 67.9296H18.0026ZM28.1552 70.6122C26.0683 72.3517 24.6725 73.5085 23.5986 74.1703C23.0756 74.4926 22.7567 74.6142 22.5793 74.6532C22.5399 74.6619 22.5127 74.6652 22.4962 74.6665C22.4879 74.6672 22.4821 74.6673 22.4785 74.6673C22.4749 74.6673 22.4731 74.6672 22.4729 74.6671C22.4727 74.6671 22.4736 74.6672 22.4754 74.6675C22.4771 74.6678 22.4791 74.6682 22.481 74.6687C22.4855 74.6698 22.4864 74.6705 22.4824 74.6688L20.8493 78.3202C22.6395 79.1209 24.3489 78.4064 25.6971 77.5756C27.0746 76.7268 28.7321 75.3386 30.7162 73.6849L28.1552 70.6122ZM58.0026 67.9296C58.0026 70.6063 57.9972 72.3802 57.8165 73.5938C57.7287 74.1837 57.6188 74.4823 57.5436 74.6208C57.5117 74.6795 57.4955 74.6915 57.504 74.6833C57.5148 74.6729 57.5261 74.6673 57.5228 74.6688L59.1559 78.3202C60.9712 77.5083 61.5413 75.7385 61.7729 74.1828C62.008 72.6034 62.0026 70.4669 62.0026 67.9296H58.0026ZM49.289 73.6849C51.2731 75.3386 52.9306 76.7268 54.3081 77.5756C55.6563 78.4064 57.3658 79.1209 59.1559 78.3202L57.5228 74.6688C57.5189 74.6705 57.5197 74.6698 57.5242 74.6687C57.5262 74.6682 57.5281 74.6678 57.5299 74.6675C57.5316 74.6672 57.5325 74.6671 57.5323 74.6671C57.5321 74.6672 57.5304 74.6673 57.5267 74.6673C57.5231 74.6673 57.5173 74.6672 57.509 74.6665C57.4925 74.6652 57.4653 74.6619 57.426 74.6532C57.2486 74.6142 56.9296 74.4926 56.4066 74.1703C55.3327 73.5085 53.937 72.3517 51.8501 70.6122L49.289 73.6849ZM62.0026 49.4492C62.0026 48.8342 62.0026 48.2531 62.0014 47.7048L58.0014 47.7134C58.0026 48.2566 58.0026 48.8332 58.0026 49.4492H62.0026ZM64.6693 30.0006C64.6693 36.2578 62.3421 41.9665 58.5031 46.316L61.5021 48.9629C65.9613 43.9107 68.6693 37.2695 68.6693 30.0006H64.6693ZM58.5031 46.316C53.9804 51.4402 47.3696 54.6673 40.0026 54.6673V58.6673C48.5649 58.6673 56.2523 54.911 61.5021 48.9629L58.5031 46.316ZM62.0012 47.743L62.0023 47.6733L58.0029 47.6056L58.0017 47.6752L62.0012 47.743ZM22.0026 49.4492C22.0026 48.8075 22.0026 48.2085 22.0039 47.6457L18.0039 47.6363C18.0026 48.2047 18.0026 48.8085 18.0026 49.4492H22.0026ZM40.0026 54.6673C32.6363 54.6673 26.026 51.4408 21.5033 46.3174L18.5046 48.9646C23.7544 54.9116 31.4411 58.6673 40.0026 58.6673V54.6673ZM21.5033 46.3174C17.6636 41.9677 15.3359 36.2584 15.3359 30.0006H11.3359C11.3359 37.2703 14.0445 43.9121 18.5046 48.9646L21.5033 46.3174Z" fill="#E31E34"/>
</svg>
