<svg width="80" height="80" viewBox="0 0 80 80" fill="none" xmlns="http://www.w3.org/2000/svg">
<rect width="80" height="80" fill="white"/>
<path d="M28.5847 48.5865C27.8037 49.3675 27.8037 50.6338 28.5847 51.4149C29.3658 52.1959 30.6321 52.1959 31.4131 51.4149L28.5847 48.5865ZM50.2693 32.5587C51.0504 31.7777 51.0504 30.5113 50.2693 29.7303C49.4883 28.9492 48.2219 28.9492 47.4409 29.7303L50.2693 32.5587ZM18.6483 16.7306L18.162 18.6706L18.6483 16.7306ZM30.5218 9.87549L32.445 10.4244L30.5218 9.87549ZM9.17115 33.1456L7.73422 34.5367L9.17115 33.1456ZM9.17115 46.8558L7.73422 45.4647L9.17115 46.8558ZM18.6483 63.2707L18.162 61.3308L18.6483 63.2707ZM30.5218 70.1259L32.445 69.577L30.5218 70.1259ZM49.4761 70.1259L47.5529 69.577L49.4761 70.1259ZM61.3495 63.2707L61.8358 61.3308L61.3495 63.2707ZM70.8267 46.8558L72.2636 45.4647L70.8267 46.8558ZM70.8267 33.1455L72.2636 34.5367L70.8267 33.1455ZM61.3495 16.7306L61.8358 18.6706L61.3495 16.7306ZM49.4761 9.87549L47.5529 10.4244L49.4761 9.87549ZM31.4131 51.4149L50.2693 32.5587L47.4409 29.7303L28.5847 48.5865L31.4131 51.4149ZM18.162 18.6706C24.3682 20.2263 30.6891 16.5769 32.445 10.4244L28.5985 9.32663C27.4351 13.4033 23.2468 15.8214 19.1346 14.7906L18.162 18.6706ZM10.6081 31.7544C5.11101 26.0763 10.4961 16.7491 18.162 18.6706L19.1346 14.7906C7.56523 11.8906 -0.561944 25.9673 7.73422 34.5367L10.6081 31.7544ZM10.6081 48.2469C15.0584 43.6501 15.0584 36.3513 10.6081 31.7544L7.73422 34.5367C10.683 37.5826 10.683 42.4188 7.73422 45.4647L10.6081 48.2469ZM18.162 61.3308C10.4961 63.2523 5.11101 53.925 10.6081 48.2469L7.73422 45.4647C-0.561947 54.0341 7.56523 68.1107 19.1346 65.2107L18.162 61.3308ZM32.445 69.577C30.6891 63.4245 24.3682 59.7751 18.162 61.3308L19.1346 65.2107C23.2468 64.1799 27.4351 66.5981 28.5985 70.6747L32.445 69.577ZM47.5529 69.577C45.384 77.1767 34.6138 77.1767 32.445 69.577L28.5985 70.6747C31.8717 82.1441 48.1261 82.1441 51.3993 70.6747L47.5529 69.577ZM61.8358 61.3308C55.6297 59.7751 49.3087 63.4245 47.5529 69.577L51.3993 70.6747C52.5627 66.5981 56.751 64.1799 60.8632 65.2107L61.8358 61.3308ZM69.3898 48.2469C74.8868 53.925 69.5017 63.2523 61.8358 61.3308L60.8632 65.2107C72.4326 68.1107 80.5598 54.0341 72.2636 45.4647L69.3898 48.2469ZM69.3898 31.7544C64.9394 36.3513 64.9394 43.6501 69.3898 48.2469L72.2636 45.4647C69.3148 42.4188 69.3148 37.5826 72.2636 34.5367L69.3898 31.7544ZM61.8358 18.6706C69.5017 16.7491 74.8868 26.0763 69.3898 31.7544L72.2636 34.5367C80.5598 25.9673 72.4326 11.8906 60.8632 14.7906L61.8358 18.6706ZM47.5529 10.4244C49.3087 16.5769 55.6297 20.2263 61.8358 18.6706L60.8632 14.7906C56.751 15.8214 52.5627 13.4033 51.3993 9.32663L47.5529 10.4244ZM51.3993 9.32663C48.1261 -2.14273 31.8717 -2.14273 28.5985 9.32663L32.445 10.4244C34.6138 2.82469 45.384 2.82469 47.5529 10.4244L51.3993 9.32663Z" fill="#E31E34"/>
<path d="M27 30.25C27 32.0449 28.4551 33.5 30.25 33.5C32.0449 33.5 33.5 32.0449 33.5 30.25C33.5 28.4551 32.0449 27 30.25 27C28.4551 27 27 28.4551 27 30.25Z" fill="#E31E34"/>
<path d="M46.5 49.75C46.5 51.5449 47.9551 53 49.75 53C51.5449 53 53 51.5449 53 49.75C53 47.9551 51.5449 46.5 49.75 46.5C47.9551 46.5 46.5 47.9551 46.5 49.75Z" fill="#E31E34"/>
</svg>
