<svg width="700" height="65" viewBox="0 0 700 65" fill="none" xmlns="http://www.w3.org/2000/svg">
<path d="M674.806 24.1115C678.196 27.3522 682.741 29.1667 687.475 29.1667H700L676.472 6.08389C672.503 2.18995 667.118 0 661.503 0H649.589L674.806 24.1115ZM617.11 0H629.023C634.639 0 640.023 2.1868 643.992 6.08389L667.521 29.1667H654.996C650.261 29.1667 645.716 27.3522 642.326 24.1115L617.11 0ZM584.63 0H596.544C602.16 0 607.544 2.1868 611.513 6.08389L635.041 29.1667H622.516C617.782 29.1667 613.237 27.3522 609.847 24.1115L584.63 0ZM552.151 0H564.064C569.68 0 575.064 2.1868 579.034 6.08389L602.562 29.1667H590.037C585.302 29.1667 580.758 27.3522 577.367 24.1115L552.151 0ZM519.671 0H531.585C537.198 0 542.585 2.1868 546.554 6.08389L570.082 29.1667H557.557C552.823 29.1667 548.278 27.3522 544.888 24.1115L519.671 0ZM487.192 0H499.105C504.718 0 510.102 2.1868 514.075 6.08389L537.603 29.1667H525.078C520.343 29.1667 515.799 27.3522 512.409 24.1115L487.192 0ZM454.712 0H466.626C472.242 0 477.626 2.1868 481.595 6.08389L505.123 29.1667H492.599C487.864 29.1667 483.319 27.3522 479.929 24.1115L454.712 0ZM422.233 0H434.147C439.762 0 445.147 2.1868 449.116 6.08389L472.644 29.1667H460.119C455.385 29.1667 450.84 27.3522 447.45 24.1115L422.233 0ZM389.753 0H401.667C407.283 0 412.667 2.1868 416.636 6.08389L440.164 29.1667H427.64C422.905 29.1667 418.36 27.3522 414.97 24.1115L389.753 0ZM357.274 0H369.188C374.8 0 380.188 2.1868 384.157 6.08389L407.685 29.1667H395.16C390.426 29.1667 385.881 27.3522 382.491 24.1115L357.274 0ZM324.795 0H336.708C342.321 0 347.705 2.1868 351.677 6.08389L375.206 29.1667H362.681C357.946 29.1667 353.401 27.3522 350.011 24.1115L324.795 0ZM292.315 0H304.229C309.845 0 315.229 2.1868 319.198 6.08389L342.726 29.1667H330.201C325.467 29.1667 320.922 27.3522 317.532 24.1115L292.315 0ZM259.836 0H271.749C277.365 0 282.749 2.1868 286.718 6.08389L310.247 29.1667H297.722C292.987 29.1667 288.442 27.3522 285.052 24.1115L259.836 0ZM227.356 0H239.27C244.886 0 250.27 2.1868 254.239 6.08389L277.767 29.1667H265.242C260.508 29.1667 255.963 27.3522 252.573 24.1115L227.356 0ZM194.877 0H206.79C212.403 0 217.791 2.1868 221.76 6.08389L245.288 29.1667H232.763C228.028 29.1667 223.484 27.3522 220.093 24.1115L194.877 0ZM162.397 0H174.311C179.924 0 185.308 2.1868 189.28 6.08389L212.808 29.1667H200.283C195.549 29.1667 191.004 27.3522 187.614 24.1115L162.397 0ZM129.918 0H141.831C147.447 0 152.832 2.1868 156.801 6.08389L180.329 29.1667H167.804C163.069 29.1667 158.525 27.3522 155.135 24.1115L129.918 0ZM97.4384 0H109.352C114.968 0 120.352 2.1868 124.321 6.08389L147.849 29.1667H135.325C130.59 29.1667 126.045 27.3522 122.655 24.1115L97.4384 0ZM64.9589 0H76.8726C82.4884 0 87.8727 2.1868 91.8418 6.08389L115.37 29.1667H102.845C98.1106 29.1667 93.5657 27.3522 90.1756 24.1115L64.9589 0ZM32.4794 0H44.3931C50.009 0 55.3933 2.1868 59.3624 6.08389L82.8905 29.1667H70.3658C65.6312 29.1667 61.0863 27.3522 57.6962 24.1115L32.4794 0ZM0 0H11.9136C17.5263 0 22.9138 2.1868 26.8829 6.08389L50.411 29.1667H37.8862C33.1517 29.1667 28.6069 27.3522 25.2167 24.1115L0 0Z" fill="url(#paint0_linear_537_932)"/>
<path d="M674.806 40.8885C678.196 37.6478 682.741 35.8333 687.475 35.8333H700L676.472 58.9161C672.503 62.81 667.118 65 661.503 65H649.589L674.806 40.8885ZM617.11 65H629.023C634.639 65 640.023 62.8132 643.992 58.9161L667.521 35.8333H654.996C650.261 35.8333 645.716 37.6478 642.326 40.8885L617.11 65ZM584.63 65H596.544C602.16 65 607.544 62.8132 611.513 58.9161L635.041 35.8333H622.516C617.782 35.8333 613.237 37.6478 609.847 40.8885L584.63 65ZM552.151 65H564.064C569.68 65 575.064 62.8132 579.034 58.9161L602.562 35.8333H590.037C585.302 35.8333 580.758 37.6478 577.367 40.8885L552.151 65ZM519.671 65H531.585C537.198 65 542.585 62.8132 546.554 58.9161L570.082 35.8333H557.557C552.823 35.8333 548.278 37.6478 544.888 40.8885L519.671 65ZM487.192 65H499.105C504.718 65 510.102 62.8132 514.075 58.9161L537.603 35.8333H525.078C520.343 35.8333 515.799 37.6478 512.409 40.8885L487.192 65ZM454.712 65H466.626C472.242 65 477.626 62.8132 481.595 58.9161L505.123 35.8333H492.599C487.864 35.8333 483.319 37.6478 479.929 40.8885L454.712 65ZM422.233 65H434.147C439.762 65 445.147 62.8132 449.116 58.9161L472.644 35.8333H460.119C455.385 35.8333 450.84 37.6478 447.45 40.8885L422.233 65ZM389.753 65H401.667C407.283 65 412.667 62.8132 416.636 58.9161L440.164 35.8333H427.64C422.905 35.8333 418.36 37.6478 414.97 40.8885L389.753 65ZM357.274 65H369.188C374.8 65 380.188 62.8132 384.157 58.9161L407.685 35.8333H395.16C390.426 35.8333 385.881 37.6478 382.491 40.8885L357.274 65ZM324.795 65H336.708C342.321 65 347.705 62.8132 351.677 58.9161L375.206 35.8333H362.681C357.946 35.8333 353.401 37.6478 350.011 40.8885L324.795 65ZM292.315 65H304.229C309.845 65 315.229 62.8132 319.198 58.9161L342.726 35.8333H330.201C325.467 35.8333 320.922 37.6478 317.532 40.8885L292.315 65ZM259.836 65H271.749C277.365 65 282.749 62.8132 286.718 58.9161L310.247 35.8333H297.722C292.987 35.8333 288.442 37.6478 285.052 40.8885L259.836 65ZM227.356 65H239.27C244.886 65 250.27 62.8132 254.239 58.9161L277.767 35.8333H265.242C260.508 35.8333 255.963 37.6478 252.573 40.8885L227.356 65ZM194.877 65H206.79C212.403 65 217.791 62.8132 221.76 58.9161L245.288 35.8333H232.763C228.028 35.8333 223.484 37.6478 220.093 40.8885L194.877 65ZM162.397 65H174.311C179.924 65 185.308 62.8132 189.28 58.9161L212.808 35.8333H200.283C195.549 35.8333 191.004 37.6478 187.614 40.8885L162.397 65ZM129.918 65H141.831C147.447 65 152.832 62.8132 156.801 58.9161L180.329 35.8333H167.804C163.069 35.8333 158.525 37.6478 155.135 40.8885L129.918 65ZM97.4384 65H109.352C114.968 65 120.352 62.8132 124.321 58.9161L147.849 35.8333H135.325C130.59 35.8333 126.045 37.6478 122.655 40.8885L97.4384 65ZM64.9589 65H76.8726C82.4884 65 87.8727 62.8132 91.8418 58.9161L115.37 35.8333H102.845C98.1106 35.8333 93.5657 37.6478 90.1756 40.8885L64.9589 65ZM32.4794 65H44.3931C50.009 65 55.3933 62.8132 59.3624 58.9161L82.8905 35.8333H70.3658C65.6312 35.8333 61.0863 37.6478 57.6962 40.8885L32.4794 65ZM0 65H11.9136C17.5263 65 22.9138 62.8132 26.8829 58.9161L50.411 35.8333H37.8862C33.1517 35.8333 28.6069 37.6478 25.2167 40.8885L0 65Z" fill="url(#paint1_linear_537_932)"/>
<defs>
<linearGradient id="paint0_linear_537_932" x1="406.05" y1="65.0002" x2="4.84049e-05" y2="65.0002" gradientUnits="userSpaceOnUse">
<stop stop-color="#03052C"/>
<stop offset="1" stop-color="#03052C" stop-opacity="0.3"/>
</linearGradient>
<linearGradient id="paint1_linear_537_932" x1="406.05" y1="65.0002" x2="4.84049e-05" y2="65.0002" gradientUnits="userSpaceOnUse">
<stop stop-color="#03052C"/>
<stop offset="1" stop-color="#03052C" stop-opacity="0.3"/>
</linearGradient>
</defs>
</svg>
