<svg width="97" height="80" viewBox="0 0 97 80" fill="none" xmlns="http://www.w3.org/2000/svg">
<g clip-path="url(#clip0_664_3969)">
<path d="M22.5 13.332L22.5 66.6654" stroke="#E31E34" stroke-width="4" stroke-linecap="round" stroke-dasharray="2 3"/>
<path d="M2.5 28.1469C2.5 19.9649 9.13282 13.332 17.3148 13.332H79.3519C87.5339 13.332 94.1667 19.9649 94.1667 28.1469C94.1667 29.9578 93.1282 31.6083 91.4955 32.392L89.871 33.1718C84.1433 35.921 84.1433 44.0764 89.871 46.8256L91.4955 47.6054C93.1282 48.3891 94.1667 50.0396 94.1667 51.8506C94.1667 60.0326 87.5339 66.6654 79.3519 66.6654H17.3148C9.13282 66.6654 2.5 60.0326 2.5 51.8506C2.5 50.0396 3.53855 48.3891 5.17118 47.6054L6.79574 46.8256C12.5234 44.0764 12.5234 35.921 6.79574 33.1718L5.17118 32.392C3.53855 31.6083 2.5 29.9578 2.5 28.1469Z" stroke="#E31E34" stroke-width="4"/>
<path d="M49.0788 29.3182C50.4704 24.8939 56.5296 24.8939 57.9212 29.3182C58.5435 31.2967 60.3284 32.6363 62.3424 32.6363C66.8457 32.6363 68.7181 38.589 65.0748 41.3233C63.4455 42.5462 62.7637 44.7137 63.3861 46.6922C64.7777 51.1164 59.8757 54.7954 56.2324 52.0611C54.6031 50.8383 52.3969 50.8383 50.7676 52.0611C47.1243 54.7954 42.2223 51.1164 43.6139 46.6922C44.2363 44.7137 43.5545 42.5462 41.9252 41.3233C38.2819 38.589 40.1543 32.6363 44.6576 32.6363C46.6716 32.6363 48.4565 31.2967 49.0788 29.3182Z" stroke="#E31E34" stroke-width="4"/>
</g>
<defs>
<clipPath id="clip0_664_3969">
<rect width="96.25" height="80" fill="white"/>
</clipPath>
</defs>
</svg>
