<svg width="16" height="16" viewBox="0 0 16 16" fill="none" xmlns="http://www.w3.org/2000/svg">
<g clip-path="url(#clip0_1286_25148)">
<path d="M9.85321 13.135L9.26304 12.6721L9.26304 12.6721L9.85321 13.135ZM6.14549 13.135L5.55531 13.5978L6.14549 13.135ZM7.99935 14.6716L7.99935 13.9216L7.99935 14.6716ZM12.5827 6.4071C12.5827 7.15572 12.1855 8.20137 11.5176 9.38224C10.8662 10.5338 10.0217 11.7047 9.26304 12.6721L10.4434 13.5978C11.2246 12.6016 12.1198 11.3644 12.8232 10.1207C13.51 8.90644 14.0827 7.56995 14.0827 6.4071H12.5827ZM6.73566 12.6721C5.97702 11.7047 5.13245 10.5338 4.48112 9.38224C3.81318 8.20137 3.41602 7.15572 3.41602 6.4071H1.91602C1.91602 7.56995 2.48867 8.90644 3.17551 10.1207C3.87895 11.3644 4.77412 12.6016 5.55531 13.5978L6.73566 12.6721ZM3.41602 6.4071C3.41602 3.59893 5.51889 1.41797 7.99935 1.41797V-0.0820312C4.58877 -0.0820312 1.91602 2.87599 1.91602 6.4071H3.41602ZM7.99935 1.41797C10.4798 1.41797 12.5827 3.59893 12.5827 6.4071H14.0827C14.0827 2.87599 11.4099 -0.0820312 7.99935 -0.0820312V1.41797ZM9.26304 12.6721C8.84491 13.2053 8.58801 13.5288 8.36404 13.7323C8.17218 13.9066 8.08132 13.9216 7.99935 13.9216L7.99935 15.4216C8.5662 15.4216 9.00059 15.1805 9.37262 14.8426C9.71253 14.5338 10.0581 14.089 10.4434 13.5978L9.26304 12.6721ZM5.55531 13.5978C5.94055 14.089 6.28617 14.5338 6.62608 14.8426C6.99811 15.1805 7.4325 15.4216 7.99935 15.4216L7.99935 13.9216C7.91738 13.9216 7.82652 13.9066 7.63466 13.7323C7.41068 13.5288 7.15378 13.2053 6.73566 12.6721L5.55531 13.5978ZM5.24935 6.66797C5.24935 8.18675 6.48057 9.41797 7.99935 9.41797V7.91797C7.30899 7.91797 6.74935 7.35832 6.74935 6.66797H5.24935ZM7.99935 9.41797C9.51813 9.41797 10.7493 8.18675 10.7493 6.66797H9.24935C9.24935 7.35832 8.6897 7.91797 7.99935 7.91797V9.41797ZM10.7493 6.66797C10.7493 5.14919 9.51813 3.91797 7.99935 3.91797V5.41797C8.6897 5.41797 9.24935 5.97761 9.24935 6.66797H10.7493ZM7.99935 3.91797C6.48057 3.91797 5.24935 5.14919 5.24935 6.66797H6.74935C6.74935 5.97761 7.30899 5.41797 7.99935 5.41797V3.91797Z" fill="white"/>
</g>
<defs>
<clipPath id="clip0_1286_25148">
<rect width="16" height="16" fill="white"/>
</clipPath>
</defs>
</svg>
