<svg width="19" height="24" viewBox="0 0 19 24" fill="none" xmlns="http://www.w3.org/2000/svg">
<g clip-path="url(#clip0_1283_5266)">
<path fill-rule="evenodd" clip-rule="evenodd" d="M19 9.936C19 4.452 14.7548 0 9.5 0C4.25664 0 0 4.452 0 9.936C0 12.684 1.06703 15.168 2.78804 16.956C2.92572 17.1 3.12077 17.196 3.32729 17.196C3.75181 17.196 4.09601 16.836 4.09601 16.392C4.09601 16.164 4.0157 15.96 3.86655 15.804C2.43237 14.304 1.54891 12.216 1.54891 9.936C1.54891 5.352 5.10568 1.608 9.48853 1.608C13.8714 1.608 17.4511 5.34 17.4511 9.936C17.4511 12.24 16.5676 14.316 15.122 15.828L8.41002 22.848L9.5 24L16.2349 16.956C17.9444 15.168 19 12.684 19 9.936Z" fill="#E31E34"/>
<path fill-rule="evenodd" clip-rule="evenodd" d="M13.9077 11.8558L11.5327 5.5918L9.53634 9.2518L7.52849 5.5918L5.16497 11.8558H4.47656V12.7918H8.0448V11.8558H7.51702L8.03333 10.2958L9.53634 12.8638L11.0394 10.2958L11.5557 11.8558H11.0164V12.7918H14.6076V11.8558H13.9077Z" fill="#E31E34"/>
</g>
<defs>
<clipPath id="clip0_1283_5266">
<rect width="19" height="24" fill="white"/>
</clipPath>
</defs>
</svg>
