<svg width="350" height="217" viewBox="0 0 350 217" fill="none" xmlns="http://www.w3.org/2000/svg">
<path d="M61.032 159V119.52H79.232C83.5627 119.52 86.904 120.435 89.256 122.264C91.608 124.093 92.784 126.595 92.784 129.768C92.784 132.12 92.0747 134.117 90.656 135.76C89.2747 137.403 87.3707 138.504 84.944 139.064V138.168C87.7813 138.653 89.9653 139.736 91.496 141.416C93.064 143.059 93.848 145.205 93.848 147.856C93.848 151.365 92.5973 154.109 90.096 156.088C87.632 158.029 84.216 159 79.848 159H61.032ZM69.376 152.504H78.784C80.9493 152.504 82.6107 152.093 83.768 151.272C84.9253 150.451 85.504 149.144 85.504 147.352C85.504 145.523 84.9253 144.216 83.768 143.432C82.6107 142.611 80.9493 142.2 78.784 142.2H69.376V152.504ZM69.376 135.76H77.664C79.9413 135.76 81.6213 135.349 82.704 134.528C83.7867 133.707 84.328 132.475 84.328 130.832C84.328 129.227 83.7867 128.013 82.704 127.192C81.6213 126.371 79.9413 125.96 77.664 125.96H69.376V135.76ZM132.125 159.616C127.906 159.616 124.285 158.776 121.261 157.096C118.237 155.416 115.904 153.064 114.261 150.04C112.656 146.979 111.853 143.376 111.853 139.232C111.853 135.088 112.656 131.504 114.261 128.48C115.904 125.456 118.237 123.104 121.261 121.424C124.285 119.744 127.906 118.904 132.125 118.904C134.85 118.904 137.333 119.296 139.573 120.08C141.813 120.827 143.717 121.928 145.285 123.384L142.541 130.272C140.824 128.928 139.181 127.976 137.613 127.416C136.082 126.856 134.346 126.576 132.405 126.576C128.709 126.576 125.872 127.677 123.893 129.88C121.952 132.045 120.981 135.163 120.981 139.232C120.981 143.301 121.952 146.437 123.893 148.64C125.872 150.843 128.709 151.944 132.405 151.944C134.346 151.944 136.082 151.664 137.613 151.104C139.181 150.544 140.824 149.592 142.541 148.248L145.285 155.136C143.717 156.555 141.813 157.656 139.573 158.44C137.333 159.224 134.85 159.616 132.125 159.616ZM149.965 159V119.52H167.885C172.327 119.52 175.762 120.584 178.189 122.712C180.615 124.803 181.829 127.733 181.829 131.504C181.829 133.968 181.269 136.096 180.149 137.888C179.066 139.643 177.498 141.005 175.445 141.976C173.429 142.909 171.002 143.376 168.165 143.376L168.837 142.144H171.133C172.738 142.144 174.157 142.573 175.389 143.432C176.658 144.291 177.703 145.541 178.525 147.184L184.405 159H174.773L168.669 146.288C168.221 145.205 167.511 144.496 166.541 144.16C165.607 143.787 164.525 143.6 163.293 143.6H158.701V159H149.965ZM158.701 137.328H166.373C168.65 137.328 170.386 136.861 171.581 135.928C172.775 134.995 173.373 133.613 173.373 131.784C173.373 129.955 172.775 128.592 171.581 127.696C170.386 126.763 168.65 126.296 166.373 126.296H158.701V137.328ZM182.8 159L200.944 119.52H208.168L226.536 159H217.688L212.928 148.024L216.344 150.432H192.88L196.352 148.024L191.592 159H182.8ZM204.528 128.704L197.304 145.84L195.792 143.712H213.432L212.144 145.84L204.752 128.704H204.528ZM226.537 159V152.56L247.593 124.112V126.688H226.537V119.52H255.937V125.904L234.825 154.352V151.832H256.721V159H226.537ZM270.622 159V140.24L272.414 145.224L255.11 119.52H265.19L276.054 136.432H274.262L285.126 119.52H294.87L277.622 145.224L279.358 140.24V159H270.622Z" fill="url(#paint0_linear_3201_5211)"/>
<path d="M223.492 212.616C219.273 212.616 215.652 211.776 212.628 210.096C209.604 208.416 207.271 206.064 205.628 203.04C204.023 199.979 203.22 196.376 203.22 192.232C203.22 188.088 204.023 184.504 205.628 181.48C207.271 178.456 209.604 176.104 212.628 174.424C215.652 172.744 219.273 171.904 223.492 171.904C226.217 171.904 228.7 172.296 230.94 173.08C233.18 173.827 235.084 174.928 236.652 176.384L233.908 183.272C232.191 181.928 230.548 180.976 228.98 180.416C227.449 179.856 225.713 179.576 223.772 179.576C220.076 179.576 217.239 180.677 215.26 182.88C213.319 185.045 212.348 188.163 212.348 192.232C212.348 196.301 213.319 199.437 215.26 201.64C217.239 203.843 220.076 204.944 223.772 204.944C225.713 204.944 227.449 204.664 228.98 204.104C230.548 203.544 232.191 202.592 233.908 201.248L236.652 208.136C235.084 209.555 233.18 210.656 230.94 211.44C228.7 212.224 226.217 212.616 223.492 212.616ZM235.973 212L254.117 172.52H261.341L279.709 212H270.861L266.101 201.024L269.517 203.432H246.053L249.525 201.024L244.765 212H235.973ZM257.701 181.704L250.477 198.84L248.965 196.712H266.605L265.317 198.84L257.925 181.704H257.701ZM281.713 212V172.52H299.633C304.076 172.52 307.511 173.584 309.937 175.712C312.364 177.803 313.577 180.733 313.577 184.504C313.577 186.968 313.017 189.096 311.897 190.888C310.815 192.643 309.247 194.005 307.193 194.976C305.177 195.909 302.751 196.376 299.913 196.376L300.585 195.144H302.881C304.487 195.144 305.905 195.573 307.137 196.432C308.407 197.291 309.452 198.541 310.273 200.184L316.153 212H306.521L300.417 199.288C299.969 198.205 299.26 197.496 298.289 197.16C297.356 196.787 296.273 196.6 295.041 196.6H290.449V212H281.713ZM290.449 190.328H298.121C300.399 190.328 302.135 189.861 303.329 188.928C304.524 187.995 305.121 186.613 305.121 184.784C305.121 182.955 304.524 181.592 303.329 180.696C302.135 179.763 300.399 179.296 298.121 179.296H290.449V190.328ZM327.996 212V179.632H315.452V172.52H349.276V179.632H336.732V212H327.996Z" fill="url(#paint1_linear_3201_5211)"/>
<path d="M73.968 48L56.216 8.52H65.624L79.12 40.104H76.376L89.872 8.52H98.944L81.192 48H73.968ZM100.812 48V8.52H109.548V48H100.812ZM116.146 48V8.52H134.57C139.013 8.52 142.373 9.60266 144.65 11.768C146.965 13.896 148.122 16.8267 148.122 20.56C148.122 24.256 146.965 27.2053 144.65 29.408C142.373 31.5733 139.013 32.656 134.57 32.656H124.882V48H116.146ZM124.882 25.88H133.45C135.541 25.88 137.09 25.4133 138.098 24.48C139.143 23.5467 139.666 22.24 139.666 20.56C139.666 18.88 139.143 17.592 138.098 16.696C137.09 15.7627 135.541 15.296 133.45 15.296H124.882V25.88Z" fill="url(#paint2_linear_3201_5211)"/>
<path d="M4.032 101V61.52H39.48V101H30.8V68.576H12.656V101H4.032ZM46.1086 101V61.52H64.5326C68.9752 61.52 72.3352 62.6027 74.6126 64.768C76.9272 66.896 78.0846 69.8267 78.0846 73.56C78.0846 77.256 76.9272 80.2053 74.6126 82.408C72.3352 84.5733 68.9752 85.656 64.5326 85.656H54.8446V101H46.1086ZM54.8446 78.88H63.4126C65.5032 78.88 67.0526 78.4133 68.0606 77.48C69.1059 76.5467 69.6286 75.24 69.6286 73.56C69.6286 71.88 69.1059 70.592 68.0606 69.696C67.0526 68.7627 65.5032 68.296 63.4126 68.296H54.8446V78.88ZM73.6387 101L91.7827 61.52H99.0067L117.375 101H108.527L103.767 90.024L107.183 92.432H83.7187L87.1907 90.024L82.4307 101H73.6387ZM95.3667 70.704L88.1427 87.84L86.6307 85.712H104.271L102.983 87.84L95.5907 70.704H95.3667ZM132.539 101.616C129.179 101.616 126.174 101.224 123.523 100.44C120.91 99.6187 118.632 98.48 116.691 97.024L119.323 90.696C120.928 91.8907 122.776 92.824 124.867 93.496C126.958 94.1307 129.291 94.448 131.867 94.448C134.854 94.448 137.038 94 138.419 93.104C139.838 92.208 140.547 90.864 140.547 89.072C140.547 87.4667 139.987 86.272 138.867 85.488C137.747 84.704 136.011 84.312 133.659 84.312H123.803V77.592H132.707C134.984 77.592 136.683 77.2187 137.803 76.472C138.923 75.688 139.483 74.512 139.483 72.944C139.483 71.488 138.867 70.312 137.635 69.416C136.44 68.52 134.536 68.072 131.923 68.072C129.758 68.072 127.648 68.3893 125.595 69.024C123.542 69.6587 121.75 70.5733 120.219 71.768L117.587 65.384C119.342 63.9653 121.563 62.864 124.251 62.08C126.939 61.296 129.814 60.904 132.875 60.904C137.878 60.904 141.63 61.912 144.131 63.928C146.67 65.944 147.939 68.5387 147.939 71.712C147.939 74.064 147.23 76.08 145.811 77.76C144.43 79.4027 142.526 80.504 140.099 81.064V80.168C142.899 80.6533 145.064 81.736 146.595 83.416C148.163 85.0587 148.947 87.224 148.947 89.912C148.947 92.2267 148.35 94.2613 147.155 96.016C145.96 97.7707 144.131 99.152 141.667 100.16C139.24 101.131 136.198 101.616 132.539 101.616ZM150.658 110.52V94.28H154.802C156.557 92.152 157.863 89.24 158.722 85.544C159.581 81.8107 160.01 77.2747 160.01 71.936V61.52H189.634V94.28H195.402V110.52H187.842V101H158.274V110.52H150.658ZM163.426 94.28H180.954V68.184H167.962V72.776C167.962 77.816 167.589 82.0907 166.842 85.6C166.095 89.1093 164.957 92.0027 163.426 94.28ZM199.266 101V61.52H208.002V77.368H226.09V61.52H234.882V101H226.09V84.592H208.002V101H199.266ZM241.507 101V61.52H249.571V88.96H248.171L269.563 61.52H276.059V101H267.939V73.56H269.339L247.891 101H241.507ZM282.654 101V61.52H291.278V77.872H297.214L295.702 78.824L306.79 61.52H316.31L303.598 80.504L300.182 78.152C302.833 78.6 305.017 79.5147 306.734 80.896C308.489 82.2773 310.001 84.2373 311.27 86.776L318.382 101H308.974L303.654 89.8C302.833 88.008 301.825 86.7573 300.63 86.048C299.435 85.3013 297.905 84.928 296.038 84.928H291.278V101H282.654Z" fill="url(#paint3_linear_3201_5211)"/>
<defs>
<linearGradient id="paint0_linear_3201_5211" x1="31.1129" y1="111" x2="29.797" y2="175.876" gradientUnits="userSpaceOnUse">
<stop stop-color="#1B1918"/>
<stop offset="0.197389" stop-color="#C3961E"/>
<stop offset="0.538406" stop-color="#C3961E"/>
<stop offset="1" stop-color="#1B1918"/>
</linearGradient>
<linearGradient id="paint1_linear_3201_5211" x1="184.819" y1="164" x2="182.776" y2="225.447" gradientUnits="userSpaceOnUse">
<stop stop-color="#1B1918"/>
<stop offset="0.197389" stop-color="#C3961E"/>
<stop offset="0.538406" stop-color="#C3961E"/>
<stop offset="1" stop-color="#1B1918"/>
</linearGradient>
<linearGradient id="paint2_linear_3201_5211" x1="52.6241" y1="-4.95748" x2="46.5477" y2="69.693" gradientUnits="userSpaceOnUse">
<stop stop-color="#1B1918"/>
<stop offset="0.197389" stop-color="#C3961E"/>
<stop offset="0.538406" stop-color="#C3961E"/>
<stop offset="1" stop-color="#1B1918"/>
</linearGradient>
<linearGradient id="paint3_linear_3201_5211" x1="-68.2708" y1="43.2653" x2="-70.4115" y2="105.762" gradientUnits="userSpaceOnUse">
<stop stop-color="#1B1918"/>
<stop offset="0.197389" stop-color="#C3961E"/>
<stop offset="0.538406" stop-color="#C3961E"/>
<stop offset="1" stop-color="#1B1918"/>
</linearGradient>
</defs>
</svg>
