<svg width="1219" height="588" viewBox="0 0 1219 588" fill="none" xmlns="http://www.w3.org/2000/svg">
<path d="M868.015 574.705C856.338 574.705 846.315 572.38 837.945 567.73C829.575 563.08 823.117 556.57 818.57 548.2C814.127 539.727 811.905 529.755 811.905 518.285C811.905 506.815 814.127 496.895 818.57 488.525C823.117 480.155 829.575 473.645 837.945 468.995C846.315 464.345 856.338 462.02 868.015 462.02C875.558 462.02 882.43 463.105 888.63 465.275C894.83 467.342 900.1 470.39 904.44 474.42L896.845 493.485C892.092 489.765 887.545 487.13 883.205 485.58C878.968 484.03 874.163 483.255 868.79 483.255C858.56 483.255 850.707 486.303 845.23 492.4C839.857 498.393 837.17 507.022 837.17 518.285C837.17 529.548 839.857 538.228 845.23 544.325C850.707 550.422 858.56 553.47 868.79 553.47C874.163 553.47 878.968 552.695 883.205 551.145C887.545 549.595 892.092 546.96 896.845 543.24L904.44 562.305C900.1 566.232 894.83 569.28 888.63 571.45C882.43 573.62 875.558 574.705 868.015 574.705ZM902.561 573L952.781 463.725H972.776L1023.62 573H999.126L985.951 542.62L995.406 549.285H930.461L940.071 542.62L926.896 573H902.561ZM962.701 489.145L942.706 536.575L938.521 530.685H987.346L983.781 536.575L963.321 489.145H962.701ZM1029.16 573V463.725H1078.76C1091.06 463.725 1100.57 466.67 1107.28 472.56C1114 478.347 1117.36 486.458 1117.36 496.895C1117.36 503.715 1115.81 509.605 1112.71 514.565C1109.71 519.422 1105.37 523.193 1099.69 525.88C1094.11 528.463 1087.39 529.755 1079.54 529.755L1081.4 526.345H1087.75C1092.2 526.345 1096.12 527.533 1099.53 529.91C1103.05 532.287 1105.94 535.748 1108.21 540.295L1124.49 573H1097.83L1080.93 537.815C1079.69 534.818 1077.73 532.855 1075.04 531.925C1072.46 530.892 1069.46 530.375 1066.05 530.375H1053.34V573H1029.16ZM1053.34 513.015H1074.58C1080.88 513.015 1085.69 511.723 1088.99 509.14C1092.3 506.557 1093.95 502.733 1093.95 497.67C1093.95 492.607 1092.3 488.835 1088.99 486.355C1085.69 483.772 1080.88 482.48 1074.58 482.48H1053.34V513.015ZM1157.27 573V483.41H1122.55V463.725H1216.17V483.41H1181.45V573H1157.27Z" fill="url(#paint0_linear_3201_5210)"/>
<path d="M279.16 426V316.725H329.535C341.522 316.725 350.77 319.257 357.28 324.32C363.79 329.383 367.045 336.307 367.045 345.09C367.045 351.6 365.082 357.128 361.155 361.675C357.332 366.222 352.062 369.27 345.345 370.82V368.34C353.198 369.683 359.243 372.68 363.48 377.33C367.82 381.877 369.99 387.818 369.99 395.155C369.99 404.868 366.528 412.463 359.605 417.94C352.785 423.313 343.33 426 331.24 426H279.16ZM302.255 408.02H328.295C334.288 408.02 338.887 406.883 342.09 404.61C345.293 402.337 346.895 398.72 346.895 393.76C346.895 388.697 345.293 385.08 342.09 382.91C338.887 380.637 334.288 379.5 328.295 379.5H302.255V408.02ZM302.255 361.675H325.195C331.498 361.675 336.148 360.538 339.145 358.265C342.142 355.992 343.64 352.582 343.64 348.035C343.64 343.592 342.142 340.233 339.145 337.96C336.148 335.687 331.498 334.55 325.195 334.55H302.255V361.675ZM475.935 427.705C464.258 427.705 454.235 425.38 445.865 420.73C437.495 416.08 431.037 409.57 426.49 401.2C422.047 392.727 419.825 382.755 419.825 371.285C419.825 359.815 422.047 349.895 426.49 341.525C431.037 333.155 437.495 326.645 445.865 321.995C454.235 317.345 464.258 315.02 475.935 315.02C483.478 315.02 490.35 316.105 496.55 318.275C502.75 320.342 508.02 323.39 512.36 327.42L504.765 346.485C500.012 342.765 495.465 340.13 491.125 338.58C486.888 337.03 482.083 336.255 476.71 336.255C466.48 336.255 458.627 339.303 453.15 345.4C447.777 351.393 445.09 360.022 445.09 371.285C445.09 382.548 447.777 391.228 453.15 397.325C458.627 403.422 466.48 406.47 476.71 406.47C482.083 406.47 486.888 405.695 491.125 404.145C495.465 402.595 500.012 399.96 504.765 396.24L512.36 415.305C508.02 419.232 502.75 422.28 496.55 424.45C490.35 426.62 483.478 427.705 475.935 427.705ZM525.313 426V316.725H574.913C587.21 316.725 596.717 319.67 603.433 325.56C610.15 331.347 613.508 339.458 613.508 349.895C613.508 356.715 611.958 362.605 608.858 367.565C605.862 372.422 601.522 376.193 595.838 378.88C590.258 381.463 583.542 382.755 575.688 382.755L577.548 379.345H583.903C588.347 379.345 592.273 380.533 595.683 382.91C599.197 385.287 602.09 388.748 604.363 393.295L620.638 426H593.978L577.083 390.815C575.843 387.818 573.88 385.855 571.193 384.925C568.61 383.892 565.613 383.375 562.203 383.375H549.493V426H525.313ZM549.493 366.015H570.728C577.032 366.015 581.837 364.723 585.143 362.14C588.45 359.557 590.103 355.733 590.103 350.67C590.103 345.607 588.45 341.835 585.143 339.355C581.837 336.772 577.032 335.48 570.728 335.48H549.493V366.015ZM616.195 426L666.415 316.725H686.41L737.25 426H712.76L699.585 395.62L709.04 402.285H644.095L653.705 395.62L640.53 426H616.195ZM676.335 342.145L656.34 389.575L652.155 383.685H700.98L697.415 389.575L676.955 342.145H676.335ZM737.254 426V408.175L795.534 329.435V336.565H737.254V316.725H818.629V334.395L760.194 413.135V406.16H820.799V426H737.254ZM859.275 426V374.075L864.235 387.87L816.34 316.725H844.24L874.31 363.535H869.35L899.42 316.725H926.39L878.65 387.87L883.455 374.075V426H859.275Z" fill="url(#paint1_linear_3201_5210)"/>
<path d="M11.16 279V169.725H109.275V279H85.25V189.255H35.03V279H11.16ZM127.622 279V169.725H178.617C190.914 169.725 200.214 172.722 206.517 178.715C212.924 184.605 216.127 192.717 216.127 203.05C216.127 213.28 212.924 221.443 206.517 227.54C200.214 233.533 190.914 236.53 178.617 236.53H151.802V279H127.622ZM151.802 217.775H175.517C181.304 217.775 185.592 216.483 188.382 213.9C191.275 211.317 192.722 207.7 192.722 203.05C192.722 198.4 191.275 194.835 188.382 192.355C185.592 189.772 181.304 188.48 175.517 188.48H151.802V217.775ZM203.821 279L254.041 169.725H274.036L324.876 279H300.386L287.211 248.62L296.666 255.285H231.721L241.331 248.62L228.156 279H203.821ZM263.961 195.145L243.966 242.575L239.781 236.685H288.606L285.041 242.575L264.581 195.145H263.961ZM366.849 280.705C357.549 280.705 349.23 279.62 341.894 277.45C334.66 275.177 328.357 272.025 322.984 267.995L330.269 250.48C334.712 253.787 339.827 256.37 345.614 258.23C351.4 259.987 357.859 260.865 364.989 260.865C373.255 260.865 379.3 259.625 383.124 257.145C387.05 254.665 389.014 250.945 389.014 245.985C389.014 241.542 387.464 238.235 384.364 236.065C381.264 233.895 376.459 232.81 369.949 232.81H342.669V214.21H367.314C373.617 214.21 378.319 213.177 381.419 211.11C384.519 208.94 386.069 205.685 386.069 201.345C386.069 197.315 384.364 194.06 380.954 191.58C377.647 189.1 372.377 187.86 365.144 187.86C359.15 187.86 353.312 188.738 347.629 190.495C341.945 192.252 336.985 194.783 332.749 198.09L325.464 180.42C330.32 176.493 336.469 173.445 343.909 171.275C351.349 169.105 359.305 168.02 367.779 168.02C381.625 168.02 392.01 170.81 398.934 176.39C405.96 181.97 409.474 189.152 409.474 197.935C409.474 204.445 407.51 210.025 403.584 214.675C399.76 219.222 394.49 222.27 387.774 223.82V221.34C395.524 222.683 401.517 225.68 405.754 230.33C410.094 234.877 412.264 240.87 412.264 248.31C412.264 254.717 410.61 260.348 407.304 265.205C403.997 270.062 398.934 273.885 392.114 276.675C385.397 279.362 376.975 280.705 366.849 280.705ZM417 305.35V260.4H428.47C433.326 254.51 436.943 246.45 439.32 236.22C441.696 225.887 442.885 213.332 442.885 198.555V169.725H524.88V260.4H540.845V305.35H519.92V279H438.08V305.35H417ZM452.34 260.4H500.855V188.17H464.895V200.88C464.895 214.83 463.861 226.662 461.795 236.375C459.728 246.088 456.576 254.097 452.34 260.4ZM551.541 279V169.725H575.721V213.59H625.786V169.725H650.121V279H625.786V233.585H575.721V279H551.541ZM668.457 279V169.725H690.777V245.675H686.902L746.112 169.725H764.092V279H741.617V203.05H745.492L686.127 279H668.457ZM782.346 279V169.725H806.216V214.985H822.646L818.461 217.62L849.151 169.725H875.501L840.316 222.27L830.861 215.76C838.197 217 844.242 219.532 848.996 223.355C853.852 227.178 858.037 232.603 861.551 239.63L881.236 279H855.196L840.471 248C838.197 243.04 835.407 239.578 832.101 237.615C828.794 235.548 824.557 234.515 819.391 234.515H806.216V279H782.346Z" fill="url(#paint2_linear_3201_5210)"/>
<path d="M314.965 132L265.83 22.725H291.87L329.225 110.145H321.63L358.985 22.725H384.095L334.96 132H314.965ZM389.264 132V22.725H413.444V132H389.264ZM431.708 132V22.725H482.703C495 22.725 504.3 25.7217 510.603 31.715C517.01 37.605 520.213 45.7167 520.213 56.05C520.213 66.28 517.01 74.4433 510.603 80.54C504.3 86.5333 495 89.53 482.703 89.53H455.888V132H431.708ZM455.888 70.775H479.603C485.39 70.775 489.678 69.4833 492.468 66.9C495.361 64.3167 496.808 60.7 496.808 56.05C496.808 51.4 495.361 47.835 492.468 45.355C489.678 42.7717 485.39 41.48 479.603 41.48H455.888V70.775Z" fill="url(#paint3_linear_3201_5210)"/>
<defs>
<linearGradient id="paint0_linear_3201_5210" x1="762" y1="441" x2="756.319" y2="611.429" gradientUnits="userSpaceOnUse">
<stop stop-color="#1B1918"/>
<stop offset="0.197389" stop-color="#C3961E"/>
<stop offset="0.538406" stop-color="#C3961E"/>
<stop offset="1" stop-color="#1B1918"/>
</linearGradient>
<linearGradient id="paint1_linear_3201_5210" x1="196.262" y1="294" x2="192.609" y2="473.939" gradientUnits="userSpaceOnUse">
<stop stop-color="#1B1918"/>
<stop offset="0.197389" stop-color="#C3961E"/>
<stop offset="0.538406" stop-color="#C3961E"/>
<stop offset="1" stop-color="#1B1918"/>
</linearGradient>
<linearGradient id="paint2_linear_3201_5210" x1="-224.93" y1="120" x2="-229.93" y2="293.399" gradientUnits="userSpaceOnUse">
<stop stop-color="#1B1918"/>
<stop offset="0.197389" stop-color="#C3961E"/>
<stop offset="0.538406" stop-color="#C3961E"/>
<stop offset="1" stop-color="#1B1918"/>
</linearGradient>
<linearGradient id="paint3_linear_3201_5210" x1="255.86" y1="-13.75" x2="239.011" y2="193.3" gradientUnits="userSpaceOnUse">
<stop stop-color="#1B1918"/>
<stop offset="0.197389" stop-color="#C3961E"/>
<stop offset="0.538406" stop-color="#C3961E"/>
<stop offset="1" stop-color="#1B1918"/>
</linearGradient>
</defs>
</svg>
