<svg width="2611" height="276" viewBox="0 0 2611 276" fill="none" xmlns="http://www.w3.org/2000/svg">
<g opacity="0.5">
<g opacity="0.5">
<mask id="path-1-outside-1_537_1128" maskUnits="userSpaceOnUse" x="14.2032" y="40.8335" width="463" height="209" fill="black">
<rect fill="white" x="14.2032" y="40.8335" width="463" height="209"/>
<path d="M76.4733 247.833L17.3132 43.3835H64.2933L108.083 206.943H94.1632L189.573 43.3835H238.293L113.883 247.833H76.4733ZM211.135 247.833L243.615 43.3835H288.855L256.375 247.833H211.135ZM286.195 247.833L318.675 43.3835H409.735C433.902 43.3835 451.399 49.4735 462.225 61.6535C473.052 73.6402 476.822 89.8802 473.535 110.373C471.795 121.78 467.639 131.93 461.065 140.823C454.685 149.523 445.985 156.29 434.965 161.123C423.945 165.957 410.702 168.373 395.235 168.373H343.905L331.435 247.833H286.195ZM349.705 133.283H394.075C405.095 133.283 413.505 131.06 419.305 126.613C425.299 122.167 428.972 115.69 430.325 107.183C431.872 97.9035 430.229 90.8468 425.395 86.0135C420.755 80.9868 412.925 78.4735 401.905 78.4735H358.115L349.705 133.283Z"/>
</mask>
<path d="M76.4733 247.833L74.5521 248.389L74.9699 249.833H76.4733V247.833ZM17.3132 43.3835V41.3835H14.6525L15.3921 43.9394L17.3132 43.3835ZM64.2933 43.3835L66.2252 42.8662L65.8282 41.3835H64.2933V43.3835ZM108.083 206.943V208.943H110.689L110.015 206.426L108.083 206.943ZM94.1632 206.943L92.4357 205.936L90.6812 208.943H94.1632V206.943ZM189.573 43.3835V41.3835H188.425L187.846 42.3757L189.573 43.3835ZM238.293 43.3835L240.002 44.4231L241.851 41.3835H238.293V43.3835ZM113.883 247.833V249.833H115.007L115.592 248.873L113.883 247.833ZM78.3944 247.278L19.2344 42.8276L15.3921 43.9394L74.5521 248.389L78.3944 247.278ZM17.3132 45.3835H64.2933V41.3835H17.3132V45.3835ZM62.3613 43.9007L106.151 207.461L110.015 206.426L66.2252 42.8662L62.3613 43.9007ZM108.083 204.943H94.1632V208.943H108.083V204.943ZM95.8908 207.951L191.301 44.3912L187.846 42.3757L92.4357 205.936L95.8908 207.951ZM189.573 45.3835H238.293V41.3835H189.573V45.3835ZM236.585 42.3438L112.175 246.794L115.592 248.873L240.002 44.4231L236.585 42.3438ZM113.883 245.833H76.4733V249.833H113.883V245.833ZM211.135 247.833L209.16 247.52L208.792 249.833H211.135V247.833ZM243.615 43.3835V41.3835H241.908L241.64 43.0697L243.615 43.3835ZM288.855 43.3835L290.83 43.6973L291.198 41.3835H288.855V43.3835ZM256.375 247.833V249.833H258.083L258.35 248.147L256.375 247.833ZM213.11 248.147L245.59 43.6973L241.64 43.0697L209.16 247.52L213.11 248.147ZM243.615 45.3835H288.855V41.3835H243.615V45.3835ZM286.88 43.0697L254.4 247.52L258.35 248.147L290.83 43.6973L286.88 43.0697ZM256.375 245.833H211.135V249.833H256.375V245.833ZM286.195 247.833L284.22 247.52L283.853 249.833H286.195V247.833ZM318.675 43.3835V41.3835H316.968L316.7 43.0697L318.675 43.3835ZM462.225 61.6535L460.731 62.9822L460.736 62.9882L460.741 62.9941L462.225 61.6535ZM473.535 110.373L471.561 110.057L471.559 110.064L471.558 110.072L473.535 110.373ZM461.065 140.823L459.457 139.635L459.453 139.641L461.065 140.823ZM434.965 161.123L434.162 159.292L434.965 161.123ZM343.905 168.373V166.373H342.195L341.93 168.063L343.905 168.373ZM331.435 247.833V249.833H333.146L333.411 248.144L331.435 247.833ZM349.705 133.283L347.728 132.98L347.375 135.283H349.705V133.283ZM419.305 126.613L418.114 125.007L418.101 125.017L418.089 125.026L419.305 126.613ZM430.325 107.183L428.353 106.855L428.351 106.862L428.35 106.869L430.325 107.183ZM425.395 86.0135L423.926 87.37L423.953 87.3994L423.981 87.4277L425.395 86.0135ZM358.115 78.4735V76.4735H356.399L356.138 78.1702L358.115 78.4735ZM288.171 248.147L320.651 43.6973L316.7 43.0697L284.22 247.52L288.171 248.147ZM318.675 45.3835H409.735V41.3835H318.675V45.3835ZM409.735 45.3835C433.61 45.3835 450.436 51.4009 460.731 62.9822L463.72 60.3248C452.361 47.5461 434.194 41.3835 409.735 41.3835V45.3835ZM460.741 62.9941C471.051 74.4084 474.781 89.9767 471.561 110.057L475.51 110.69C478.863 89.7836 475.053 72.8719 463.71 60.3129L460.741 62.9941ZM471.558 110.072C469.865 121.172 465.829 131.014 459.457 139.635L462.674 142.012C469.449 132.846 473.726 122.389 475.512 110.675L471.558 110.072ZM459.453 139.641C453.304 148.025 444.898 154.583 434.162 159.292L435.769 162.955C447.073 157.997 456.067 151.022 462.678 142.006L459.453 139.641ZM434.162 159.292C423.456 163.987 410.501 166.373 395.235 166.373V170.373C410.903 170.373 424.434 167.926 435.769 162.955L434.162 159.292ZM395.235 166.373H343.905V170.373H395.235V166.373ZM341.93 168.063L329.46 247.523L333.411 248.144L345.881 168.684L341.93 168.063ZM331.435 245.833H286.195V249.833H331.435V245.833ZM349.705 135.283H394.075V131.283H349.705V135.283ZM394.075 135.283C405.323 135.283 414.235 133.021 420.522 128.201L418.089 125.026C412.775 129.1 404.868 131.283 394.075 131.283V135.283ZM420.497 128.22C426.976 123.413 430.879 116.435 432.301 107.498L428.35 106.869C427.065 114.945 423.622 120.921 418.114 125.007L420.497 128.22ZM432.298 107.512C433.908 97.8545 432.258 90.048 426.81 84.5993L423.981 87.4277C428.199 91.6457 429.836 97.9525 428.353 106.855L432.298 107.512ZM426.865 84.6569C421.669 79.0275 413.152 76.4735 401.905 76.4735V80.4735C412.698 80.4735 419.842 82.9461 423.926 87.37L426.865 84.6569ZM401.905 76.4735H358.115V80.4735H401.905V76.4735ZM356.138 78.1702L347.728 132.98L351.682 133.587L360.092 78.7768L356.138 78.1702Z" fill="white" mask="url(#path-1-outside-1_537_1128)"/>
</g>
<g opacity="0.5">
<mask id="path-3-outside-2_537_1128" maskUnits="userSpaceOnUse" x="547.203" y="40.8335" width="463" height="209" fill="black">
<rect fill="white" x="547.203" y="40.8335" width="463" height="209"/>
<path d="M609.473 247.833L550.313 43.3835H597.293L641.083 206.943H627.163L722.573 43.3835H771.293L646.883 247.833H609.473ZM744.135 247.833L776.615 43.3835H821.855L789.375 247.833H744.135ZM819.195 247.833L851.675 43.3835H942.735C966.902 43.3835 984.399 49.4735 995.225 61.6535C1006.05 73.6402 1009.82 89.8802 1006.54 110.373C1004.8 121.78 1000.64 131.93 994.065 140.823C987.685 149.523 978.985 156.29 967.965 161.123C956.945 165.957 943.702 168.373 928.235 168.373H876.905L864.435 247.833H819.195ZM882.705 133.283H927.075C938.095 133.283 946.505 131.06 952.305 126.613C958.299 122.167 961.972 115.69 963.325 107.183C964.872 97.9035 963.229 90.8468 958.395 86.0135C953.755 80.9868 945.925 78.4735 934.905 78.4735H891.115L882.705 133.283Z"/>
</mask>
<path d="M609.473 247.833L607.552 248.389L607.97 249.833H609.473V247.833ZM550.313 43.3835V41.3835H547.652L548.392 43.9394L550.313 43.3835ZM597.293 43.3835L599.225 42.8662L598.828 41.3835H597.293V43.3835ZM641.083 206.943V208.943H643.689L643.015 206.426L641.083 206.943ZM627.163 206.943L625.436 205.936L623.681 208.943H627.163V206.943ZM722.573 43.3835V41.3835H721.425L720.846 42.3757L722.573 43.3835ZM771.293 43.3835L773.002 44.4231L774.851 41.3835H771.293V43.3835ZM646.883 247.833V249.833H648.007L648.592 248.873L646.883 247.833ZM611.394 247.278L552.234 42.8276L548.392 43.9394L607.552 248.389L611.394 247.278ZM550.313 45.3835H597.293V41.3835H550.313V45.3835ZM595.361 43.9007L639.151 207.461L643.015 206.426L599.225 42.8662L595.361 43.9007ZM641.083 204.943H627.163V208.943H641.083V204.943ZM628.891 207.951L724.301 44.3912L720.846 42.3757L625.436 205.936L628.891 207.951ZM722.573 45.3835H771.293V41.3835H722.573V45.3835ZM769.585 42.3438L645.175 246.794L648.592 248.873L773.002 44.4231L769.585 42.3438ZM646.883 245.833H609.473V249.833H646.883V245.833ZM744.135 247.833L742.16 247.52L741.792 249.833H744.135V247.833ZM776.615 43.3835V41.3835H774.908L774.64 43.0697L776.615 43.3835ZM821.855 43.3835L823.83 43.6973L824.198 41.3835H821.855V43.3835ZM789.375 247.833V249.833H791.083L791.35 248.147L789.375 247.833ZM746.11 248.147L778.59 43.6973L774.64 43.0697L742.16 247.52L746.11 248.147ZM776.615 45.3835H821.855V41.3835H776.615V45.3835ZM819.88 43.0697L787.4 247.52L791.35 248.147L823.83 43.6973L819.88 43.0697ZM789.375 245.833H744.135V249.833H789.375V245.833ZM819.195 247.833L817.22 247.52L816.853 249.833H819.195V247.833ZM851.675 43.3835V41.3835H849.968L849.7 43.0697L851.675 43.3835ZM995.225 61.6535L993.731 62.9822L993.736 62.9882L993.741 62.9941L995.225 61.6535ZM1006.54 110.373L1004.56 110.057L1004.56 110.064L1004.56 110.072L1006.54 110.373ZM994.065 140.823L992.457 139.635L992.453 139.641L994.065 140.823ZM967.965 161.123L967.162 159.292L967.965 161.123ZM876.905 168.373V166.373H875.195L874.93 168.063L876.905 168.373ZM864.435 247.833V249.833H866.146L866.411 248.144L864.435 247.833ZM882.705 133.283L880.728 132.98L880.375 135.283H882.705V133.283ZM952.305 126.613L951.114 125.007L951.101 125.017L951.089 125.026L952.305 126.613ZM963.325 107.183L961.353 106.855L961.351 106.862L961.35 106.869L963.325 107.183ZM958.395 86.0135L956.926 87.37L956.953 87.3994L956.981 87.4277L958.395 86.0135ZM891.115 78.4735V76.4735H889.399L889.138 78.1702L891.115 78.4735ZM821.171 248.147L853.651 43.6973L849.7 43.0697L817.22 247.52L821.171 248.147ZM851.675 45.3835H942.735V41.3835H851.675V45.3835ZM942.735 45.3835C966.61 45.3835 983.436 51.4009 993.731 62.9822L996.72 60.3248C985.361 47.5461 967.194 41.3835 942.735 41.3835V45.3835ZM993.741 62.9941C1004.05 74.4084 1007.78 89.9767 1004.56 110.057L1008.51 110.69C1011.86 89.7836 1008.05 72.8719 996.71 60.3129L993.741 62.9941ZM1004.56 110.072C1002.87 121.172 998.829 131.014 992.457 139.635L995.674 142.012C1002.45 132.846 1006.73 122.389 1008.51 110.675L1004.56 110.072ZM992.453 139.641C986.304 148.025 977.898 154.583 967.162 159.292L968.769 162.955C980.073 157.997 989.067 151.022 995.678 142.006L992.453 139.641ZM967.162 159.292C956.456 163.987 943.501 166.373 928.235 166.373V170.373C943.903 170.373 957.434 167.926 968.769 162.955L967.162 159.292ZM928.235 166.373H876.905V170.373H928.235V166.373ZM874.93 168.063L862.46 247.523L866.411 248.144L878.881 168.684L874.93 168.063ZM864.435 245.833H819.195V249.833H864.435V245.833ZM882.705 135.283H927.075V131.283H882.705V135.283ZM927.075 135.283C938.323 135.283 947.235 133.021 953.522 128.201L951.089 125.026C945.775 129.1 937.868 131.283 927.075 131.283V135.283ZM953.497 128.22C959.976 123.413 963.879 116.435 965.301 107.498L961.35 106.869C960.065 114.945 956.622 120.921 951.114 125.007L953.497 128.22ZM965.298 107.512C966.908 97.8545 965.258 90.048 959.81 84.5993L956.981 87.4277C961.199 91.6457 962.836 97.9525 961.353 106.855L965.298 107.512ZM959.865 84.6569C954.669 79.0275 946.152 76.4735 934.905 76.4735V80.4735C945.698 80.4735 952.842 82.9461 956.926 87.37L959.865 84.6569ZM934.905 76.4735H891.115V80.4735H934.905V76.4735ZM889.138 78.1702L880.728 132.98L884.682 133.587L893.092 78.7768L889.138 78.1702Z" fill="white" mask="url(#path-3-outside-2_537_1128)"/>
</g>
<g opacity="0.5">
<mask id="path-5-outside-3_537_1128" maskUnits="userSpaceOnUse" x="1080.2" y="40.8335" width="463" height="209" fill="black">
<rect fill="white" x="1080.2" y="40.8335" width="463" height="209"/>
<path d="M1142.47 247.833L1083.31 43.3835H1130.29L1174.08 206.943H1160.16L1255.57 43.3835H1304.29L1179.88 247.833H1142.47ZM1277.14 247.833L1309.62 43.3835H1354.86L1322.38 247.833H1277.14ZM1352.2 247.833L1384.68 43.3835H1475.74C1499.9 43.3835 1517.4 49.4735 1528.23 61.6535C1539.05 73.6402 1542.82 89.8802 1539.54 110.373C1537.8 121.78 1533.64 131.93 1527.07 140.823C1520.69 149.523 1511.99 156.29 1500.97 161.123C1489.95 165.957 1476.7 168.373 1461.24 168.373H1409.91L1397.44 247.833H1352.2ZM1415.71 133.283H1460.08C1471.1 133.283 1479.51 131.06 1485.31 126.613C1491.3 122.167 1494.97 115.69 1496.33 107.183C1497.87 97.9035 1496.23 90.8468 1491.4 86.0135C1486.76 80.9868 1478.93 78.4735 1467.91 78.4735H1424.12L1415.71 133.283Z"/>
</mask>
<path d="M1142.47 247.833L1140.55 248.389L1140.97 249.833H1142.47V247.833ZM1083.31 43.3835V41.3835H1080.65L1081.39 43.9394L1083.31 43.3835ZM1130.29 43.3835L1132.23 42.8662L1131.83 41.3835H1130.29V43.3835ZM1174.08 206.943V208.943H1176.69L1176.02 206.426L1174.08 206.943ZM1160.16 206.943L1158.44 205.936L1156.68 208.943H1160.16V206.943ZM1255.57 43.3835V41.3835H1254.42L1253.85 42.3757L1255.57 43.3835ZM1304.29 43.3835L1306 44.4231L1307.85 41.3835H1304.29V43.3835ZM1179.88 247.833V249.833H1181.01L1181.59 248.873L1179.88 247.833ZM1144.39 247.278L1085.23 42.8276L1081.39 43.9394L1140.55 248.389L1144.39 247.278ZM1083.31 45.3835H1130.29V41.3835H1083.31V45.3835ZM1128.36 43.9007L1172.15 207.461L1176.02 206.426L1132.23 42.8662L1128.36 43.9007ZM1174.08 204.943H1160.16V208.943H1174.08V204.943ZM1161.89 207.951L1257.3 44.3912L1253.85 42.3757L1158.44 205.936L1161.89 207.951ZM1255.57 45.3835H1304.29V41.3835H1255.57V45.3835ZM1302.58 42.3438L1178.17 246.794L1181.59 248.873L1306 44.4231L1302.58 42.3438ZM1179.88 245.833H1142.47V249.833H1179.88V245.833ZM1277.14 247.833L1275.16 247.52L1274.79 249.833H1277.14V247.833ZM1309.62 43.3835V41.3835H1307.91L1307.64 43.0697L1309.62 43.3835ZM1354.86 43.3835L1356.83 43.6973L1357.2 41.3835H1354.86V43.3835ZM1322.38 247.833V249.833H1324.08L1324.35 248.147L1322.38 247.833ZM1279.11 248.147L1311.59 43.6973L1307.64 43.0697L1275.16 247.52L1279.11 248.147ZM1309.62 45.3835H1354.86V41.3835H1309.62V45.3835ZM1352.88 43.0697L1320.4 247.52L1324.35 248.147L1356.83 43.6973L1352.88 43.0697ZM1322.38 245.833H1277.14V249.833H1322.38V245.833ZM1352.2 247.833L1350.22 247.52L1349.85 249.833H1352.2V247.833ZM1384.68 43.3835V41.3835H1382.97L1382.7 43.0697L1384.68 43.3835ZM1528.23 61.6535L1526.73 62.9822L1526.74 62.9882L1526.74 62.9941L1528.23 61.6535ZM1539.54 110.373L1537.56 110.057L1537.56 110.064L1537.56 110.072L1539.54 110.373ZM1527.07 140.823L1525.46 139.635L1525.45 139.641L1527.07 140.823ZM1500.97 161.123L1500.16 159.292L1500.97 161.123ZM1409.91 168.373V166.373H1408.19L1407.93 168.063L1409.91 168.373ZM1397.44 247.833V249.833H1399.15L1399.41 248.144L1397.44 247.833ZM1415.71 133.283L1413.73 132.98L1413.37 135.283H1415.71V133.283ZM1485.31 126.613L1484.11 125.007L1484.1 125.017L1484.09 125.026L1485.31 126.613ZM1496.33 107.183L1494.35 106.855L1494.35 106.862L1494.35 106.869L1496.33 107.183ZM1491.4 86.0135L1489.93 87.37L1489.95 87.3994L1489.98 87.4277L1491.4 86.0135ZM1424.12 78.4735V76.4735H1422.4L1422.14 78.1702L1424.12 78.4735ZM1354.17 248.147L1386.65 43.6973L1382.7 43.0697L1350.22 247.52L1354.17 248.147ZM1384.68 45.3835H1475.74V41.3835H1384.68V45.3835ZM1475.74 45.3835C1499.61 45.3835 1516.44 51.4009 1526.73 62.9822L1529.72 60.3248C1518.36 47.5461 1500.19 41.3835 1475.74 41.3835V45.3835ZM1526.74 62.9941C1537.05 74.4084 1540.78 89.9767 1537.56 110.057L1541.51 110.69C1544.86 89.7836 1541.05 72.8719 1529.71 60.3129L1526.74 62.9941ZM1537.56 110.072C1535.86 121.172 1531.83 131.014 1525.46 139.635L1528.67 142.012C1535.45 132.846 1539.73 122.389 1541.51 110.675L1537.56 110.072ZM1525.45 139.641C1519.3 148.025 1510.9 154.583 1500.16 159.292L1501.77 162.955C1513.07 157.997 1522.07 151.022 1528.68 142.006L1525.45 139.641ZM1500.16 159.292C1489.46 163.987 1476.5 166.373 1461.24 166.373V170.373C1476.9 170.373 1490.43 167.926 1501.77 162.955L1500.16 159.292ZM1461.24 166.373H1409.91V170.373H1461.24V166.373ZM1407.93 168.063L1395.46 247.523L1399.41 248.144L1411.88 168.684L1407.93 168.063ZM1397.44 245.833H1352.2V249.833H1397.44V245.833ZM1415.71 135.283H1460.08V131.283H1415.71V135.283ZM1460.08 135.283C1471.32 135.283 1480.24 133.021 1486.52 128.201L1484.09 125.026C1478.78 129.1 1470.87 131.283 1460.08 131.283V135.283ZM1486.5 128.22C1492.98 123.413 1496.88 116.435 1498.3 107.498L1494.35 106.869C1493.07 114.945 1489.62 120.921 1484.11 125.007L1486.5 128.22ZM1498.3 107.512C1499.91 97.8545 1498.26 90.048 1492.81 84.5993L1489.98 87.4277C1494.2 91.6457 1495.84 97.9525 1494.35 106.855L1498.3 107.512ZM1492.86 84.6569C1487.67 79.0275 1479.15 76.4735 1467.91 76.4735V80.4735C1478.7 80.4735 1485.84 82.9461 1489.93 87.37L1492.86 84.6569ZM1467.91 76.4735H1424.12V80.4735H1467.91V76.4735ZM1422.14 78.1702L1413.73 132.98L1417.68 133.587L1426.09 78.7768L1422.14 78.1702Z" fill="white" mask="url(#path-5-outside-3_537_1128)"/>
</g>
<g opacity="0.3">
<mask id="path-7-outside-4_537_1128" maskUnits="userSpaceOnUse" x="1613.2" y="40.8335" width="463" height="209" fill="black">
<rect fill="white" x="1613.2" y="40.8335" width="463" height="209"/>
<path d="M1675.47 247.833L1616.31 43.3835H1663.29L1707.08 206.943H1693.16L1788.57 43.3835H1837.29L1712.88 247.833H1675.47ZM1810.14 247.833L1842.62 43.3835H1887.86L1855.38 247.833H1810.14ZM1885.2 247.833L1917.68 43.3835H2008.74C2032.9 43.3835 2050.4 49.4735 2061.23 61.6535C2072.05 73.6402 2075.82 89.8802 2072.54 110.373C2070.8 121.78 2066.64 131.93 2060.07 140.823C2053.69 149.523 2044.99 156.29 2033.97 161.123C2022.95 165.957 2009.7 168.373 1994.24 168.373H1942.91L1930.44 247.833H1885.2ZM1948.71 133.283H1993.08C2004.1 133.283 2012.51 131.06 2018.31 126.613C2024.3 122.167 2027.97 115.69 2029.33 107.183C2030.87 97.9035 2029.23 90.8468 2024.4 86.0135C2019.76 80.9868 2011.93 78.4735 2000.91 78.4735H1957.12L1948.71 133.283Z"/>
</mask>
<path d="M1675.47 247.833L1673.55 248.389L1673.97 249.833H1675.47V247.833ZM1616.31 43.3835V41.3835H1613.65L1614.39 43.9394L1616.31 43.3835ZM1663.29 43.3835L1665.23 42.8662L1664.83 41.3835H1663.29V43.3835ZM1707.08 206.943V208.943H1709.69L1709.02 206.426L1707.08 206.943ZM1693.16 206.943L1691.44 205.936L1689.68 208.943H1693.16V206.943ZM1788.57 43.3835V41.3835H1787.42L1786.85 42.3757L1788.57 43.3835ZM1837.29 43.3835L1839 44.4231L1840.85 41.3835H1837.29V43.3835ZM1712.88 247.833V249.833H1714.01L1714.59 248.873L1712.88 247.833ZM1677.39 247.278L1618.23 42.8276L1614.39 43.9394L1673.55 248.389L1677.39 247.278ZM1616.31 45.3835H1663.29V41.3835H1616.31V45.3835ZM1661.36 43.9007L1705.15 207.461L1709.02 206.426L1665.23 42.8662L1661.36 43.9007ZM1707.08 204.943H1693.16V208.943H1707.08V204.943ZM1694.89 207.951L1790.3 44.3912L1786.85 42.3757L1691.44 205.936L1694.89 207.951ZM1788.57 45.3835H1837.29V41.3835H1788.57V45.3835ZM1835.58 42.3438L1711.17 246.794L1714.59 248.873L1839 44.4231L1835.58 42.3438ZM1712.88 245.833H1675.47V249.833H1712.88V245.833ZM1810.14 247.833L1808.16 247.52L1807.79 249.833H1810.14V247.833ZM1842.62 43.3835V41.3835H1840.91L1840.64 43.0697L1842.62 43.3835ZM1887.86 43.3835L1889.83 43.6973L1890.2 41.3835H1887.86V43.3835ZM1855.38 247.833V249.833H1857.08L1857.35 248.147L1855.38 247.833ZM1812.11 248.147L1844.59 43.6973L1840.64 43.0697L1808.16 247.52L1812.11 248.147ZM1842.62 45.3835H1887.86V41.3835H1842.62V45.3835ZM1885.88 43.0697L1853.4 247.52L1857.35 248.147L1889.83 43.6973L1885.88 43.0697ZM1855.38 245.833H1810.14V249.833H1855.38V245.833ZM1885.2 247.833L1883.22 247.52L1882.85 249.833H1885.2V247.833ZM1917.68 43.3835V41.3835H1915.97L1915.7 43.0697L1917.68 43.3835ZM2061.23 61.6535L2059.73 62.9822L2059.74 62.9882L2059.74 62.9941L2061.23 61.6535ZM2072.54 110.373L2070.56 110.057L2070.56 110.064L2070.56 110.072L2072.54 110.373ZM2060.07 140.823L2058.46 139.635L2058.45 139.641L2060.07 140.823ZM2033.97 161.123L2033.16 159.292L2033.97 161.123ZM1942.91 168.373V166.373H1941.19L1940.93 168.063L1942.91 168.373ZM1930.44 247.833V249.833H1932.15L1932.41 248.144L1930.44 247.833ZM1948.71 133.283L1946.73 132.98L1946.37 135.283H1948.71V133.283ZM2018.31 126.613L2017.11 125.007L2017.1 125.017L2017.09 125.026L2018.31 126.613ZM2029.33 107.183L2027.35 106.855L2027.35 106.862L2027.35 106.869L2029.33 107.183ZM2024.4 86.0135L2022.93 87.37L2022.95 87.3994L2022.98 87.4277L2024.4 86.0135ZM1957.12 78.4735V76.4735H1955.4L1955.14 78.1702L1957.12 78.4735ZM1887.17 248.147L1919.65 43.6973L1915.7 43.0697L1883.22 247.52L1887.17 248.147ZM1917.68 45.3835H2008.74V41.3835H1917.68V45.3835ZM2008.74 45.3835C2032.61 45.3835 2049.44 51.4009 2059.73 62.9822L2062.72 60.3248C2051.36 47.5461 2033.19 41.3835 2008.74 41.3835V45.3835ZM2059.74 62.9941C2070.05 74.4084 2073.78 89.9767 2070.56 110.057L2074.51 110.69C2077.86 89.7836 2074.05 72.8719 2062.71 60.3129L2059.74 62.9941ZM2070.56 110.072C2068.86 121.172 2064.83 131.014 2058.46 139.635L2061.67 142.012C2068.45 132.846 2072.73 122.389 2074.51 110.675L2070.56 110.072ZM2058.45 139.641C2052.3 148.025 2043.9 154.583 2033.16 159.292L2034.77 162.955C2046.07 157.997 2055.07 151.022 2061.68 142.006L2058.45 139.641ZM2033.16 159.292C2022.46 163.987 2009.5 166.373 1994.24 166.373V170.373C2009.9 170.373 2023.43 167.926 2034.77 162.955L2033.16 159.292ZM1994.24 166.373H1942.91V170.373H1994.24V166.373ZM1940.93 168.063L1928.46 247.523L1932.41 248.144L1944.88 168.684L1940.93 168.063ZM1930.44 245.833H1885.2V249.833H1930.44V245.833ZM1948.71 135.283H1993.08V131.283H1948.71V135.283ZM1993.08 135.283C2004.32 135.283 2013.24 133.021 2019.52 128.201L2017.09 125.026C2011.78 129.1 2003.87 131.283 1993.08 131.283V135.283ZM2019.5 128.22C2025.98 123.413 2029.88 116.435 2031.3 107.498L2027.35 106.869C2026.07 114.945 2022.62 120.921 2017.11 125.007L2019.5 128.22ZM2031.3 107.512C2032.91 97.8545 2031.26 90.048 2025.81 84.5993L2022.98 87.4277C2027.2 91.6457 2028.84 97.9525 2027.35 106.855L2031.3 107.512ZM2025.86 84.6569C2020.67 79.0275 2012.15 76.4735 2000.91 76.4735V80.4735C2011.7 80.4735 2018.84 82.9461 2022.93 87.37L2025.86 84.6569ZM2000.91 76.4735H1957.12V80.4735H2000.91V76.4735ZM1955.14 78.1702L1946.73 132.98L1950.68 133.587L1959.09 78.7768L1955.14 78.1702Z" fill="white" mask="url(#path-7-outside-4_537_1128)"/>
</g>
<g opacity="0.3">
<mask id="path-9-outside-5_537_1128" maskUnits="userSpaceOnUse" x="2146.2" y="40.8335" width="463" height="209" fill="black">
<rect fill="white" x="2146.2" y="40.8335" width="463" height="209"/>
<path d="M2208.47 247.833L2149.31 43.3835H2196.29L2240.08 206.943H2226.16L2321.57 43.3835H2370.29L2245.88 247.833H2208.47ZM2343.14 247.833L2375.62 43.3835H2420.86L2388.38 247.833H2343.14ZM2418.2 247.833L2450.68 43.3835H2541.74C2565.9 43.3835 2583.4 49.4735 2594.23 61.6535C2605.05 73.6402 2608.82 89.8802 2605.54 110.373C2603.8 121.78 2599.64 131.93 2593.07 140.823C2586.69 149.523 2577.99 156.29 2566.97 161.123C2555.95 165.957 2542.7 168.373 2527.24 168.373H2475.91L2463.44 247.833H2418.2ZM2481.71 133.283H2526.08C2537.1 133.283 2545.51 131.06 2551.31 126.613C2557.3 122.167 2560.97 115.69 2562.33 107.183C2563.87 97.9035 2562.23 90.8468 2557.4 86.0135C2552.76 80.9868 2544.93 78.4735 2533.91 78.4735H2490.12L2481.71 133.283Z"/>
</mask>
<path d="M2208.47 247.833L2206.55 248.389L2206.97 249.833H2208.47V247.833ZM2149.31 43.3835V41.3835H2146.65L2147.39 43.9394L2149.31 43.3835ZM2196.29 43.3835L2198.23 42.8662L2197.83 41.3835H2196.29V43.3835ZM2240.08 206.943V208.943H2242.69L2242.02 206.426L2240.08 206.943ZM2226.16 206.943L2224.44 205.936L2222.68 208.943H2226.16V206.943ZM2321.57 43.3835V41.3835H2320.42L2319.85 42.3757L2321.57 43.3835ZM2370.29 43.3835L2372 44.4231L2373.85 41.3835H2370.29V43.3835ZM2245.88 247.833V249.833H2247.01L2247.59 248.873L2245.88 247.833ZM2210.39 247.278L2151.23 42.8276L2147.39 43.9394L2206.55 248.389L2210.39 247.278ZM2149.31 45.3835H2196.29V41.3835H2149.31V45.3835ZM2194.36 43.9007L2238.15 207.461L2242.02 206.426L2198.23 42.8662L2194.36 43.9007ZM2240.08 204.943H2226.16V208.943H2240.08V204.943ZM2227.89 207.951L2323.3 44.3912L2319.85 42.3757L2224.44 205.936L2227.89 207.951ZM2321.57 45.3835H2370.29V41.3835H2321.57V45.3835ZM2368.58 42.3438L2244.17 246.794L2247.59 248.873L2372 44.4231L2368.58 42.3438ZM2245.88 245.833H2208.47V249.833H2245.88V245.833ZM2343.14 247.833L2341.16 247.52L2340.79 249.833H2343.14V247.833ZM2375.62 43.3835V41.3835H2373.91L2373.64 43.0697L2375.62 43.3835ZM2420.86 43.3835L2422.83 43.6973L2423.2 41.3835H2420.86V43.3835ZM2388.38 247.833V249.833H2390.08L2390.35 248.147L2388.38 247.833ZM2345.11 248.147L2377.59 43.6973L2373.64 43.0697L2341.16 247.52L2345.11 248.147ZM2375.62 45.3835H2420.86V41.3835H2375.62V45.3835ZM2418.88 43.0697L2386.4 247.52L2390.35 248.147L2422.83 43.6973L2418.88 43.0697ZM2388.38 245.833H2343.14V249.833H2388.38V245.833ZM2418.2 247.833L2416.22 247.52L2415.85 249.833H2418.2V247.833ZM2450.68 43.3835V41.3835H2448.97L2448.7 43.0697L2450.68 43.3835ZM2594.23 61.6535L2592.73 62.9822L2592.74 62.9882L2592.74 62.9941L2594.23 61.6535ZM2605.54 110.373L2603.56 110.057L2603.56 110.064L2603.56 110.072L2605.54 110.373ZM2593.07 140.823L2591.46 139.635L2591.45 139.641L2593.07 140.823ZM2566.97 161.123L2566.16 159.292L2566.97 161.123ZM2475.91 168.373V166.373H2474.19L2473.93 168.063L2475.91 168.373ZM2463.44 247.833V249.833H2465.15L2465.41 248.144L2463.44 247.833ZM2481.71 133.283L2479.73 132.98L2479.37 135.283H2481.71V133.283ZM2551.31 126.613L2550.11 125.007L2550.1 125.017L2550.09 125.026L2551.31 126.613ZM2562.33 107.183L2560.35 106.855L2560.35 106.862L2560.35 106.869L2562.33 107.183ZM2557.4 86.0135L2555.93 87.37L2555.95 87.3994L2555.98 87.4277L2557.4 86.0135ZM2490.12 78.4735V76.4735H2488.4L2488.14 78.1702L2490.12 78.4735ZM2420.17 248.147L2452.65 43.6973L2448.7 43.0697L2416.22 247.52L2420.17 248.147ZM2450.68 45.3835H2541.74V41.3835H2450.68V45.3835ZM2541.74 45.3835C2565.61 45.3835 2582.44 51.4009 2592.73 62.9822L2595.72 60.3248C2584.36 47.5461 2566.19 41.3835 2541.74 41.3835V45.3835ZM2592.74 62.9941C2603.05 74.4084 2606.78 89.9767 2603.56 110.057L2607.51 110.69C2610.86 89.7836 2607.05 72.8719 2595.71 60.3129L2592.74 62.9941ZM2603.56 110.072C2601.86 121.172 2597.83 131.014 2591.46 139.635L2594.67 142.012C2601.45 132.846 2605.73 122.389 2607.51 110.675L2603.56 110.072ZM2591.45 139.641C2585.3 148.025 2576.9 154.583 2566.16 159.292L2567.77 162.955C2579.07 157.997 2588.07 151.022 2594.68 142.006L2591.45 139.641ZM2566.16 159.292C2555.46 163.987 2542.5 166.373 2527.24 166.373V170.373C2542.9 170.373 2556.43 167.926 2567.77 162.955L2566.16 159.292ZM2527.24 166.373H2475.91V170.373H2527.24V166.373ZM2473.93 168.063L2461.46 247.523L2465.41 248.144L2477.88 168.684L2473.93 168.063ZM2463.44 245.833H2418.2V249.833H2463.44V245.833ZM2481.71 135.283H2526.08V131.283H2481.71V135.283ZM2526.08 135.283C2537.32 135.283 2546.24 133.021 2552.52 128.201L2550.09 125.026C2544.78 129.1 2536.87 131.283 2526.08 131.283V135.283ZM2552.5 128.22C2558.98 123.413 2562.88 116.435 2564.3 107.498L2560.35 106.869C2559.07 114.945 2555.62 120.921 2550.11 125.007L2552.5 128.22ZM2564.3 107.512C2565.91 97.8545 2564.26 90.048 2558.81 84.5993L2555.98 87.4277C2560.2 91.6457 2561.84 97.9525 2560.35 106.855L2564.3 107.512ZM2558.86 84.6569C2553.67 79.0275 2545.15 76.4735 2533.91 76.4735V80.4735C2544.7 80.4735 2551.84 82.9461 2555.93 87.37L2558.86 84.6569ZM2533.91 76.4735H2490.12V80.4735H2533.91V76.4735ZM2488.14 78.1702L2479.73 132.98L2483.68 133.587L2492.09 78.7768L2488.14 78.1702Z" fill="white" mask="url(#path-9-outside-5_537_1128)"/>
</g>
</g>
</svg>
