<svg width="50" height="50" viewBox="0 0 50 50" fill="none" xmlns="http://www.w3.org/2000/svg">
<g clip-path="url(#clip0_1039_6767)">
<path fill-rule="evenodd" clip-rule="evenodd" d="M13.3333 4C10.858 4 8.48401 4.98333 6.73367 6.73367C4.98333 8.48401 4 10.858 4 13.3333V36.6667C4 39.142 4.98333 41.516 6.73367 43.2663C8.48401 45.0167 10.858 46 13.3333 46H36.6667C39.142 46 41.516 45.0167 43.2663 43.2663C45.0167 41.516 46 39.142 46 36.6667V13.3333C46 10.858 45.0167 8.48401 43.2663 6.73367C41.516 4.98333 39.142 4 36.6667 4H13.3333ZM37.4413 20.4617C37.7848 19.9468 37.9096 19.3166 37.7884 18.7096C37.6672 18.1027 37.3099 17.5688 36.795 17.2253C36.2801 16.8819 35.6499 16.757 35.043 16.8782C34.436 16.9994 33.9021 17.3568 33.5587 17.8717C32.7327 18.9683 31.867 20.0183 30.8543 20.9517C29.6807 22.0343 28.493 22.8463 27.3357 23.327L27.317 18.8937C27.2501 18.3261 26.9773 17.8028 26.5502 17.423C26.1231 17.0432 25.5715 16.8334 25 16.8333C23.7353 16.9057 22.6667 17.839 22.6667 19.1667V29.3703C18.1213 28.1103 15.6667 23.7003 15.6667 19.1667C15.6667 18.5478 15.4208 17.9543 14.9832 17.5168C14.5457 17.0792 13.9522 16.8333 13.3333 16.8333C12.7145 16.8333 12.121 17.0792 11.6834 17.5168C11.2458 17.9543 11 18.5478 11 19.1667C11 27.6413 16.8567 34.3333 25 34.3333C25.6188 34.3333 26.2123 34.0875 26.6499 33.6499C27.0875 33.2123 27.3333 32.6188 27.3333 32V28.353C30.4413 28.6003 33.456 30.796 34.5807 33.043C34.7117 33.3267 34.8984 33.5812 35.1297 33.7913C35.3609 34.0015 35.632 34.163 35.9269 34.2664C36.2218 34.3698 36.5345 34.4129 36.8463 34.3932C37.1582 34.3734 37.4629 34.2912 37.7424 34.1515C38.0219 34.0117 38.2705 33.8173 38.4734 33.5796C38.6763 33.342 38.8294 33.066 38.9236 32.7681C39.0179 32.4701 39.0513 32.1563 39.0219 31.8452C38.9925 31.5341 38.901 31.232 38.7527 30.957C37.6373 28.724 35.556 26.6357 32.994 25.273C33.3393 24.9907 33.6823 24.692 34.0207 24.3817C35.3062 23.2093 36.4538 21.8941 37.4413 20.4617Z" fill="#E31E34"/>
</g>
<defs>
<clipPath id="clip0_1039_6767">
<rect width="50" height="50" fill="white"/>
</clipPath>
</defs>
</svg>
