<svg width="50" height="50" viewBox="0 0 50 50" fill="none" xmlns="http://www.w3.org/2000/svg">
<path d="M46 13.555C45.9764 12.649 45.9063 11.7448 45.79 10.846C45.6332 10.0588 45.3719 9.29601 45.013 8.578C44.6377 7.79912 44.1336 7.08916 43.522 6.478C42.9048 5.87363 42.1961 5.37044 41.422 4.987C40.703 4.63513 39.9403 4.38088 39.154 4.231C38.2637 4.09765 37.366 4.0205 36.466 4H13.555C12.649 4.0236 11.7448 4.09369 10.846 4.21C10.0588 4.3668 9.29601 4.62812 8.578 4.987C7.79912 5.36235 7.08916 5.86642 6.478 6.478C5.87363 7.09521 5.37044 7.80393 4.987 8.578C4.63513 9.29696 4.38088 10.0597 4.231 10.846C4.09765 11.7363 4.0205 12.634 4 13.534V36.445C4.0236 37.351 4.09369 38.2552 4.21 39.154C4.3668 39.9412 4.62812 40.704 4.987 41.422C5.36235 42.2009 5.86642 42.9108 6.478 43.522C7.09521 44.1264 7.80393 44.6296 8.578 45.013C9.29696 45.3649 10.0597 45.6191 10.846 45.769C11.7363 45.9023 12.634 45.9795 13.534 46H36.445C37.351 45.9764 38.2552 45.9063 39.154 45.79C39.9412 45.6332 40.704 45.3719 41.422 45.013C42.2009 44.6377 42.9108 44.1336 43.522 43.522C44.1264 42.9048 44.6296 42.1961 45.013 41.422C45.3649 40.703 45.6191 39.9403 45.769 39.154C45.9023 38.2637 45.9795 37.366 46 36.466V14.668V13.555ZM25.483 39.7C22.961 39.6876 20.4832 39.0374 18.28 37.81L10.3 39.91L12.4 32.098C11.0457 29.8225 10.321 27.2279 10.3 24.58C10.3084 21.6041 11.1971 18.6973 12.8544 16.2256C14.5116 13.7539 16.8632 11.8278 19.6129 10.69C22.3627 9.55219 25.3877 9.25351 28.3068 9.83157C31.226 10.4096 33.9089 11.8386 36.0175 13.9385C38.1261 16.0383 39.5662 18.7152 40.1564 21.632C40.7466 24.5487 40.4605 27.5749 39.3342 30.3294C38.2078 33.0839 36.2915 35.4434 33.8267 37.1109C31.3619 38.7784 28.4588 39.6793 25.483 39.7ZM25.483 12.127C23.2566 12.1525 21.0767 12.7675 19.1653 13.9093C17.2538 15.0512 15.6791 16.6792 14.6014 18.6276C13.5237 20.576 12.9816 22.7751 13.0302 25.0011C13.0788 27.2271 13.7163 29.4005 14.878 31.3L15.172 31.783L13.912 36.382L18.7 35.08L19.162 35.353C21.0721 36.4781 23.2452 37.0793 25.462 37.096C28.8037 37.096 32.0086 35.7685 34.3715 33.4055C36.7345 31.0426 38.062 27.8377 38.062 24.496C38.062 21.1543 36.7345 17.9494 34.3715 15.5865C32.0086 13.2235 28.8247 12.127 25.483 12.127ZM32.833 30.019C32.5579 30.4778 32.1897 30.8737 31.752 31.1812C31.3142 31.4887 30.8169 31.7008 30.292 31.804C29.5077 31.9473 28.7003 31.8969 27.94 31.657C27.2246 31.4333 26.5234 31.1669 25.84 30.859C23.2439 29.5563 21.0298 27.6027 19.414 25.189C18.536 24.0707 18.0032 22.7206 17.881 21.304C17.8685 20.7156 17.9798 20.1311 18.2077 19.5884C18.4356 19.0457 18.7751 18.557 19.204 18.154C19.3303 18.0108 19.4853 17.8956 19.659 17.816C19.8326 17.7365 20.021 17.6942 20.212 17.692H20.8C21.031 17.692 21.346 17.692 21.64 18.343C21.934 18.994 22.711 20.947 22.816 21.136C22.8676 21.2367 22.8945 21.3483 22.8945 21.4615C22.8945 21.5747 22.8676 21.6863 22.816 21.787C22.7232 22.0152 22.5957 22.2277 22.438 22.417C22.249 22.648 22.039 22.921 21.871 23.089C21.703 23.257 21.493 23.467 21.703 23.845C22.2744 24.8093 22.9816 25.6863 23.803 26.449C24.6974 27.2393 25.7201 27.8714 26.827 28.318C27.205 28.507 27.436 28.486 27.646 28.318C27.856 28.15 28.591 27.226 28.843 26.848C29.095 26.47 29.347 26.533 29.683 26.659C30.019 26.785 31.888 27.688 32.266 27.877C32.644 28.066 32.875 28.15 32.98 28.318C33.0711 28.8676 33.0205 29.4314 32.833 29.956V30.019Z" fill="#E31E34"/>
</svg>
