<svg width="60" height="60" viewBox="0 0 60 60" fill="none" xmlns="http://www.w3.org/2000/svg">
<rect width="60" height="60" rx="30" fill="#E31E34"/>
<path d="M39.8756 37.7542C39.2898 37.1684 38.34 37.1684 37.7542 37.7542C37.1684 38.34 37.1684 39.2897 37.7542 39.8755L39.8756 37.7542ZM42.9393 45.0607C43.5251 45.6464 44.4749 45.6464 45.0607 45.0607C45.6464 44.4749 45.6464 43.5251 45.0607 42.9393L42.9393 45.0607ZM24.7779 27.1667C23.9494 27.1667 23.2779 27.8383 23.2779 28.6667C23.2779 29.4951 23.9494 30.1667 24.7779 30.1667V27.1667ZM32.5557 30.1667C33.3842 30.1667 34.0557 29.4951 34.0557 28.6667C34.0557 27.8383 33.3842 27.1667 32.5557 27.1667V30.1667ZM27.1668 32.5556C27.1668 33.384 27.8384 34.0556 28.6668 34.0556C29.4952 34.0556 30.1668 33.384 30.1668 32.5556H27.1668ZM30.1668 24.7778C30.1668 23.9494 29.4952 23.2778 28.6668 23.2778C27.8384 23.2778 27.1668 23.9494 27.1668 24.7778H30.1668ZM37.7542 39.8755L42.9393 45.0607L45.0607 42.9393L39.8756 37.7542L37.7542 39.8755ZM24.7779 30.1667H32.5557V27.1667H24.7779V30.1667ZM30.1668 32.5556V24.7778H27.1668V32.5556H30.1668ZM28.6668 38.8334C23.0518 38.8334 18.5 34.2816 18.5 28.6667H15.5C15.5 35.9385 21.395 41.8334 28.6668 41.8334V38.8334ZM38.8336 28.6667C38.8336 34.2816 34.2818 38.8334 28.6668 38.8334V41.8334C35.9386 41.8334 41.8336 35.9385 41.8336 28.6667H38.8336ZM28.6668 18.5C34.2818 18.5 38.8336 23.0518 38.8336 28.6667H41.8336C41.8336 21.3949 35.9386 15.5 28.6668 15.5V18.5ZM28.6668 15.5C21.395 15.5 15.5 21.3949 15.5 28.6667H18.5C18.5 23.0518 23.0518 18.5 28.6668 18.5V15.5Z" fill="white"/>
</svg>
